<?xml version="1.0" encoding="utf-8"?>
<!-- Generator: Adobe Illustrator 25.4.1, SVG Export Plug-In . SVG Version: 6.00 Build 0)  -->
<svg version="1.1" id="Capa_1" xmlns="http://www.w3.org/2000/svg" xmlns:xlink="http://www.w3.org/1999/xlink" x="0px" y="0px"
	 viewBox="0 0 500 500" style="enable-background:new 0 0 500 500;" xml:space="preserve">
<style type="text/css">
	.st0{fill:#FFFFFF;}
</style>
<g>
	<path d="M264.8,6.5c353.6,41.8,267.5,554.4-79.2,478.1C-90.2,404.7-28.7-3,264.8,6.5z M454.1,250.4c0.6-109-87.6-203.9-203.5-204.5
		C141.3,45.3,47.1,133.7,46.1,248.7c-1,109.6,87.7,204.5,203.1,205.3C358.4,454.8,453.5,366.2,454.1,250.4z"/>
	<path class="st0" d="M454.1,250.4c-0.6,115.8-95.6,204.3-204.9,203.6c-115.4-0.8-204.1-95.8-203.1-205.3
		c1-115,95.2-203.4,204.5-202.8C366.4,46.6,454.7,141.5,454.1,250.4z M309.1,394.3c0-13.1,0-25.3,0-37.8c-7.6,0-14.7,0-22.7,0
		c0-60.7,0-121,0-181.8c-2.3,0-3.7,0-5.1,0c-13.5,0.1-27,0.3-40.4,0.4c-14.8,0.1-29.6,0.3-44.3,0.2c-3.3,0-4.2,1.1-4.1,4.2
		c0.2,10.5,0.2,21,0.1,31.5c0,3,0.7,4.1,3.9,4c5.9-0.3,11.9,0,17.9-0.2c3.1-0.1,3.9,0.8,3.9,3.9c0,19.3,0.3,38.6,0.4,57.9
		c0.1,25.4,0.2,50.8,0.2,76.2c0,1.4-0.1,2.7-0.2,4.5c-7.1,0-13.9,0-20.6,0c-7.3,0.1-6.3-0.6-6.3,6.1c0,4,0,8,0,12.1
		c0,6.3,0,12.6,0,18.8C231.5,394.3,270.3,394.3,309.1,394.3z M251.3,147.7c3.2-0.4,6.4-0.6,9.6-1.3c26.6-5.9,34.3-34.8,19.4-54.4
		c-7.9-10.3-24.8-15-38.5-11.2c-13.6,3.8-22.4,12.1-25.3,26C211.9,128.6,228.1,147.3,251.3,147.7z"/>
	<path d="M309.1,394.3c-38.8,0-77.6,0-117.3,0c0-6.2,0-12.5,0-18.8c0-4,0-8,0-12.1c0.1-6.7-0.9-6.1,6.3-6.1c6.7,0,13.4,0,20.6,0
		c0.1-1.7,0.2-3.1,0.2-4.5c-0.1-25.4-0.1-50.8-0.2-76.2c-0.1-19.3-0.4-38.6-0.4-57.9c0-3.1-0.8-4-3.9-3.9c-6,0.3-11.9-0.1-17.9,0.2
		c-3.2,0.2-4-0.9-3.9-4c0.1-10.5,0.1-21-0.1-31.5c-0.1-3.2,0.8-4.2,4.1-4.2c14.8,0.1,29.6-0.1,44.3-0.2c13.5-0.1,27-0.3,40.4-0.4
		c1.4,0,2.8,0,5.1,0c0,60.8,0,121.1,0,181.8c8,0,15.1,0,22.7,0C309.1,369,309.1,381.2,309.1,394.3z"/>
	<path d="M251.3,147.7c-23.2-0.3-39.3-19-34.8-40.9c2.9-13.8,11.7-22.2,25.3-26c13.6-3.8,30.6,0.9,38.5,11.2
		c14.9,19.5,7.2,48.5-19.4,54.4C257.7,147,254.5,147.2,251.3,147.7z"/>
</g>
</svg>
