<?xml version="1.0" encoding="UTF-8" standalone="no"?>
<!-- Generator: Adobe Illustrator 25.4.1, SVG Export Plug-In . SVG Version: 6.00 Build 0)  -->

<svg
   version="1.1"
   id="Layer_1"
   x="0px"
   y="0px"
   viewBox="0 0 132 132"
   style="enable-background:new 0 0 132 132;"
   xml:space="preserve"
   sodipodi:docname="instagram-dark.svg"
   inkscape:version="1.1.2 (0a00cf5339, 2022-02-04)"
   xmlns:inkscape="http://www.inkscape.org/namespaces/inkscape"
   xmlns:sodipodi="http://sodipodi.sourceforge.net/DTD/sodipodi-0.dtd"
   xmlns="http://www.w3.org/2000/svg"
   xmlns:svg="http://www.w3.org/2000/svg"><defs
   id="defs11"><inkscape:path-effect
     effect="powermask"
     id="path-effect889"
     is_visible="true"
     lpeversion="1"
     uri="#mask-powermask-path-effect889"
     invert="false"
     hide_mask="false"
     background="true"
     background_color="#ffffffff" /><mask
     maskUnits="userSpaceOnUse"
     id="mask-powermask-path-effect889"><path
       id="mask-powermask-path-effect889_box"
       style="fill:#ffffff;fill-opacity:1"
       d="M -0.1,0 H 132 V 132 H -0.1 Z" /><path
       class="st1"
       d="m 66,18 c -13,0 -14.7,0.1 -19.8,0.3 -5.1,0.2 -8.6,1 -11.7,2.2 -3.2,1.2 -5.8,2.9 -8.5,5.5 -2.7,2.7 -4.3,5.3 -5.5,8.5 -1.2,3.1 -2,6.5 -2.2,11.7 C 18.1,51.3 18,53 18,66 c 0,13 0.1,14.7 0.3,19.8 0.2,5.1 1,8.6 2.2,11.7 1.2,3.2 2.9,5.8 5.5,8.5 2.7,2.7 5.3,4.3 8.5,5.5 3.1,1.2 6.5,2 11.7,2.2 5.1,0.2 6.8,0.3 19.8,0.3 13,0 14.7,-0.1 19.8,-0.3 5.1,-0.2 8.6,-1 11.7,-2.2 3.2,-1.2 5.8,-2.9 8.5,-5.5 2.7,-2.7 4.3,-5.3 5.5,-8.5 1.2,-3.1 2,-6.5 2.2,-11.6 0.2,-5.1 0.3,-6.8 0.3,-19.8 0,-13 -0.1,-14.7 -0.3,-19.8 -0.2,-5.1 -1.1,-8.6 -2.2,-11.7 -1.2,-3.2 -2.9,-5.8 -5.5,-8.5 -2.7,-2.7 -5.3,-4.3 -8.5,-5.5 -3.1,-1.2 -6.6,-2 -11.7,-2.2 C 80.7,18.1 79,18 66,18 Z m -4.3,8.6 c 1.3,0 2.7,0 4.3,0 12.8,0 14.3,0 19.4,0.3 4.7,0.2 7.2,1 8.9,1.7 2.2,0.9 3.8,1.9 5.5,3.6 1.7,1.7 2.7,3.3 3.6,5.5 0.7,1.7 1.4,4.2 1.7,8.9 0.2,5.1 0.3,6.6 0.3,19.4 0,12.8 -0.1,14.3 -0.3,19.4 -0.2,4.7 -1,7.2 -1.7,8.9 -0.9,2.2 -1.9,3.8 -3.6,5.5 -1.7,1.7 -3.3,2.7 -5.5,3.6 -1.7,0.7 -4.2,1.4 -8.9,1.7 -5.1,0.2 -6.6,0.3 -19.4,0.3 -12.8,0 -14.3,-0.1 -19.4,-0.3 -4.7,-0.2 -7.2,-1 -8.9,-1.7 -2.2,-0.9 -3.8,-1.9 -5.5,-3.6 -1.7,-1.7 -2.7,-3.3 -3.6,-5.5 -0.7,-1.7 -1.4,-4.2 -1.7,-8.9 -0.2,-5.1 -0.3,-6.6 -0.3,-19.4 0,-12.8 0,-14.3 0.3,-19.4 0.2,-4.7 1,-7.2 1.7,-8.9 0.9,-2.2 1.9,-3.8 3.6,-5.5 1.7,-1.7 3.3,-2.7 5.5,-3.6 1.7,-0.7 4.2,-1.4 8.9,-1.7 4.4,-0.2 6.2,-0.3 15.1,-0.3 z m 29.9,8 c -3.2,0 -5.8,2.6 -5.8,5.8 0,3.2 2.6,5.8 5.8,5.8 3.2,0 5.8,-2.6 5.8,-5.8 0,-3.2 -2.6,-5.8 -5.8,-5.8 z M 66,41.3 c -13.6,0 -24.7,11 -24.7,24.7 0,13.7 11,24.6 24.7,24.6 13.6,0 24.6,-11 24.6,-24.6 0,-13.6 -11,-24.7 -24.6,-24.7 z m 0,8.7 c 8.8,0 16,7.2 16,16 0,8.8 -7.2,16 -16,16 -8.8,0 -16,-7.2 -16,-16 0,-8.8 7.2,-16 16,-16 z"
       id="path887"
       style="" /></mask><filter
     id="mask-powermask-path-effect889_inverse"
     inkscape:label="filtermask-powermask-path-effect889"
     style="color-interpolation-filters:sRGB"
     height="100"
     width="100"
     x="-50"
     y="-50"><feColorMatrix
       id="mask-powermask-path-effect889_primitive1"
       values="1"
       type="saturate"
       result="fbSourceGraphic" /><feColorMatrix
       id="mask-powermask-path-effect889_primitive2"
       values="-1 0 0 0 1 0 -1 0 0 1 0 0 -1 0 1 0 0 0 1 0 "
       in="fbSourceGraphic" /></filter></defs><sodipodi:namedview
   id="namedview9"
   pagecolor="#505050"
   bordercolor="#eeeeee"
   borderopacity="1"
   inkscape:pageshadow="0"
   inkscape:pageopacity="0"
   inkscape:pagecheckerboard="0"
   showgrid="false"
   inkscape:zoom="2.5177287"
   inkscape:cx="43.690172"
   inkscape:cy="57.790182"
   inkscape:window-width="1366"
   inkscape:window-height="704"
   inkscape:window-x="0"
   inkscape:window-y="0"
   inkscape:window-maximized="1"
   inkscape:current-layer="Layer_1" />
<style
   type="text/css"
   id="style2">
	.st0{fill:#FFFFFF;}
	.st1{fill:#DF0000;}
</style>
<path
   class="st0"
   d="M 65.9,1 C 38.8,1 30.9,1 29.3,1.2 23.7,1.7 20.3,2.5 16.5,4.4 13.6,5.8 11.3,7.5 9,9.9 4.9,14.1 2.4,19.4 1.5,25.7 c -0.4,3 -0.6,3.6 -0.6,19.1 0,5.2 0,12 0,21.2 0,27.1 0,35 0.2,36.6 0.5,5.4 1.3,8.8 3.1,12.6 3.4,7.1 10,12.5 17.8,14.5 2.7,0.7 5.6,1.1 9.4,1.2 1.6,0.1 18,0.1 34.4,0.1 16.4,0 32.8,0 34.4,-0.1 4.4,-0.2 7,-0.6 9.8,-1.3 7.8,-2 14.2,-7.3 17.8,-14.5 1.8,-3.6 2.7,-7.2 3.1,-12.3 0.1,-1.1 0.1,-19 0.1,-36.8 0,-17.8 0,-35.7 -0.1,-36.8 -0.4,-5.2 -1.3,-8.7 -3.1,-12.4 -1.5,-3 -3.2,-5.3 -5.6,-7.6 -4.3,-4.1 -9.6,-6.6 -15.8,-7.5 -3,-0.4 -3.6,-0.6 -19.2,-0.6 L 65.9,1 Z"
   id="path4"
   mask="url(#mask-powermask-path-effect889)"
   inkscape:path-effect="#path-effect889"
   inkscape:original-d="M65.9,1c-27.1,0-35,0-36.6,0.2c-5.6,0.5-9,1.3-12.8,3.2C13.6,5.8,11.3,7.5,9,9.9c-4.1,4.2-6.6,9.5-7.5,15.8  c-0.4,3-0.6,3.6-0.6,19.1c0,5.2,0,12,0,21.2c0,27.1,0,35,0.2,36.6c0.5,5.4,1.3,8.8,3.1,12.6c3.4,7.1,10,12.5,17.8,14.5  c2.7,0.7,5.6,1.1,9.4,1.2c1.6,0.1,18,0.1,34.4,0.1s32.8,0,34.4-0.1c4.4-0.2,7-0.6,9.8-1.3c7.8-2,14.2-7.3,17.8-14.5  c1.8-3.6,2.7-7.2,3.1-12.3c0.1-1.1,0.1-19,0.1-36.8s0-35.7-0.1-36.8c-0.4-5.2-1.3-8.7-3.1-12.4c-1.5-3-3.2-5.3-5.6-7.6  c-4.3-4.1-9.6-6.6-15.8-7.5c-3-0.4-3.6-0.6-19.2-0.6L65.9,1L65.9,1z"
   style="fill:#000000" />

</svg>
