<?xml version="1.0" encoding="utf-8"?>
<!-- Generator: Adobe Illustrator 25.4.1, SVG Export Plug-In . SVG Version: 6.00 Build 0)  -->
<svg version="1.1" id="Capa_1" xmlns="http://www.w3.org/2000/svg" xmlns:xlink="http://www.w3.org/1999/xlink" x="0px" y="0px"
	 viewBox="0 0 1000 1000" style="enable-background:new 0 0 1000 1000;" xml:space="preserve">
<style type="text/css">
	.st0{fill:#FFFFFF;stroke:#000000;stroke-width:0.25;stroke-miterlimit:10;}
</style>
<g>
	<path class="st0" d="M419.1,878.1L121.9,580.9c-44.6-44.6-44.6-117.5,0-162.1l296.9-296.9c44.6-44.6,117.5-44.6,162.1,0
		l297.2,297.2c44.6,44.6,44.6,117.5,0,162.1L581.2,878.1C536.6,922.7,463.7,922.7,419.1,878.1z"/>
	<path d="M861,522.1c-1,1.5-1.4,3.2-1.1,5c0.2,1.4,0,2.6-1.1,3.6c-0.2,0.2-0.6,0.6-0.5,0.8c0.8,2.7-1.7,4.6-1.5,7.2
		c0.2,1.9-1.3,3.2-1.8,4.8c-2.2,7.1-5,13.9-9.3,20c-1,1.4-1.7,3-2.6,4.5c-2.1,3.8-5.6,6.6-7.8,10.4c-0.5,0.8-1.3,1.5-2,2.2
		c-0.4,0.4-1.1,0.6-1.3,1c-1.6,3.6-5.2,5.3-7.5,8.3c-1.8,2.4-3.7,4.9-6.6,6.1c-0.8,0.3-1.5,0.9-1.9,1.7c-1.1,2.5-3.2,4.1-5,6
		c-0.4,0.5-0.9,1.1-1.5,1.3c-2.3,0.7-3.2,2.6-4.5,4.5c-1.5,2.3-3.6,4.3-6.1,5.7c-1,0.5-1.9,1.1-2.5,2c-2.1,3.5-4.7,6.5-8.4,8.4
		c-0.5,0.3-1.2,0.8-1.3,1.4c-0.8,2.9-3.2,4.9-5.4,6.4c-2.7,1.9-4.6,4.3-6.7,6.8c-1.6,2-3.4,4.3-6.2,5.1c-0.5,0.1-1,0.7-1.1,1.1
		c-0.8,2.7-2.9,4.3-4.8,6c-2.6,2.3-5.3,4.4-7.3,7.4c-1.3,2-3.4,3.9-6,4.9c-0.7,0.3-1.2,0.9-1.5,1.6c-1.6,3.6-4.5,6-7.8,8
		c-0.4,0.2-0.9,0.5-1,0.8c-1.1,3.3-4,5.2-6.5,7.2c-3.5,2.8-5.7,6.7-9.2,9.4c-0.7,0.5-1.3,1.2-2.1,1.6c-0.6,0.3-1.3,0.6-1.5,1.1
		c-1.2,2.9-3.8,4.4-5.8,6.6c-0.7,0.8-1.4,1.7-2.5,2c-0.2,0.1-0.5,0.1-0.6,0.3c-1.8,3.4-5.2,5.3-7.7,8.1c-2.5,2.7-4.4,5.9-7.8,7.7
		c-0.8,0.4-1.3,1.1-1.8,1.8c-2.4,2.9-4.5,6.1-8,7.9c-0.7,0.4-1.1,1-1.6,1.6c-2.4,3.1-4.7,6.3-8.2,8.2c-0.5,0.3-1,0.8-1.4,1.4
		c-2,3-4.3,5.6-7.6,7.3c-0.6,0.3-1.3,1-1.6,1.6c-1.8,3.7-4.8,6.3-8.4,8.3c-0.5,0.3-1.1,0.8-1.3,1.4c-1.1,2.6-3.4,4.2-5.2,6.3
		c-0.5,0.6-1,1.2-1.8,1.4c-1.8,0.6-2.6,2-3.7,3.5c-1.9,2.5-3.7,5.4-6.9,6.7c-0.7,0.3-1.4,0.8-1.7,1.5c-1.1,2.3-3,4-4.7,5.8
		c-1,1.1-1.8,2.2-3.3,2.5c-0.9,0.2-1.7,0.9-1.9,1.7c-0.9,3.2-4,4.5-5.8,7c-0.4,0.6-1,0.8-1.7,1c-1.5,0.4-2.3,1.5-3,2.8
		c-1.7,3.1-4.2,5.4-7.3,7.1c-0.8,0.4-1.7,0.9-1.9,1.7c-0.9,3.2-4,4.5-5.8,6.9c-0.5,0.7-1.2,0.9-2,1.1c-1.2,0.4-2,1.3-2.5,2.4
		c-1.5,3.3-4.4,5.2-7.2,7.3c-0.4,0.3-1.1,0.5-1.3,0.9c-2,3.5-5.8,5.2-8.1,8.3c-1.4,1.8-3.1,3.2-5.3,4.2c-2.4,1.1-4.4,3-6.5,4.7
		c-0.9,0.7-1.6,1.5-2.8,1.6c-0.7,0.1-1.3,0.3-1.7,0.9c-2.2,2.7-5.4,3.6-8.4,4.7c-1.3,0.5-2.6,1-3.8,1.9c-1.4,1.2-3,1.8-5,2
		c-2.4,0.2-4.7,1.5-7,2.4c-3.3,1.2-6.3,2.9-10,2.6c-1.4-0.1-2.2,0.8-2.8,1.9c-10.7,0-21.4,0-32.1,0c-1.1-1-2.2-1.9-3.7-1.8
		c-2.9,0.2-5.5-1.2-8.2-1.8c-3.6-0.9-7.1-2-10.5-3.3c-3.9-1.5-8-2.9-11.6-5.1c-5.5-3.3-11.4-5.9-16.8-9.3c-1.4-0.9-2.5-2.1-3.7-3.1
		c-3.9-3-7.9-5.7-11.4-9.2c-2.1-2.1-4.5-4.1-6.8-6c-3.4-2.8-6.5-6.1-9.7-9.2c-9.5-9.3-19.2-18.4-28.4-28
		c-29.7-30.7-60.4-60.4-90.4-90.9c-5.3-5.4-11-10.6-16.4-15.9c-6.8-6.8-13.5-13.6-20.3-20.4c-11.6-11.7-23.2-23.4-34.8-35
		c-3.7-3.7-7.3-7.5-10.9-11.2c-3.2-3.3-6.7-6.2-9.6-9.7c-4-4.8-9-8.5-12.8-13.5c-1.2-1.6-3-2.8-4.5-4.2c-1.3-1.3-2.8-2.4-3.6-4.2
		c-0.1-0.3-0.3-0.6-0.6-0.8c-4.4-2.6-7-7.1-10.7-10.4c-3.6-3.2-6.5-7.3-9-11.5c-1.5-2.5-3.4-4.8-4.8-7.4c-3.1-5.5-5.8-11.1-7.8-17.2
		c-1.7-5.3-3.7-10.6-5-16.1c-0.2-1-1-1.7-1.8-2.2c0-11.6,0-23.1,0-34.7c1.4-0.8,2-2,1.9-3.5c-0.1-1.9,0.3-3.7,1.2-5.4
		c0.2-0.3,0.3-0.6,0.3-0.9c2.4-12.6,7.9-23.8,15-34.3c4-5.9,8.6-11.1,13.3-16.4c4.8-5.5,10.4-10,15.5-15.1
		c26.5-26.8,53.3-53.3,80-80c49.6-49.6,99.3-99.3,148.9-148.9c3.8-3.8,7.5-7.5,11.3-11.3c1.2-1.2,2.5-2.4,4.1-3.2
		c1.9-0.9,3.2-2.6,5-3.7c4.6-2.7,9.1-5.5,14-7.6c4.2-1.8,8.4-3.6,12.8-4.6c3.2-0.8,6.4-2.2,9.8-2.2c0.8,0,1.5-0.3,1.9-1
		c11.6,0,23.1,0,34.7,0c0.4,0.9,1.2,1.2,2.1,1.2c1.3,0,2.5,0.7,3.8,0.9c3.1,0.4,6,1.8,9.1,2.4c1.8,0.3,3.6,1.1,5.2,1.7
		c6.4,2.6,12.9,5.2,18.9,8.8c4.9,2.9,9.1,6.6,14,9.4c1,0.5,1.6,1.5,2.3,2.3c0.5,0.7,1.1,1.6,1.9,1.7c2.6,0.3,3.8,2.4,5.4,3.9
		c3.8,3.6,7.9,6.9,11.3,10.8c3.3,3.8,7.5,6.6,10.5,10.6c2.9,3.7,7.1,6.1,9.9,9.8c2.8,3.7,6.8,6,9.6,9.6c3.9,5,8.9,8.8,13.3,13.3
		c4,4.1,8,8.3,12.2,12.1c2.4,2.2,4.8,4.4,6.8,7c1.7,2.1,3.8,3.8,5.8,5.7c2.3,2.2,4.2,4.8,6.8,6.6c0.4,0.2,0.7,0.6,0.9,0.9
		c1.7,2.6,4,4.6,6.2,6.6c4.5,3.8,8.4,8.2,12.4,12.4c4.3,4.5,9.1,8.3,13.1,13.2c3,3.6,6.9,6.5,10.3,9.9c6.1,6.1,12.1,12.3,18.2,18.3
		c5.3,5.3,10.8,10.5,16,15.9c3.9,4,8.1,7.6,11.5,12c1.2,1.5,3,2.5,4.4,3.9c3.6,3.6,7.1,7.3,10.7,10.9c4,4,8.3,7.7,11.9,12
		c3.3,4,7.6,6.8,10.9,10.6c3.8,4.5,8.3,8.2,12.3,12.5c2.1,2.3,4.2,4.6,6.7,6.6c2.3,1.8,4.1,4.2,6.2,6.2c3.1,3,6,6.3,9.3,9.1
		c0.2,0.2,0.5,0.4,0.7,0.7c2.5,3.8,6.3,6.2,9,9.8c0.7,0.9,1.5,1.6,2.5,2.1c1.2,0.7,2.2,1.6,2.8,2.7c2.1,4,5.5,7,7.9,10.8
		c2.4,3.8,4.9,7.4,6.9,11.5c1,2.1,1.9,4.2,3.1,6.1c1,1.5,1.6,3.1,1.8,5.1c0.2,2.2,1.5,4.3,2.5,6.3c1.3,2.7,2.7,5.2,2.3,8.3
		c-0.2,1.3,0.3,2.6,1.3,3.6C861,498.5,861,510.3,861,522.1z M857.7,506.7c0-1.5,0-3.1,0-4.6c0.2-8.9-1.4-17.6-3.7-26.1
		c-2.6-9.5-6.6-18.4-12.1-26.7c-1.4-2.2-2.8-4.4-4.6-6.3c-3.4-3.5-6.8-7-10.2-10.6c-7.5-7.9-15.2-15.6-22.8-23.4
		c-20.3-20.9-41-41.3-61.5-62c-29-29.3-58.1-58.5-87.5-87.3c-15.3-14.9-30.2-30.2-45.6-45c-15.4-14.8-30.5-29.9-45.8-44.8
		c-5.2-5.1-11.4-8.9-17.7-12.2c-4.9-2.6-10-5.2-15.4-6.9c-4.3-1.4-8.5-3.1-13-4c-6.4-1.3-12.8-2.4-19.3-3.3c-4.7-0.6-9.3-0.4-14,0.3
		c-4.5,0.7-9,1.8-13.5,2.4c-7.4,1-13.9,4.3-20.5,7.2c-5.3,2.3-10.3,5.5-15.1,8.8c-6.6,4.7-12.6,10-18.2,15.8
		c-5.9,6-11.7,12-17.6,17.9c-5.5,5.5-11,10.9-16.5,16.3c-15.6,15.6-31.1,31.2-46.6,46.8c-15.4,15.4-30.8,30.8-46.3,46.3
		c-15.5,15.5-31,31-46.4,46.5c-22.4,22.6-45.3,44.8-67.3,67.8c-5.5,5.7-10.3,12-14.2,18.9c-3.8,6.6-7.3,13.3-9.9,20.5
		c-1.7,4.7-4.2,9-4.7,14.1c-0.4,4.3-1.7,8.5-2.5,12.8c-1.9,10.1-0.5,19.9,1.3,29.8c0.5,3,1.5,5.9,2.2,8.9c1.4,6,3.8,11.6,6.5,17
		c2,4.1,4.3,8,6.9,11.8c3.3,4.8,6.5,9.5,10.6,13.6c20,20.3,40.1,40.6,60.2,60.9c6.4,6.5,12.9,13,19.3,19.4
		c12.1,12.1,24.2,24.2,36.2,36.4c1.8,1.9,3.7,3.7,5.5,5.5c4.1,4.1,8,8.3,12,12.4c3.9,3.9,8,7.6,11.9,11.6c4.9,5,9.8,9.8,14.8,14.7
		c6.6,6.5,12.9,13.2,19.5,19.7c1.8,1.7,3.6,3.5,5.3,5.3c4,4.1,7.9,8.4,12.1,12.3c4.3,4,8.3,8.2,12.6,12.3c8.9,8.5,17.5,17.3,26.2,26
		c5,4.9,10,9.7,15,14.5c3.9,3.8,7.8,7.6,12.1,11c10.8,8.4,22.4,15.5,35.2,20.5c3.7,1.5,7.5,3,11.4,3.9c6,1.5,12,2.9,18.3,3.3
		c13.1,1,25.9,0.2,38.5-3.6c10-3,19.2-7.6,27.9-13.4c8-5.4,15.2-11.7,22-18.5c79-79.1,158-158.1,237-237.2c2.2-2.2,4.5-4.4,6.6-6.8
		c3.6-4.3,6.8-9,9.8-13.8c2.6-4.2,4.9-8.5,6.9-12.9c3.1-6.8,5.8-13.8,7-21.3c0.4-2.5,1.2-4.9,1.5-7.4
		C857.7,516.8,857.7,511.8,857.7,506.7z"/>
	<path d="M502.1,251.2c3.2-0.3,6.2,0.8,9.3,1.2c3.1,0.4,5.5,1.8,7.5,4.2c2.3,2.7,4.9,5.3,5.5,9.1c0.6,3.8,0,7.3-2,10.7
		c-2.1,3.7-4.4,7.2-7.4,10.2c-5.1,5.1-10.7,9.6-18.1,10.8c-3.8,0.6-7.3,0-10.7-1.9c-5.4-3-9.7-6.9-12.9-12.2
		c-1.3-2.1-1.7-2.2-3.4-0.5c-2.7,2.8-5.7,5.4-8.1,8.6c-1.4,1.8-1.8,3.4-0.4,5.3c0.3,0.3,0.5,0.7,0.6,1.1c0.4,1,0.1,2-0.8,2.6
		c-0.9,0.6-1.9,0.5-2.7-0.3c-1-1.1-2.2-2.1-3.3-3.2c-3.3-3.3-6.3-6.9-10.1-9.8c-1.1-0.8-0.9-1.9-0.1-2.8c0.8-0.9,1.9-1.5,2.9-0.8
		c4.8,3.4,7.2-1,9.9-3.2c3-2.5,5.4-5.6,8.4-8.1c1.9-1.7,3.7-3.7,5.4-5.6c2.2-2.5,5.1-4.4,7-7.2c1.2-1.8,3.1-3.1,4.6-4.5
		c2.4-2.2,4.3-4.9,6.9-6.9c1.8-1.4,2.6-3.4,3.6-5.4c0.5-1,0.1-1.9-0.4-2.8c-0.4-0.7-0.8-1.3-0.9-2.1c-0.2-1.3,0.3-2.4,1.4-3
		c0.9-0.5,1.8-0.2,2.3,0.6c2.3,3.3,5.9,5.1,8.7,7.9c2.2,2.2,2.2,2.9-0.1,5c-1,0.8-2.1,1.5-3.1,2.3
		C502,250.7,502.1,250.9,502.1,251.2z M513.6,266.9c0.1-3.3-0.3-5.6-1.3-6.6c-5.9-6-13-6.5-18.8-1c-3.2,3-6.3,6-9.2,9.3
		c-1.7,1.9-3.9,3.6-4.7,6.2c-1.9,5.8,0.4,11,5.9,13.5c1.8,0.8,3.5,1.7,5.6,1c3.3-1.1,6.6-2.3,9.4-4.5c3.9-3,7.2-6.5,10.1-10.5
		C512.5,271.8,513.7,269.4,513.6,266.9z"/>
	<path d="M499,765.6c-3.8-0.2-7.4-1-10.8-2.5c-7.8-3.3-13-13.7-8.2-22.4c2.4-4.2,4.8-8.3,8.3-11.6c2.9-2.7,5.7-5.7,9.6-7.1
		c2.4-0.8,4.7-1.8,7-2.8c2.1-0.8,4.2-0.9,6.4-0.2c8.6,2.8,15,8.2,19.1,16.4c0.3,0,0.7,0,0.9-0.2c2.6-3,5.8-5.3,8.2-8.4
		c0.6-0.8,1.2-1.5,1.8-2.3c1-1.5,1.2-3,0.1-4.6c-0.3-0.4-0.6-0.9-0.8-1.4c-0.3-0.8-0.1-1.5,0.5-2.1c0.8-0.7,1.7-0.7,2.4-0.1
		c1.5,1.2,3,2.6,4.3,4c2.8,2.9,5.3,6,8.7,8.3c1.1,0.7,1.7,1.7,1.3,3.1c-0.4,1.2-2.1,2.1-3.6,1.4c-4.2-2-6.8,0.3-9.4,3
		c-4.4,4.4-8.8,8.7-13.2,13.1c-3.8,3.8-7.5,7.6-11.2,11.4c-2.7,2.7-5.4,5.4-8.1,8c-1.1,1.1-2,2.3-2.8,3.6c-1,1.5-1.2,3-0.3,4.6
		c0.2,0.3,0.3,0.6,0.4,0.9c0.7,1.4,1,2.7-0.4,3.8c-1.2,0.9-2.9,0.8-3.9-0.9c-1.8-2.8-4.9-3.9-7-6.4c-2.6-3-2.7-3.4-0.2-6.3
		C498.3,767.2,499,766.9,499,765.6z M499.8,760.7c3.8,0.6,6.6-0.9,9.2-3.4c3.4-3.3,6.8-6.7,10.1-10.2c1.1-1.2,2.3-2.3,3.2-3.7
		c4.7-7.4-2.3-16.1-8.3-16c-6.6,0-11.3,3.4-15.7,7.5c-2.4,2.2-4.3,4.8-6.4,7.3c-2.5,3-3,6.2-2.7,9.7c0.1,1.3-0.1,2.9,0.9,3.7
		C492.9,758.1,495.2,761.9,499.8,760.7z"/>
	<path d="M610.1,359.5c2.7-0.3,4.9,0.1,7,0.2c3.2,0.2,5.9,1.5,8.2,3.5c1.2,1.1,2.4,2.2,3.5,3.4c2.2,2.3,3.5,4.9,3.3,8.2
		c-0.1,2.9,0.4,6-1.1,8.7c-2,3.6-4.2,7.1-7,10.2c-3.5,3.9-7.6,7.1-12.2,9.7c-5.8,3.3-13.9,3.2-19.8-1c-3.2-2.3-5.7-5.3-8.5-8
		c-1.1-1-1.5-2.4-2.1-3.6c-0.7-1.3-1.6-1.4-2.6-0.4c-3.1,3.2-6.1,6.5-9.1,9.8c-1,1.2-0.9,2.6-0.3,4c0.3,0.7,0.9,1.3,1.2,2
		c0.4,1.2,0.1,2.2-1.1,2.8c-1,0.5-2.1,0.5-2.6-0.5c-1-1.7-2.7-2.5-3.9-3.9c-2.8-3.2-5.9-6-8.9-9c-0.8-0.8-1-1.7-0.5-2.7
		c0.6-1,1.5-1.1,2.6-0.9c0.2,0,0.5,0.1,0.6,0.2c2.7,2.2,4.6,0.8,6.7-1.1c3.3-3,6.3-6.3,9.5-9.3c2.4-2.2,4.4-4.8,7-6.8
		c2-1.6,3.7-3.7,5.5-5.6c2.3-2.5,4.9-4.6,7.1-7.1c2-2.2,4.1-4.5,6.4-6.5c3.2-2.8,3.8-4.8,2.5-8.9c-0.2-0.6-0.4-1.2-0.3-1.9
		c0.3-1.6,1.8-2.4,3.2-1.5c0.8,0.5,1.5,1.3,2.2,1.9c2.3,2.2,4.5,4.4,7,6.3c2.2,1.6,2,2.7-0.2,4.2C612.5,356.8,611,357.3,610.1,359.5
		z M621.5,374c0-4.7-1.2-6.7-5.4-8.7c-1.4-0.7-2.9-1.1-4.4-1.3c-3.4-0.4-6.7,0.5-9,2.9c-4,4.2-8.3,8-12.1,12.3
		c-3.1,3.5-3.9,7.3-2.3,11.5c1.5,3.8,4.6,5.9,8.5,6.9c1.2,0.3,2.4,0.2,3.6-0.1c3.3-1.1,6.5-2.6,9.1-5c2.9-2.6,5.8-5.2,8.3-8.3
		C620.2,381.1,621.6,377.9,621.5,374z"/>
	<path d="M701,496.3c2.6,0.2,4.7-0.7,6.4-2.3c1.3-1.2,2.7-2.2,3.9-3.5c4-4.6,8.7-8.4,12.7-13.1c1.9-2.2,3.2-4.4,1.5-7.3
		c-0.6-1.1-0.8-2.4,0.6-3.2c1.3-0.7,2.3,0.1,3.2,1c2.5,2.5,4.9,4.9,7.4,7.4c1.7,1.7,1.6,2.3-0.2,4c-6.6,6.6-13.3,13.2-19.9,19.8
		c-2,2-3.7,4.2-5.7,6.2c-2.1,2-3.5,4.9-1.3,8c0.9,1.3,0.4,2.5-0.8,3.4c-1.2,1-2.2,0.5-3.1-0.5c-2.8-2.7-5.7-5.4-8.5-8.1
		c-1.1-1-1.2-2-0.2-3.1c0.9-0.9,1.9-1.8,2.9-2.7c0.4-0.4,0.9-0.7,0.7-1.3c-0.2-0.6-0.9-0.6-1.4-0.6c-3.9,0-7.5-1.1-11.1-2.5
		c-1.7-0.7-3.1-1.5-4.1-3.1c-0.4-0.6-0.9-1.2-1.4-1.8c-3.8-4.1-4.3-9.5-1.1-14c1.9-2.6,3.9-5.2,6.2-7.5c4-4.1,8.5-7.8,12.1-12.3
		c0.5-0.7,1.3-1.1,1.9-1.7c2.5-2.2,4.2-4.7,2.6-8.3c-0.2-0.5-0.3-1.1-0.3-1.6c0-1.9,1.5-2.7,3.1-1.7c0.5,0.3,0.9,0.7,1.3,1
		c2.4,2.4,4.8,4.7,7.2,7.2c1.8,1.8,1.8,2.4,0.1,4.1c-6.2,6.3-12.4,12.5-18.7,18.7c-2,1.9-3.5,4.2-5.3,6.2c-1.8,2.1-1,7.4,0.8,9.4
		C694.9,495.3,697.7,496.5,701,496.3z"/>
	<path d="M749.9,496.4c5.4-0.8,9.8,1.7,14,5.5c3.8,3.5,6.9,7.3,8.6,12c1.9,5.1,1.3,10.3-2,14.9c-1.5,2.1-2.6,4.4-4.4,6.4
		c-2.3,2.6-4.8,5.1-7.6,7.1c-5.4,3.9-11.7,6.2-18.4,4.5c-4-1-7.6-3.2-10.7-6c-1.7-1.5-3.5-3.1-4.6-5.1c-3-5.3-4.9-10.6-2.8-17
		c2.2-6.5,6.3-11.3,11.3-15.6c1.6-1.4,3.5-2.6,5.1-4.1c1.9-1.8,4.4-2.4,6.9-2.6C746.7,496.3,748.1,496.4,749.9,496.4z M754.1,504.5
		c-1.6,0.1-3.5-0.1-5.2,0.8c-3.1,1.7-6.2,3.7-8.8,6.2c-3.2,3-5.9,6.6-8.3,10.4c-1.5,2.4-2.3,4.8-2.2,7.7c0.1,4.5,2.7,7.8,7,9.1
		c4.8,1.3,9-0.2,12.9-2.9c3.5-2.5,6.6-5.5,9.4-9c2.5-3.2,4.3-6.5,5.1-10.4C765.3,509.5,761.1,504.4,754.1,504.5z"/>
	<path d="M261.6,529.4c-4.7,0.5-8.7-1.5-12.8-4.5c-4.1-3.1-7.2-6.8-9-11.3c-2.3-6-1.9-12,1.8-17.7c3.1-4.8,6.6-9.3,11.4-12.4
		c4.7-2.9,9.4-5.9,15.4-5.4c0.8,0.1,1.6,0,2.3,0.3c4.5,2,9.4,3.7,12.7,7.6c0.8,1,1.6,2.1,2.5,3c5.9,5.5,5.4,17.8,1.8,23.2
		c-1.9,2.8-4,5.6-6.5,8.1c-2.5,2.5-5.4,4.3-8.1,6.4C270.7,528.5,267.7,529.8,261.6,529.4z M257.7,522.1c1.5,0.1,3.2-0.2,4.7-1.1
		c5.8-3.3,11-7.5,14.9-13c1.9-2.7,3.8-5.6,4.8-8.9c1.6-5.5-2.4-11.6-8.1-12.2c-4.4-0.5-8.4,0.5-12,3.2c-6.3,4.7-11.2,10.5-14,18
		C245.5,514.7,250.3,522.1,257.7,522.1z"/>
	<path d="M596.8,688.6c0.4,2.5-0.7,5-2,7.6c-2.5,5.1-6.1,9.5-11.1,12c-4.5,2.2-9.2,3.7-14.7,2c-7.5-2.3-12.8-7-17.4-13
		c-0.7-0.9-1.3-1.7-2-2.6c-1.4-1.8-2.5-3.8-2.7-6.2c0-0.4,0-0.9-0.2-1.3c-1.7-3.9-0.7-7.7,0.4-11.5c0.7-2.6,2-4.7,3.7-6.8
		c2.5-3,5.4-5.3,8.6-7.4c5.5-3.8,14.2-3.5,19.7,0.4c3.5,2.4,6.9,4.8,9.9,7.9c3.3,3.5,5.1,7.8,7.1,12
		C597,683.7,596.8,685.9,596.8,688.6z M554.2,678.5c0.1,1.1-0.4,2.8,0.4,4.1c2,3.3,3.9,6.8,6.7,9.6c3.3,3.2,6.8,6,10.8,8.3
		c1.9,1,3.7,1.6,5.8,2c5.8,1,11.4-4.7,10.8-11c-0.5-4.1-2-8-5.1-11.1c-2.3-2.3-4.7-4.6-6.9-6.9c-3.2-3.3-7.4-4.4-11.5-5.8
		c-1.1-0.4-2.4-0.1-3.5,0.2C556.2,669.4,554.1,672.2,554.2,678.5z"/>
	<path d="M423.5,306.1c3.7-0.1,6.9-0.2,9.7,1.5c2.3,1.4,4.5,3.1,6.6,4.8c3.3,2.7,5.9,6.1,8.5,9.4c0.5,0.7,1,1.5,1.2,2.3
		c0.9,2.8,1.7,5.6,2.5,8.5c0.3,1.2,0.3,2.4,0,3.6c-0.7,2.6-1.5,5.2-2.4,7.8c-0.9,2.8-3.2,4.7-5.2,6.6c-2.4,2.5-5.1,5.2-8.7,6
		c-5.6,1.3-11.2,1.7-16.4-1.4c-4.7-2.8-9-6.3-12.2-10.7c-3.7-5.1-6.8-10.7-6.2-17.4c0.1-1,0.1-2,0.5-2.9c2.5-5,4.7-10.4,9.8-13.5
		c0.3-0.2,0.5-0.4,0.8-0.6C415.4,306.8,419.3,305.4,423.5,306.1z M443.6,339.1c0.3-3.5-1-6.4-3-9.3c-4.4-6.6-10.2-11.2-17.1-14.7
		c-5.8-3-13,1.2-14,6.4c-0.8,4.7,0.3,8.8,2.9,12.3c4.5,6.2,10.1,11.3,17.2,14.5c4.5,2,10.7,0.1,13.2-4.1c0.3-0.5,0.4-1.2,0.5-1.9
		C443.5,341.3,443.6,340.2,443.6,339.1z"/>
	<path d="M489.4,700.2c0.4,3.8-0.8,7.1-2.9,10.4c-2.5,3.9-5.2,7.6-8.8,10.4c-5.9,4.6-12.2,8.6-20.3,7.1c-5.6-1.1-10.4-3.8-13.9-8.4
		c-1.6-2-3.5-3.8-4.3-6.5c-1.7-5.5-0.7-10.5,2.5-15.1c1.8-2.5,3-5.3,5.4-7.3c2-1.7,2-1.9,3.9,0.1c4.8,5.1,10.1,9.9,14.8,15.1
		c1.5,1.7,3.5,2.9,4.9,4.8c0.5,0.8,1.3,0.7,1.9,0c4.3-4.1,7.1-8.7,6.2-15c-0.4-2.9-1.4-5.5-4-7.1c-0.5-0.3-1.1-0.7-1.5-1.2
		c-1.6-1.9-3.7-2.5-6.1-2.5c-1.4,0-2.8-0.2-4.2-0.5c-2.1-0.5-2.7-1.7-2.4-3.9c0.3-2,0.9-2.2,3.1-2.4c6.9-0.6,12.9,1.8,17.7,6.3
		C485.9,688.5,490.2,693.2,489.4,700.2z M447.1,710.2c-0.8,6.5,5.3,12.2,11.2,10.6c3-0.8,5.5-2.6,8.1-4.1c1.2-0.7,1.2-1.6-0.2-2.5
		c-2.6-1.9-4.5-4.7-6.8-6.9c-1.8-1.7-3.7-3.3-5.4-5.1c-0.6-0.7-1.3-0.9-1.9-0.2C449.5,704.9,447.5,708.2,447.1,710.2z"/>
	<path d="M392.1,605c0.6,7.1-4.3,11.7-8.7,16.7c-2.4,2.7-5.3,4.4-8.1,6.4c-6,4.4-17.4,4.5-23.6-0.5c-3-2.5-5.6-5.1-7.6-8.3
		c-3.1-4.9-3.3-10-0.6-15.2c2.1-3.8,4.2-7.6,7.3-10.7c0.7-0.7,1.2-0.8,1.9-0.3c1.2,0.9,2.5,1.8,3.5,2.9c3.8,4.3,8.3,8,12,12.4
		c1.6,1.8,3.6,3.1,5.1,5c0.8,1,1.8,0.9,2.8,0c3-2.7,5-6,6.2-9.8c1.2-3.7-0.9-9.4-4.1-11.7c-0.9-0.6-1.8-1.2-2.6-1.9
		c-1.9-1.7-4-2.5-6.6-2.4c-0.8,0-1.5,0-2.3-0.1c-2.1-0.3-3.1-1.4-3-3.5c0.1-1.9,1.1-3.1,3.1-3c3.8,0.2,7.6,0.2,11,2.3
		c1.3,0.8,2.7,1.5,3.9,2.3C388.7,590.1,393,596,392.1,605z M359,624.2c4.4,0.1,7.3-2.5,10.4-4.6c1.1-0.8,0.9-1.9-0.1-2.7
		c-0.9-0.8-2.1-1.2-2.7-2.3c-1.7-2.8-4.9-4.2-6.6-7.1c-0.4-0.6-1.2-0.9-1.8-1.4c-2-1.3-3-1.3-4.4,0.7c-1,1.4-1.7,3-2.5,4.5
		C348.1,617.6,352.2,624.2,359,624.2z"/>
	<path d="M648.7,393.7c3.1-0.4,6.2,1,9.4,2.9c5.5,3.3,8.9,8.2,11.3,13.9c0.9,2.1,1,4.4,0,6.4c-2,4.1-3.3,8.6-6.9,11.7
		c-0.6,0.5-0.9,1.2-1.4,1.8c-1.7,2.4-2.3,2.4-4.5,0.2c-5.9-6-11.8-11.9-17.7-17.8c-0.4-0.4-0.8-0.8-1.2-1.1c-1.2-1-2.3-1-3.4,0.2
		c-2.5,2.8-4.3,6-5.7,9.4c-0.8,1.8-0.6,3.9,0.1,5.8c2.1,5.7,8.6,10.3,14.8,10.5c3,0.1,3.8,1,3.7,3.7c-0.1,2.1-1,3-3.1,2.8
		c-3.5-0.4-7.1-0.8-10.5-2.3c-4.5-2-8.6-4.8-11-8.8c-3-4.9-5.9-10.4-2.9-16.6c1-2.1,1-4.8,2.6-6.6c1.4-1.7,2.6-3.5,4.1-5.1
		c4.1-4.2,8.6-7.9,14.2-10.1C643,393.7,645.4,393.8,648.7,393.7z M651.6,401c-1.4,0.1-2.9-0.1-4.3,0.7c-1.9,1.1-3.7,2.3-5.5,3.4
		c-1.3,0.8-1,1.7-0.1,2.7c1.4,1.5,3.1,2.7,4.4,4.3c2,2.3,4.3,4.2,6.4,6.5c1.5,1.7,2.1,1.5,3.9,0.3c2.7-1.8,3.7-4.5,4.2-7.4
		C661.5,405.1,657.9,401,651.6,401z"/>
	<path d="M520.3,315.9c-0.6,5.1,2.8,7.7,5.8,10.1c2.9,2.3,6.4,3.6,10.3,3.8c2.2,0.1,3,1,3.2,2.6c0.2,1.8-0.6,3.1-2.4,3.2
		c-2.7,0.2-5.5,0.4-8.1-0.7c-2.4-1-4.8-2-7.3-3c-1.3-0.5-2.5-1.3-3.4-2.5c-0.4-0.5-0.8-1.1-1.3-1.5c-4.1-3-5.3-7.5-6.8-11.9
		c-0.5-1.5-0.5-3.1-0.1-4.5c1.2-4.4,2.8-8.7,5.7-12.3c3.1-3.7,6.6-6.9,10.5-9.7c4.4-3.2,9.3-3.6,14.3-3.3c2.6,0.1,5.4-0.1,7.9,1.5
		c3,1.8,5.9,4,8,6.7c3.9,5.1,5.6,10.7,3.2,17.4c-1.5,4.2-4.4,7.2-6.8,10.7c-1.6,2.3-3.2,2.1-5,0c-5.6-6.3-11.8-11.9-17.7-17.9
		c-2.3-2.3-3.7-2.1-5.4,0.6c-0.6,0.9-1.2,1.8-1.9,2.7C521.1,310.3,519.8,313,520.3,315.9z M544.7,293.2c-4.4,0-7,0.7-9.2,2.5
		c-2.7,2.2-2.8,3.8-0.2,6c1.4,1.2,2.7,2.5,4.1,3.7c2,1.8,3.9,3.7,5.7,5.7c0.8,1,1.8,1.2,2.8,0.2c2.5-2.7,4.6-5.6,4.9-9.6
		C553.2,297.1,548.7,292.7,544.7,293.2z"/>
	<path d="M365.1,663.5c2.3,0.1,4.1-0.6,5.8-2.4c1.9-2,4.5-3.4,6-5.9c0.9-1.4,0.9-2.3-0.2-3.4c-1.6-1.5-3.1-3-4.6-4.6
		c-1.8-2-1.8-2.3-0.1-4.4c0.3-0.4,0.7-0.9,1.1-1.2c1.2-1.2,2-1.3,3,0c1.6,2.2,3.9,3.8,5.6,5.9c1.3,1.6,1.9,1.4,3.4-0.1
		c2.8-2.8,5.6-5.6,8.5-8.4c2-1.9,4.1-3.9,5.9-6c2.5-2.8,5.4-5.3,7.8-8.2c2-2.4,2.5-3.4,1.4-6.1c-0.5-1.3-1.8-2.7-0.3-3.8
		c1.6-1.2,2.9,0.2,3.9,1.2c2.6,2.6,5.2,5.3,7.8,7.9c0.8,0.8,1.6,1.5,2.3,2.3c0.6,0.6,1.3,1.2,1.8,1.8c0.6,0.7,0.8,1.6,0.4,2.4
		c-0.5,1-1.6,1.4-2.5,1c-4.5-2.1-7.3,0.5-10.2,3.4c-6.5,6.6-13.1,13.1-19.7,19.6c-1.5,1.5-1.5,1.9-0.1,3.5c0.4,0.5,1,0.9,1.4,1.4
		c0.7,0.9,0.7,1.8,0,2.7c-0.7,0.8-1.6,1.1-2.6,0.5c-0.4-0.2-0.7-0.5-1-0.8c-1.4-1.3-2.7-1.1-4.1,0c-2.5,1.9-5.1,3.7-7.7,5.5
		c-6,4.3-13.2,4.5-19.2,0.4c-3.4-2.3-6.7-4.8-9.2-8.3c-1.3-1.9-1.4-2.6,0.3-4.2c1.2-1.1,2.3-2.3,3.4-3.5c1.8-2.1,2.7-2,4.3,0.2
		c1.3,1.7,2.2,3.2,0.8,5.5c-1.2,1.9,1.2,5.2,3.8,5.7C363.3,663.5,364.2,663.4,365.1,663.5z"/>
	<path d="M328.8,464.6c-2.8,0-4.5-0.6-6.1-1.6c-5-3.2-10.6-5.1-15.8-7.7c-6.5-3.2-13.1-6.3-19.8-9.1c-1.5-0.6-2.9-0.7-4.4,0
		c-1.3,0.6-2.8,1.1-3.7-0.6c-0.8-1.5,0.2-2.3,1.2-3.3c3.9-3.8,7.8-7.7,11.6-11.6c0.9-0.9,1.7-1.9,3-0.9c1.2,0.9,1.4,1.9,0.6,3.4
		c-1.6,2.9-1.2,3.6,1.4,5.7c2.8,2.2,6.2,3.2,9.1,5c4.6,2.8,9.9,4,14.3,7.1c0.4,0.3,0.9,0.6,1.5,0.7c0.8,0.2,1.5-0.3,1.1-1.1
		c-1.3-2.3-1.3-5-2.6-7.4c-1.6-3-2.8-6.1-3.8-9.4c-0.9-3.1-2.6-6-4.2-8.8c-1.6-2.8-3.4-3.1-6.5-1.8c-1.3,0.6-2.6,0.8-3.5-0.6
		c-0.8-1.2-0.2-2.4,0.7-3.2c3.8-3.2,7.2-6.9,10.7-10.5c0.9-0.9,1.9-1.7,3.2-1.1c1.4,0.6,1.2,1.9,0.9,3.1c-1.1,4.8,0.8,9.1,2.4,13.3
		c1.4,3.8,3.3,7.3,4.2,11.3c0.5,2.2,2.1,4.1,2.7,6.3c1.7,5.4,3.9,10.6,6,15.8C334.3,461.1,331.7,464.6,328.8,464.6z"/>
	<path d="M674.7,564.3c1.4,3.6,1.9,6.8,3.5,9.7c1.4,2.5,2.2,5.2,3.1,7.9c1.2,3.6,3,7,4.9,10.3c1.4,2.4,2.8,2.6,5.5,1.5
		c0.5-0.2,1-0.4,1.5-0.5c0.8-0.2,1.5,0.1,2,0.7c0.6,0.8,0.6,1.6,0.1,2.4c-0.3,0.5-0.7,0.8-1.1,1.2c-3.4,3.4-6.8,6.8-10.2,10.2
		c-0.3,0.3-0.6,0.6-1,0.9c-1.5,0.9-2.8,0.4-3.3-1.3c-0.1-0.4-0.2-0.9-0.1-1.3c0.9-3.4,0.2-6.7-0.8-10c-0.2-0.6-0.1-1.4-0.4-1.9
		c-3.3-5.7-4.3-12.3-7.3-18.1c-0.6-1.2-1.1-2.4-1.4-3.6c-1-4.9-3.5-9.1-5.3-13.7c-0.9-2.2-0.4-3.8,1.2-5.3c1.6-1.5,3.3-2.5,5.6-1.4
		c0.3,0.1,0.6,0.2,0.9,0.4c4.7,2.8,9.9,4.5,14.7,7c4.8,2.5,9.9,4.5,14.8,6.8c2.2,1,4.3,2.1,6.4,3.2c2.4,1.3,4.8,2.1,7.5,0.8
		c1.2-0.6,2.4-0.3,3.1,0.9c0.6,1.1-0.1,1.9-0.8,2.6c-4.1,4.1-8.2,8.2-12.3,12.3c-0.8,0.8-1.6,1.7-2.8,0.9c-1.2-0.8-1.4-1.9-0.7-3.2
		c0.5-1,0.8-2,0.8-3.1c0-1.2-0.4-2.1-1.5-2.7c-3.3-1.8-6.3-4.3-10.1-5.3c-1.3-0.4-2.5-1.3-3.7-2c-1.9-1.1-3.7-2.2-5.9-2.7
		C679.5,567.2,677.7,565.1,674.7,564.3z"/>
	<path d="M621.6,605c4,0,7.5,1.3,10.9,3.6c4.2,2.8,7.8,6.2,11.2,9.8c2.7,2.9,3.6,6.4,5.2,9.7c2.1,4.5,1.5,8.7-0.4,13.2
		c-2.5,6.1-6.5,10.7-11.9,14.3c-1.4,0.9-2.6,2-4,2.9c-1.8,1.2-2.6,1.3-4-0.1c-2.1-1.9-4-4-6-6c-1-1-0.9-2,0.3-2.7
		c1-0.6,2-1.3,2.6-2.4c0.8-1.4,2.1-1.4,3.4-0.7c0.3,0.2,0.6,0.3,0.8,0.5c5.4,3.1,11.1,0.2,11.9-6c0.5-4.3-0.6-8.3-3-11.8
		c-3.1-4.5-6.9-8.4-11.5-11.4c-3.9-2.6-8.3-3.8-12.6-1.3c-3.7,2.2-6.9,5-6.7,9.9c0,0.8,0,1.5-0.1,2.3c-0.3,2.6-1.8,3.6-4.3,3
		c-1.5-0.3-2.3-1.1-2.3-2.7c-0.2-4.3,0.6-8.4,2.9-12.2c2.8-4.7,6.4-8.4,11.5-10.7C617.5,605.3,619.5,604.9,621.6,605z"/>
	<path d="M654.2,460.6c0.1-2.8,1-5.4,2.7-7.6c2.8-3.5,5.9-6.7,9-9.9c3.9-3.9,7.9-7.8,11.8-11.7c2.6-2.6,2.5-4-0.5-6.3
		c-1.5-1.1-1.8-2.2-1.1-3.2c0.7-1.1,1.9-1.3,3.4-0.4c3.8,2.1,5.9,2,9.2-0.6c1.4-1.1,2.8-2,4.2-3.1c1.2-0.9,2.4-1,3.6-0.1
		c0.6,0.4,1.3,0.8,1.9,1.3c2.8,2.3,2.8,4.1-0.2,6.1c-2,1.3-3,3.4-4.8,4.9c-1,0.9-0.4,1.8,0.4,2.5c2.6,2.6,5.2,5.3,7.8,7.9
		c0.5,0.5,1,0.9,1.4,1.4c0.8,1,0.8,2-0.4,2.8c-0.7,0.5-1.5,0.9-2.1,1.5c-0.8,0.7-1.6,0.6-2.3-0.2c-1.6-1.8-3.8-2.8-5.1-5
		c-1.1-1.9-3.7-2.6-5-4.5c-0.4-0.6-1.2-0.1-1.7,0.4c-3.6,3.7-7.1,7.6-10.9,11.1c-2.4,2.2-4.3,4.8-6.8,7c-1.7,1.5-2.8,3.4-3.4,5.5
		c-1.1,3.3,0.2,6.4,3.3,7.9c1.4,0.7,2.8,1.3,4.3,1.6c1.5,0.3,2.2,1.3,2,2.9c-0.2,1.4-1.2,2-2.9,1.8c-1.6-0.1-3.3-0.2-4.9-0.4
		c-3.1-0.5-5.8-1.5-7.9-4.1c-1.5-1.9-3.8-3.3-4.4-5.9C654.5,463,654.2,461.9,654.2,460.6z"/>
	<path d="M303.1,512.2c6.8,0.3,12.4,4.2,14.8,10.4c1.6,4.1,0.4,7.7-2.1,11c-3.1,4.1-6.9,7.4-10.5,11.1c-3.3,3.4-6.8,6.7-10.1,10
		c-2.7,2.7-2.7,3.8,0,6.5c0.4,0.4,0.8,0.7,1.1,1.2c0.6,0.8,0.6,1.6,0,2.4c-0.6,0.7-1.4,1.2-2.3,0.8c-0.6-0.2-1.2-0.5-1.7-0.9
		c-2.4-1.9-4.7-1.3-6.9,0.2c-1.9,1.3-3.8,2.6-5.7,3.8c-2.1,1.4-2.2,1.3-4.3-0.2c-0.4-0.3-0.9-0.7-1.3-1c-2.5-2.2-2.5-3.9,0.1-5.8
		c1.7-1.3,2.9-2.9,4.3-4.4c1.2-1.3,1.2-2.4-0.1-3.6c-2.4-2.3-4.8-4.7-7.2-7.1c-0.5-0.5-1.1-1-1.6-1.6c-0.4-0.5-0.6-1.1-0.5-1.8
		c0.5-2.1,4.4-3.4,6-1.9c2.8,2.7,5.6,5.4,8.4,8.2c1.4,1.4,1.8,1.4,3.2,0c4.6-4.6,9.1-9.3,13.8-13.8c2-1.8,3.6-4,5.3-6.1
		c1.2-1.5,1.6-3.3,1.6-5.2c0-2.9-0.9-5.1-3.9-6.1c-1.2-0.4-2.5-0.9-3.7-1.3c-1.2-0.5-2.2-1.2-2-2.6c0.2-1.6,1.5-2,2.9-2
		C301.6,512.2,302.4,512.2,303.1,512.2z"/>
	<path d="M376.8,410.8c-5.3,0.3-9.3-1.2-13.3-4c-4.4-3.2-8.6-6.6-11.2-11.2c-3.2-5.7-6-11.7-3.5-18.6c1.8-5,4.3-9.5,8.5-12.9
		c2.6-2.1,5.4-4,8.1-6.1c1.3-1,2.4-0.9,3.5,0.2c2,1.9,3.9,3.8,5.8,5.8c1,1.1,1,2.1-0.3,3c-0.1,0.1-0.2,0.1-0.3,0.2
		c-2.1,3.1-4.4,3.7-7.9,1.7c-3.4-1.9-8.4,0.9-9.6,4.9c-1.5,5.4,0.1,10.1,3.2,14.5c2.6,3.6,6.1,6.5,9.4,9.5c2.6,2.3,6,3.2,9.3,3.7
		c2.1,0.4,4.2-0.8,5.8-1.9c2.9-2.1,5.5-4.6,5.7-8.6c0.1-1.3,0.3-2.6,0.5-3.9c0.3-2.2,0.9-2.8,2.8-2.9c2-0.1,3.2,0.7,3.6,2.6
		c0.4,2,0.3,4.1-0.1,6.2c-0.9,4.3-3,8.1-5.8,11.2C387.2,408.1,382.7,412,376.8,410.8z"/>
	<path d="M325,592.2c-4.7,0.3-8.4-1.3-12-3.7c-5.2-3.4-8.9-8.1-12.2-13.3c-1.5-2.3-1.4-2.7,0.5-4.8c1.4-1.5,2.5-3.3,4.4-4.3
		c2.1-1.1,3.1-0.9,5.5,1.2c1.7,1.5,1.9,2.6,0.9,4.6c-0.2,0.5-0.6,0.9-0.8,1.4c-1,2.8-1,5.5,1.3,7.9c3.9,4.1,6.9,4.8,11.9,2.5
		c5.2-2.4,9.5-6,13.3-10.3c2.3-2.6,4.1-5.3,5.4-8.4c1.1-2.5,0.8-4.8-0.3-7.2c-2.5-5.3-7.2-7.3-12.4-8.5c-0.5-0.1-1.1-0.2-1.6-0.2
		c-1.5-0.2-2.4-0.9-2.4-2.5c0-1.7,0.8-3,2.5-3.3c1.5-0.3,3.1-0.2,4.5,0.2c4,1.1,8.2,2.3,11.4,4.8c4,3.1,7.7,6.7,8.2,12.4
		c0.5,6.2-0.1,11.7-4.2,16.9c-2.3,2.9-4.7,5.9-7.5,8.1C336.6,589.2,331.4,592.9,325,592.2z"/>
	<path d="M417.1,682.3c-0.5-0.7-1.1-0.6-1.6-0.5c-3.7,0.6-7.1-0.9-10.5-1.8c-1.6-0.4-3-1.3-4.1-2.6c-1.2-1.4-2.6-2.7-4-3.8
		c-1.1-0.9-1.5-2.3-0.3-3.1c2.3-1.7,3.9-4.1,6.1-5.9c2-1.6,2.5-1.5,4.5,0c2.1,1.5,3.6,3.1,2.1,6c-0.7,1.4-0.1,2.8,0.8,3.9
		c2,2.8,5.9,3.8,9.4,2.7c3.5-1.2,6.1-3.7,8.6-6.3c2.7-2.7,5.3-5.4,8.1-8c1.9-1.8,3.5-3.9,5.2-5.8c1.3-1.5,1.8-3.2,0.4-5.1
		c-0.3-0.3-0.4-0.8-0.6-1.2c-0.4-0.9-0.5-1.7,0.3-2.4c0.9-0.8,1.8-0.5,2.7,0.1c3,2.3,5.5,5,8.1,7.6c1.6,1.6,3,3.5,4.8,4.8
		c0.8,0.6,1.5,1.4,1,2.5c-0.5,1.1-1.5,1.5-2.7,1.5c-0.3,0-0.7-0.1-0.9-0.2c-3.6-1.8-6.3,0-8.7,2.5c-2.9,2.9-5.8,5.8-8.7,8.8
		c-2.3,2.3-4.9,4.3-6.8,7c-0.7,1-1.7,1.6-2.6,2.4c-2.9,2.5-3.6,5-2.3,8.7c0.7,1.8,0.4,3.1-0.8,3.7c-1.5,0.8-2.6,0.1-3.4-1
		c-2-2.9-5.2-4.6-7.5-7.2c-1.9-2.2-2-2.7,0.2-4.8c0.5-0.4,1-0.8,1.5-1.2C416,683.3,416.7,683.1,417.1,682.3z"/>
	<path d="M579.7,328.9c3.4-0.2,6.5,0.6,9.6,1.2c3,0.6,5.5,2,7.6,4.1c1.1,1.1,2.2,2.1,3.2,3.3c1.4,1.5,1.4,2.3-0.2,3.4
		c-1.3,0.9-2.3,2-3.3,3.2c-0.5,0.7-1.2,1.2-1.9,1.8c-2.3,1.8-2.9,1.8-4.9,0.5c-2.4-1.5-2.8-2.6-2.3-5.1c0.9-4.3-0.9-6.9-5.3-7.5
		c-5.6-0.8-9.5,2.1-13.1,5.8c-2.6,2.6-5.2,5.2-7.8,7.8c-2,2.1-4,4.3-5.9,6.5c-1.2,1.5-1.3,3.2-0.4,4.9c0.2,0.4,0.5,0.7,0.7,1.1
		c0.4,0.9,0.3,1.7-0.5,2.4c-0.8,0.7-1.8,0.8-2.7,0.1c-0.8-0.7-1.7-1.4-2.4-2.2c-3.3-3.6-6.6-7.2-10.4-10.2c-0.8-0.7-1.2-1.6-0.8-2.6
		c0.4-1,1.3-1.4,2.4-1.4c0.3,0,0.7,0,1,0.2c3.8,1.6,6.5-0.2,9-2.7c6.2-6.1,12.3-12.3,18.5-18.5c2.4-2.4,3.8-5,1.9-8.5
		c-0.3-0.5-0.4-1.3-0.3-1.9c0.1-1.4,1.3-2.1,2.6-1.5c0.5,0.2,0.9,0.6,1.3,0.9c2.7,2.4,5.4,4.8,8,7.3c2,1.9,1.9,2.6,0.1,4.6
		C582.2,326.9,580.7,327.4,579.7,328.9z"/>
	<path d="M378.4,352.1c-1.2-0.1-2,0.7-3,1.3c-1.5,0.8-2.8,0.6-3.5-0.5c-0.8-1.2-0.3-2.2,0.6-3.2c2.5-2.7,5.2-5.2,7.5-8.1
		c1.3-1.7,2.4-1.7,4.1-0.2c1.8,1.6,3.3,3.5,5,5.1c4.2,4,8,8.2,12.1,12.3c3.4,3.4,6.8,6.7,10.3,10c1.3,1.2,3,1.7,4.9,1.2
		c0.6-0.2,1.3-0.4,1.9-0.5c0.9-0.2,1.8-0.2,2.4,0.6c0.7,0.9,0.5,1.8,0,2.8c-0.2,0.4-0.4,0.8-0.8,1c-3,1.9-4.7,5.1-7.5,7.1
		c-1.4,1-2,2.6-3.2,3.7c-0.9,0.9-1.8,2.1-3.3,1.3c-1.3-0.7-1.8-2-1-4c1.2-2.9,0-5.1-1.9-7.1c-5.7-5.8-11.4-11.6-17.2-17.4
		c-1.7-1.7-3.6-3.2-5.4-4.7C379.9,352.3,379.2,352.1,378.4,352.1z"/>
	<path d="M619.6,663.9c0.8-0.2,2.1-0.5,3.4-0.9c1.1-0.3,2.2-0.3,2.9,0.9c0.5,1,0.1,1.9-0.6,2.7c-2.3,2.6-4.7,5.2-7.1,7.7
		c-1.8,1.9-3.1,1.9-5.1,0.2c-0.7-0.5-1.3-1.2-1.7-1.9c-0.8-1.2-1.7-2.3-3-3c-1-0.5-1.7-1.3-2.2-2.3c-0.5-0.9-1.1-1.6-2-2.1
		c-1.2-0.6-2.1-1.5-2.7-2.7c-0.5-1-1.4-1.7-2.3-2.3c-1.1-0.7-2.1-1.5-2.7-2.7c-0.5-1-1.3-1.7-2.3-2.3c-0.5-0.3-1.1-0.6-1.3-1
		c-1.4-2.9-4.6-4-6.4-6.5c-0.8-1.1-1.9-1.4-3.2-1.4c-1.5,0.1-3,0.3-4.6,0.3c-2,0-2.7-1.4-1.6-3c0.2-0.4,0.5-0.7,0.9-1
		c2.9-2.2,5-5.2,7.8-7.4c1.1-0.9,1.9-2.1,2.7-3.3c1.1-1.5,2.4-1.9,3.6-1.3c1.3,0.7,1.7,1.8,0.9,3.7c-1.2,2.8-0.4,4.8,1.6,6.8
		c7,6.9,13.9,13.9,20.8,20.8C616.3,663,617.5,663.9,619.6,663.9z"/>
	<path d="M325.1,405.7c-1.2,0-2.2,0.2-3.1,0.9c-1.4,1.1-2.4,0.4-3.3-0.7c-1-1.3-0.2-2.1,0.8-3c2.4-2.4,4.8-4.7,6.9-7.4
		c1.7-2.2,3.4-2.5,5.1-0.3c2.1,2.7,4.7,4.8,7,7.2c2.4,2.4,4.7,4.8,7.1,7.1c2.4,2.3,5,4.5,7.1,7.1c1.8,2.2,4.1,3.8,6.1,5.9
		c1.3,1.3,3.3,0.8,5,0.7c1.3-0.1,3-1,3.8,0.8c0.8,1.6-0.2,3.1-1.4,4c-2.8,2-4.5,5-7.3,7c-1.2,0.9-2,2.3-3,3.4
		c-0.8,0.9-1.8,1.7-3.1,0.8c-1.1-0.7-1.6-1.9-1-3.1c1.6-3.6,0-6.2-2.5-8.7c-6.6-6.5-13.1-13-19.7-19.6
		C328.1,406.5,326.8,405.6,325.1,405.7z"/>
	<path d="M635.8,592.7c-1.2,0-2.3,0.3-3.3,0.7c-0.8,0.3-1.5,0.4-2.1-0.3c-0.6-0.8-0.6-1.6-0.2-2.5c0.6-1.1,1.4-2,2.3-2.7
		c3.4-2.9,6.5-6,9.3-9.5c0.9-1.1,2-1.8,3.4-1c1.3,0.7,1.8,2,1,3.6c-1.4,2.6-0.5,4.7,1.2,6.5c2,2.3,4,4.6,6.3,6.6
		c4.6,4,8.5,8.7,13,12.8c0.8,0.7,1.6,1.5,2.4,2.2c1.7,1.5,3.6,2.1,5.7,1.1c0.5-0.2,1-0.4,1.5-0.5c1.1-0.3,2.2-0.4,2.9,0.7
		c0.7,1.1,0.2,2.1-0.6,2.9c-2.4,2.5-4.7,5.1-7.1,7.6c-2.3,2.3-3.2,2.4-5.3-0.1c-3.9-4.5-8.6-8.2-12.5-12.8c-1.6-1.9-3.6-3.5-5.3-5.3
		c-2.8-2.9-5.8-5.6-8.6-8.4C638.6,593.2,637.3,592.6,635.8,592.7z"/>
	<path d="M376.1,333.6c0,1.1-0.6,1.8-1.5,2.4c-1.5,1-2.6,2.2-3.7,3.6c-1.3,1.6-2.6,1.7-3.8,0.2c-1.4-1.7-2.9-3.2-4.5-4.6
		c-1.7-1.4-1.6-3.1,0.3-4.3c1.5-0.9,2.4-2,3.4-3.4c1.4-2.1,2.8-2.2,4.4-0.2c1.3,1.6,2.6,3.2,4.4,4.3
		C375.7,332.1,376.1,332.7,376.1,333.6z"/>
	<path d="M316,394.2c-1-0.1-1.6-0.6-2.1-1.2c-1.2-1.7-2.7-3.1-4.3-4.5c-2-1.8-2-2.8,0.2-4.3c1.2-0.8,1.9-2,2.8-3.2
		c1.8-2.4,3.1-2.5,4.9-0.3c1.3,1.6,2.7,3.1,4.3,4.3c1.4,1.1,1.5,2.4,0.1,3.6c-1.8,1.6-3.7,3-5,5.1C316.7,394,316.2,394.1,316,394.2z
		"/>
	<path d="M628.5,676c0.8,0,1.4,0.2,1.7,0.6c1.4,1.9,3.4,3.1,4.9,4.8c1.6,1.7,1.5,2.5-0.3,4c-1.2,1-2.1,2.2-3.1,3.3
		c-1.5,1.9-2.9,2-4.7,0.2c-1.6-1.6-2.8-3.6-4.7-4.9c-0.8-0.5-0.8-1.6-0.1-2.3c1.7-1.8,3.6-3.5,5.4-5.2
		C627.9,676.2,628.3,676.1,628.5,676z"/>
	<path d="M689.4,629.7c0,0.9-0.3,1.5-0.8,1.9c-1.4,1.1-2.4,2.5-3.5,3.8c-1.5,1.7-3.2,1.8-4.8,0.1c-1.5-1.5-2.8-3.3-4.5-4.7
		c-1.1-0.9-0.7-2.2,0.4-3.1c1.6-1.4,3.1-2.7,4.3-4.4c0.7-0.9,1.8-1,2.6-0.3c2,1.8,3.9,3.7,5.8,5.7
		C689.2,629,689.3,629.4,689.4,629.7z"/>
</g>
</svg>
