<?xml version="1.0" encoding="utf-8"?>
<!-- Generator: Adobe Illustrator 25.4.1, SVG Export Plug-In . SVG Version: 6.00 Build 0)  -->
<svg version="1.1"
	 id="svg2" xmlns:cc="http://creativecommons.org/ns#" xmlns:dc="http://purl.org/dc/elements/1.1/" xmlns:mapsvg="http://mapsvg.com" xmlns:rdf="http://www.w3.org/1999/02/22-rdf-syntax-ns#" xmlns:svg="http://www.w3.org/2000/svg"
	 xmlns="http://www.w3.org/2000/svg" xmlns:xlink="http://www.w3.org/1999/xlink" x="0px" y="0px" viewBox="0 0 542.8 792"
	 style="enable-background:new 0 0 542.8 792;" xml:space="preserve">
<style type="text/css">
	.st0{fill:#D91023;}
</style>
<path id="PE-AMA" class="st0" d="M154.1,294l-1.3,0.3l-2.9,1l-2.6,0.6v-1.8l-0.7-4.5l-1.1-1.6l-1.3-1.3l0-0.4l-5.2-10.6l-1.7-2.7
	l-4.1-2.5l-1.5-0.4l-1.4-0.8l-0.7-1.1l-0.4-1l-0.6-1.5l-0.9-2.3l-2.3-3.9l-4.1-3.1l-0.7-0.4l0.2-3L118,251l-2.3-1.9v-3.8l1.5-3.4
	l1.1-3l0.4-3l1.5-3.8l1.9-2.6v-3.8l-1.9-1.1l-1.6-0.5l-0.1-0.6l-2-0.1l-3-3v-3.8v-3.8l1.5-3l1.5-2.6l1.2-4.6l-0.4-0.6l-0.4-0.8
	l-0.2-1.2l-1.4-4.9l-1-2.3l1.1-0.4l0.7-0.8l0.7-3.5l-0.1-2.4l-0.7-2.2l-0.1-1.1l0-1.4l0.5-0.3l0.8-0.9l3.3-7.8l0.2-1l0.1-1.1l0-1.6
	l0.1-1.3l0.5-2l0.4-0.8l2.8-3.4l1.9-2l0.3-0.4l0.6-1.3l0.5-1.5l0.7-3.3l0.2-2.6l-0.2-1.4l0.1-0.9l0.7-2.6l0.3-0.9l0.7-0.8l1.2-0.4
	l0.9,0.1l0.8,0.6l0.4,1.1l-0.1,2.8l0.4,0.1l2.8-2l0.5-0.9l-0.5-1.6l-1-0.9l-0.5-1.4l0.7-1.1l1-0.9l1.5-0.9l1.1-0.8l2.1-2.6l1.4-2.5
	l4.7-4.9l2.8-2.3l2.1-0.8l1.6,6.8l0.2,4.3l0.1,1.3l0.4,1.3l1.7,2.7l1.4,2.9l0.3,1.1l1.8,8.2l-0.2,1.8l-0.1,1.7l0.1,1.1l0.3,0.9
	l0.6,1.2l1.6,2.1l0.5,0.7l0.4,0.8l0.2,1l0.4,6.3l-0.4,0.9l-0.6,7.4l-0.1,2.2l0.3,0.9l0.2,1.4l-0.4,2.4l-0.3,1.2l-2.7,5.8l-1,1.6
	l-0.8,0.6l-0.9,0.9l-0.8,1l-0.8,1.2l-0.7,1.8l-0.6,2.1l-0.2,2.5l0.1,1.3l0.3,2l-2.8,3.1v3l4.1,3.4l0.3,0.1l0.4,2.4l0.4,1.2l2.6,5.5
	l0.4,0.6l-0.5,0.3l-1.1,0.9l-1,1.3l-0.5,0.9l-0.2,1.2l-0.4,9l0.6,1.5l0.6,1.4l4.4,8.5l1.8,2l1.1,0.5l1.2,0.3l1.9,0.4l1.9,0.4
	l1.7,0.4l3.8,1.3l2.1,2.2l1.1,1.7l0.5,1.2l0.8,2l0.7,2.8l-0.9,1.7l-1.5,1.3l-1.6,1l-1,0.8l-0.8,1l-0.7,1.4l-0.4,1.2l-0.4,1.7l-0.5,1
	l-0.4,0.2v1.9l-2.2,2.6l-2.3,1.1l-3-2.2l-4.5-0.4l-2.3,0.4l-2.3,1.9l-0.6,4.3l-0.7,1.5l-0.7,2.1l-0.1,1.6L154.1,294z"/>
<path id="PE-ANC" class="st0" d="M171.6,356.7l1.8,3.3l2.9-0.6l-0.4,2.3v3.5l2.9,1.8l-0.1,5.6l0.4,0.7l2.3,3.9l1.2,1.5l4.8,2.2
	l4.2,2.9l5.6,3.1l3.4,2.2l-0.2,3.6l-1.3,1.6l-2.2,0.4l-3.2,0.2l-0.2,0.3l-1.7,3.7l-2.5,5.6l-2.1,0.4l-0.4,2.2l-0.7,3.6l1.4-0.2
	l2.2,1.1l2.7,1.6l2,3.4l0.7,3.1l0.2,5.1l-1.6,2l-1.8,1.8l0.9,2.9l-0.7,2.7l-0.7,1.6l-1.2,0.9v0.2l-1.8,0.5l-6.5,2.6l-0.8,0.7
	l-0.6,1.4l-0.1,1.5l-0.3,1.3l-0.5,1l-0.8,1l-1.9,2l-7.7,6.7l-3.4,1.2l-3.7,0l-0.7-4.5l0.5-1.9l-0.3-1l-2.9-2l-0.6-2.7l0.4-1.4
	l1.1-1.6l2-1.3l0.2-2.9l-2-0.9l-2.7,0.4l-1.3,1.6l-1.8,1.6l0,0.1l-0.3,0.1l-0.2,2.5l-0.4,3.8l-0.7,1.9l-3.3,2.4l0-0.4l-0.9-2.1
	l-1.2-1.5l-2.8-4.1l-2.6-4.4l-4.6-10.1l-2.7-6.8l-0.7-2.5l0.5-2.1l-0.1-1.2l-4-4.9l-1.7-2.7l-1-4.1l-0.2-4.1l-1.5-2.8l-1.9-1.4
	l-1.2-4l-0.3-2.8l-2.3-2.4l-2.8-2l-1-4.4h0.3l1.4-0.3l1.1-2.6l-0.3-1.5l0.2-1.6l1.1-1.9l1-1l0.8-0.3l6-1.9l5.8-2l1.2-2.3l0-1
	l3.1-8.5l1.5-3.4l2.8-2.5l0.7-0.6l1.4-0.9l0.9-0.3l1.5-1l3.4-5l8.3-1.6l0.9,0.1l0.2,1.3l0.9,2.7l0.4,0.8l0.9,0.9l2.1,2l1.5,0.8
	l0.9,0.4L171.6,356.7z"/>
<path id="PE-APU" class="st0" d="M365.8,628.3l-2.4-0.5l-3.3-0.3l-3.1-1.8l-0.7,0.8l-1-0.7l-2.9,0.4l-4.7,1.8l-3.8,0.2l-4.9,2
	l-1.8,2l-2.3,1.2l-0.2-0.2l-0.4-0.8l-0.6-2.9l-0.9-1.5l0.4-4l-0.7-3.8l-1.8-3.4l1.8-2.9l1.1-1.8l1.3-2.5v-2l-0.6-1l-1.9-2.6
	l-0.7-1.7l-0.5-1.7l-2.6-7.2l-2.4-4.8l0.4-1l1.5-0.2l0.6-0.7l-2.3-3.6l-1.3-0.5l-0.9-0.3l-0.8-1.6l-0.4-1.2l-1-7.1l-0.1-1.1
	l-0.1-1.3l0.8-4l1.1-2.5l0.8-0.3l1.1,0.7l0.9,1.6l10.8,7.9l0.4,0.1l2.7-0.4l3.8-1.1l0.7-2.5l0.7,0.8l2.3,1.7l4.9,0.1l4.9,0.1
	l1.4-0.6l3-0.1l4.2,1.5l1.5,0.8l6.6,4.3l9.3,4.7l5.2,1.8l2.5,1.6l2.4,2.4l0.5,0.7l1.2,2.2l1.5,3l0.3,0.9l0.1,1.1l-0.1,5.6L397,604
	l-1.1,3.7l-0.7,1.3l-0.9,0.6l-0.7,0.5l-3.1,3.3l-0.5,0.8l-0.3,1.3l-0.6,0.9l-2.3,1l-2.5,1.2l-3.4,1.8l-1.2,1.4l-0.4,1.1l0.3,0.9
	l0.7,1.3l0.1,1.7l-0.2,1l-2.5,0.5l-3,0.5l-3.7-0.4l-1.5-0.9l-1.4-0.5l-0.9,0.1L365.8,628.3z"/>
<path id="PE-ARE" class="st0" d="M427.7,737.5l-2.1,1l-2.7,1.9l-4.3,1.3l-3.4-1.4l-0.9-0.3l-2.6-0.5l-2.5-0.5l-1.3-0.6l-2.3-1.7
	l-0.9-1.7l-0.7-0.8l-2.1-1.5l-1.7-0.8l-1.3-0.5l-3.4-2.2l-4.5-3.4l-2.8-2.8l-1.9-2.7l-0.9-0.9l-4-2.3l-1.5-0.7l-3.7-1.1l-1.5-0.4
	l-1.5,0l-0.9,0l-1.4-0.1l-1.2-0.1l-2.7-0.8l-1-0.9l-1.4-1.4l-1.4-1.1l-1-0.6l-1.3-0.4l-3.7-1.5l-9-3.9l-3.4-2.9l-4-2l-2-0.8
	l-6.4-2.2l-1.5-0.4l-8.4-3l-5.5-4.4l-1.5-1.3l-2-2.7l-5.4-2.9l-3.6-1.1l-3.7-0.9l-2.1-1l-1.1-0.6l-1-0.9l-0.4-1.3l-1.3-1.9l-1.5-0.8
	l-5.1-2.1l-2.7-1.2l-4.6-2.5l-2.3-1.3l-4.9-2.3l-3.2-1.2l-1.1-1.1l-1-1l1-2.5l1.3-4l3.4-4.2l4-2.2l1.9-1l3.9-0.6l0.1,0.3l0.3-0.1
	l0.3,1.3l0.8,0.9l1.7,0.5l1.1,0.2l3.5,0.8l3.6,1l1.3,3.9l1.1,3.5l4.9,4.8l1.3,0.8l1.4,0.3l1.3,0l0.9-0.3l1.2-0.8l1-0.8l1-0.2
	l0.7,2.7l0.2,3.2l0.4,1.2l1.4,0l1.5-0.9l0.3-3.7l1.8-3.8l1.1-2.5l4-2l2.5-1.1l-0.2,2.5l1.1,3.1l1.8,1l5.7-0.7l2.4-1.1l1-0.6l1.8-0.9
	l1,0.1l1.7,0.9l2-0.9l1.1-2.2l1.8-2.2l3.8-0.9l2-2.9l2.7-3.6l1.3-3.1l-0.4-2.9l-0.2-3.4l0.9-2.9l1.3-2.2l1.6-0.7l2.5-0.7l0.7-2.8
	l1.3,0.1l2.4,0.5l1.2-1.3l0.9-0.1l1.4,0.5l1.5,0.9l3.7,0.4l3-0.5l2.5-0.5l-0.3,1.9l0.6,1.2l1.6,2l1,1.1l0.7,0.5l2.5,0.6l1.1,0
	l4.6-0.9l4.4,1.7l0.8,0.9l1.1,0l1.1-1.7l0.8-2.4l-0.1-1.7l-0.6-1l-0.4-1l0.6-1.3l1.2-0.1l0.9,0.6l3.5,4.4l2.5,3.4l-0.2,6.5l-0.6,1
	l0.2,1.1l1.3,0.8l0.9,0.3l6,1.6l4.1-1.9l2.5-1.5l0.1-1l4.5,1.2l1.6,1.3l1.3,1.4l0.9,0.6l0.9-0.2l1-1.1l0.7-0.6l1-0.3l0.7,0.3
	l0.3,3.1l-0.4,7.8l2.7,3.1l2.7,0.7l2.9-0.4l-0.1,2.5l0.5,4.5l1.2,1.7l0.9,0.9l1.1,0.8l0.8,0.7l0.6,0.7l0.3,0.9l-0.2,1l-1.1,1.8
	l-0.3,1.7l2.2,3.7l1.7,1.2l0.5,1l-0.2,1.3l-0.4,1.4l-0.3,1.9l0,2.2l0.1,2.2l-0.1,1.8l-0.1,1.2l-0.3,2.3l-0.6,1.1l-1.1,1.3l-0.9,0.9
	l-0.9,0.9l-0.5,1v1.1l0.4,1.1l-1.6,0.6l-2.9-0.9l-3.4-2.5l-1.8-0.9h-2l-0.9,1.6l0.9,1.3l1.6,1.6l1.1,0.7l0.5,1l-2.5,1.2l-4.1,5.6
	l0.4,2.6l-0.4,2.3l-1,0.5l-1.5,0.5L425,722l-0.5,0.7l-0.3,0.9l0,1.1l0.4,1.4l1.4,3.1l0.8,0.8l2,2.8L427.7,737.5z"/>
<path id="PE-AYA" class="st0" d="M327.4,661.3l-1.8-1l-1.1-3.1l0.2-2.5l-2.5,1.1l-4,2l-1.1,2.5l-1.8,3.8l-0.3,3.7l-1.5,0.9l-1.4,0
	l-0.4-1.2l-0.2-3.2l-0.7-2.7l-1,0.2l-1,0.8l-1.2,0.8l-0.9,0.3l-1.3,0l-1.4-0.3l-1.3-0.8l-4.9-4.8l-1.1-3.5l-1.3-3.9l-3.6-1l-3.5-0.8
	l-1.1-0.2l-1.7-0.5l-0.8-0.9l-0.3-1.3l1-2l0.4-1.5l0.1-1.1v-2.1l-0.2-1.3l-0.1-0.3l-2.8-2.5l-2.5-4.9l-2.5-4.7l-1.3-1.8l-1.6-0.6
	l-0.5,0.7l-1,0.8l-2.9,0.3l-0.1-0.2l-1.7-0.1l-1.8-4.9l-0.7-4.7l1.1-2.7l0.4-5.1l0.4-7.7l0.3,0.1l0-0.2h1.8l3.8,1.1l4.7-1.3l0.9-1.8
	l1.6-4.5l0.2-4.7l0.1-3.1l-0.1-0.3l-0.3-1.6l0.1-1.4l0.4-1.7l-1.1-1.5l-2.1-2.7l-0.7-0.5l-1-0.5l-1-0.8l1.4-4.7l4.4-1.3l1.1,0.5
	l0.1,0.3l1.4-0.7l2.7-2.9l2-2.7l2.7-1.3l3.1-2l2-4l3.4-1.1l2.1-1.5l-0.9-1.6l0.3-1.2l-0.9-4.4l-1.1-4.5l-1.3-4.9l-1.2-4.4l-0.6-0.8
	l-0.9-0.1l-0.5-1.6l-1.8-2.2l-0.9-0.8l1.3-3.5l0.2-0.4l2.8,0.2l2.2-1.6l1.2-1.3l0,0l2-0.2l3.4,2.5l3.6,0.7l2.7-0.4l1.8-1.1h2.9
	l1.3,0.2l-0.1,2l-0.4,0l0.9,1.9l5.7,11.2l2.2,2.6l0.7-0.5l2.3,2.2l0.6,0.7l1.4,2.9l0.3,1.2l3.1,2.1l2.7,4.9l2,4.7l1.1,4.5l2.9,3.8
	l2,3.4l-0.2,1.1l0,0l-0.7,2.5l-3.8,1.1l-2.7,0.4l-0.4-0.1l-10.8-7.9l-0.9-1.6l-1.1-0.7l-0.8,0.3l-1.1,2.5l-0.8,4l0.1,1.3l0.1,1.1
	l1,7.1l0.4,1.2l0.8,1.6l0.9,0.3l1.3,0.5l2.3,3.6l-0.6,0.7l-1.5,0.2l-0.4,1l2.4,4.8l2.6,7.2l0.5,1.7l0.7,1.7l1.9,2.6l0.6,1v2
	l-1.3,2.5l-1.1,1.8l-1.8,2.9l1.8,3.4l0.7,3.8l-0.4,4l0.9,1.5l0.6,2.9l0.4,0.8l0.2,0.2l2.3-1.2l1.8-2l4.9-2l3.8-0.2l4.7-1.8l2.9-0.4
	l1,0.7l0.7-0.8l3.1,1.8l2,0.2l-0.7,2.8l-2.5,0.7l-1.6,0.7L356,634l-0.9,2.9l0.2,3.4l0.4,2.9l-1.3,3.1l-2.7,3.6l-2,2.9l-3.8,0.9
	l-1.8,2.2l-1.1,2.2l-2,0.9l-1.7-0.9l-1-0.1l-1.8,0.9l-1,0.6l-2.4,1.1L327.4,661.3z"/>
<path id="PE-CAJ" class="st0" d="M115,210.1l-1.5,3v3.8v3.8l3,3l2,0.1l0.1,0.6l1.6,0.5l1.9,1.1v3.8l-1.9,2.6l-1.5,3.8l-0.4,3l-1.1,3
	l-1.5,3.4v3.8l2.3,1.9l2.6,2.3l-0.2,3l0.7,0.4l4.1,3.1l2.3,3.9l0.9,2.3l0.6,1.5l0.4,1l0.7,1.1l1.4,0.8l1.5,0.4l4.1,2.5l1.7,2.7
	l5.2,10.6l0,0.4l1.3,1.3l1.1,1.6l0.7,4.5v1.8l-0.1,0l0.1,0.6l1.3,2.9l2,3.8l2,4l1.8,4.7l0.7,4l-1.6,2.2l-1.8,2l-2.5,2.5l-1.5,0.5
	l-0.6,1.4l-2.2,0.5l-1.6-1.4l-2.6-0.8l-3,2.6l-3,1.1l-2.8,1.4l-0.3-1.3l-0.2-0.9l-1.7-1.1l-0.2-3v-3l-2.3-1.5h-1.9l-4.9,1.1
	l-2.6-0.8l-0.8-3.4l-3-1.9l-2.3,1.1l-2.6,1.5l-2.3,2.3l-0.8,1.5l-1.9,1.5l-2.6,1.1l-2.4-0.1l0.1-0.3l-0.2-1l-1.7-3.5l-3.9-3.2
	L93,313l-2.8-0.6l-0.5-0.2l-1.3-3.5v-2.6l-0.8-1.2l0-0.1l-0.4-7.3l-0.1-1.1l0.9-0.4l0.4-1.4l-0.2-1.3l0.2-2.3l2.8-1.3l3.6-3.6
	l0.2-1.6l-0.5-1l-2.7-0.7l-3.4-0.5l-5.7-6.8l-0.7-5.7l0.2-0.9l0.7-1.2l1-0.9l1.1-0.7l2-0.9l1.5,0.2h1.2l1-1.5l0.7-1.8l1.4-7
	l-0.4-0.8l-3.9-1.9l-0.3,0.1l-0.6-0.7l-0.8-2.1l0.2-0.1l-0.4-1.3l-0.4-0.8l-0.7-0.7l-0.6-1.1L84,242l0.8-6.8l2.6-3.1l0.9,0.1
	l-0.2-7.1l-1.5-2.1l-1.5-5.2l3.5-5.1l2.5-2.8l0.9-0.8l1.2-0.1l0.9,0.1l3.6,0.5l1.6,1.1l1.1-0.2l1.1-1l3.5-4.4l0.4-3.6l0-1.8l0.5-1
	l1.3-1.7l0.7-0.7l1.5-1.1l1.4-0.9l1-0.4l1.9-0.6l0.6-0.2l1,2.3l1.4,4.9l0.2,1.2l0.4,0.8l0.4,0.6l-1.2,4.6L115,210.1z"/>
<path id="PE-CAL" class="st0" d="M186.8,516.5l-0.6,1.1l-0.9-1l-0.7-0.9l-1-0.5l-1.4-0.7l-2.2-0.3l1.5-3.1l-0.1-2.2l-0.4-2.4l-1.4-4
	l0.5-2.9l-0.5-1.3l4.4,0.3l0.2,7.8l1.6,2.7l2,3.1l0.7,2.2L186.8,516.5z"/>
<path id="PE-CUS" class="st0" d="M360.7,481.2l1.1,0.9l3.4,1.8l5.9,0.7l3,1.3l2.1,0.6l1.7-0.5l3-1.9l2.4-2.2l4.8-1.7l0.5,0.1v3.8
	l-0.9,5.1l-2,3.4l-2.9,3.1l-1.3,1.6l2.9,3.4l0.8,1.3l-0.4,1.7l1.4,1.6l0.9,4.7l3.6,1.8l4,2.9l2.5,3.4l1.3,3.1l3.4,1.6l-1.1,2.3
	l0.3,0.1l0.2,0.2l-1.4,1.3l-3.1,2.5l1.1,1.8l1.8,2.5l1.6,1.6l0.4,4l0.2,2.7l2.5,1.8l1.7-0.2l0.1,0.2l2.7-0.9l3.6-0.2l4.9-1.3l2-0.2
	l2.7,3.1l2.2,3.8l3.6,2.5l4,1.3l2.5,0.4l0.5,1.8l0.5,0.2l0.1,2.2l1.3,4l0.7,3.1l2,0.4l2.7-1.8l1.8-1.6l1.7-2l0.4,0.1l0.6-1.9
	l1.8-0.7l3.4,1.3l5.1,0.4l4.2,1.3l2.9-0.1l0.1-0.1l3.5,0.7l-0.4,6.3l-0.2,4.7l-4.2,4.7l-3.6,4l-3.1,3.8l-1.3,2.5l-3.1,3.6l-3.6,1.6
	l-0.4,3.1l-0.2,2.7l0.9,4l-0.7,4.2l-0.7,4l-1.3,3.4l-2.5,4l-0.7,4l-1.1,2.9l-2.9,2l-1.1,1.8l1,1l0,0.2l1.3,2l1,1.1l1.1,0.3l2,3
	l0.7,4.6l-0.6,1.1l-0.9,1.3l-0.2,0.9l0.3,4.8l0.4,0.8l0.8,1.1l0.3,0.9l0.1,1.4l0,0.9l-0.3,3.7l-2,1.1l0.2,2l0,1.1l-2.9,0.4l-2.7-0.7
	l-2.7-3.1l0.4-7.8l-0.3-3.1l-0.7-0.3l-1,0.3l-0.7,0.6l-1,1.1l-0.9,0.2l-0.9-0.6l-1.3-1.4l-1.6-1.3l-4.5-1.2l-0.1,1l-2.5,1.5
	l-4.1,1.9l-6-1.6l-0.9-0.3l-1.3-0.8l-0.2-1.1l0.6-1l0.2-6.5l-2.5-3.4l-3.5-4.4l-0.9-0.6l-1.2,0.1l-0.6,1.3l0.4,1l0.6,1l0.1,1.7
	l-0.8,2.4l-1.1,1.7l-1.1,0l-0.8-0.9l-4.4-1.7l-4.6,0.9l-1.1,0l-2.5-0.6l-0.7-0.5l-1-1.1l-1.6-2l-0.6-1.2l0.3-1.9l0.2-1l-0.1-1.7
	l-0.7-1.3l-0.3-0.9l0.4-1.1l1.2-1.4l3.4-1.8l2.5-1.2l2.3-1l0.6-0.9l0.3-1.3l0.5-0.8l3.1-3.3l0.7-0.5l0.9-0.6l0.7-1.3l1.1-3.7
	l0.3-1.7l0.1-5.6l-0.1-1.1l-0.3-0.9l-1.5-3l-1.2-2.2l-0.5-0.7l-2.4-2.4l-2.5-1.6l-5.2-1.8l-9.3-4.7l-6.6-4.3l-1.5-0.8l-4.2-1.5
	l-3,0.1l-1.4,0.6l-4.9-0.1l-4.9-0.1l-2.3-1.7l-0.7-0.9l0.2-1.1l-2-3.4l-2.9-3.8l-1.1-4.5l-2-4.7l-2.7-4.9l-3.1-2.1L331,544l-1.4-2.9
	l-0.6-0.7l-2.3-2.2l-0.7,0.5l-2.2-2.6l-5.7-11.2l-0.9-1.9l0.4,0l0.1-1.7l4.5-1.2l2.9-0.2l2,0.4l1.1,0.9l0.1,0l1,2.2l1.3,1.1l3.1-2.2
	l3.1-2.5l3.4-2.7l2-2.7l-1.8-4.2l-1.8-2.7l-0.4-1.6l-1.2-1.7l-2.2-0.5l-1.3-0.9l-0.7-3.6l0.6-2.3l-0.3-0.1l0.9-3.2l0.8-3l0.3-0.3
	l0.8-1l0.5-0.7l0.7-1.1l1.6-3.2l0.5-1.3l0.4-1.3l0.9,0.4l6.7-0.8l1-0.1l3.1-0.5l1.5-0.3l1.4-0.4l1.1-0.4l0.9-0.8l3.3-0.6
	L360.7,481.2z"/>
<path id="PE-HUC" class="st0" d="M178.8,372.6l0.1-5.6l-2.9-1.8v-3.5l0.4-2.3l1.7-0.4l3.4-2.2l2.2,3.5l0.5-0.2l1.3-0.1l0.8,0.5
	l0.4,1h1.7h2.7h1.7l-0.2-0.8l1.7-0.2l3.8-0.8l3,0.8l4.1-1.5l3,1.1l1.9,1.1l1.5-3l1.5-1.9l1.8,0.9l0.1-0.5l1.9,1.6l1.4,0.5l1.6,2.8
	l2.8,6.9l1.1,1.5l2.2,0.3l0.8-0.6l0.7-1.2l-0.8-3.2l-1.1-9.4l3.8-3.8l4-1.4l1.5,2.3l-0.1,0.2l-0.4,1l-0.4,2.7l-0.2,1.8L233,360
	l-0.1,0.5l0.4,2.1l1,2.6l0,0l-0.1,3.5l-0.7,4l1.3,4.9l2.4,5.3l0.7,0.8l0.6,1.4l0.2,1.2l0.8,0.7l0.7,1.3l2.2,4l1.8,3.1l1.8,2.5
	l2.2,0.7l0.8-0.4l2-1.6l4.2-2.2l2.4,0.6l3.4-0.9l2.2-2l1.8-1.8l-0.2-4.5l2.2-2.7l0.5-3.9l0.3-0.5l2.7-0.5l3.1-0.4l1.1,2.2h2l1.1-2
	l0.2-2.9l1.6-4.2l0.9-3.5l0.4-0.3l3.5-1.4l1-0.2l1.4-0.1l2.4,0.2l1.6,0.2l0.8,0.4l1.1,1l0.6,1.5l0.3,1.4l-0.1,1.1l-2,1.3l-2.5,4.9
	l-0.7,3.2l0.8,3.3v4.5l1.8,2.2l0.9,3.4l-1.8,2.2l-0.9,2.5l0.1,0.6l-1,0.9l-2.5,2.9l-2.2,2.5l-0.9,3.1l-1.6,1.8l-1.3,1.3l-2.7,0.2
	l-2.2,1.6l-1.3,0.7l-0.6,1.3l-0.8-0.1l-0.8,1.2l-2.2,1.6l-2-1.6l-1-1.5l-0.4,0.1l-1.1-0.9l-2.7-0.2l-2.2,1.8l-2.7,2l-2.5,2l-0.9,0.1
	l-0.5,0l-3.4,3.1l-2.9,2.5l-2.2,1.6l-2.2,3.1l-2,3.4l-1.5,0.8l-1,0.1l-1.1,1.8l-2.2,0.9l-0.7,3.4l-0.7,2l-0.2,0.1l-0.2,0.6l-3.1-0.2
	l-4-1.1l-2.2-0.7l-4.2-0.4l-2-0.9l-2.2-2.2l-3.1-0.2l-3.4,1.1l-3.4,2.2l-2.9,2l-3.8,0.9l-0.1-0.1l-0.6,0.1l-1.1-0.4l-0.8-0.7
	L195,442l-0.4-2.1l-1-0.7l-1.9,0.4l-1.1-0.7l-0.5-1.3l0-0.7v-0.2l1.2-0.9l0.7-1.6l0.7-2.7l-0.9-2.9l1.8-1.8l1.6-2l-0.2-5.1l-0.7-3.1
	l-2-3.4l-2.7-1.6l-2.2-1.1l-1.4,0.2l0.7-3.6l0.4-2.2l2.1-0.4l2.5-5.6l1.7-3.7l0.2-0.3l3.2-0.2l2.2-0.4l1.3-1.6l0.2-3.6l-3.4-2.2
	l-5.6-3.1l-4.2-2.9l-4.8-2.2l-1.2-1.5l-2.3-3.9L178.8,372.6z"/>
<path id="PE-HUV" class="st0" d="M302.2,552.5L300,554l-3.4,1.1l-2,4l-3.1,2l-2.7,1.3l-2,2.7l-2.7,2.9l-1.4,0.7l-0.1-0.3l-1.1-0.5
	l-4.4,1.3l-1.4,4.7l1,0.8l1,0.5l0.7,0.5l2.1,2.7l1.1,1.5l-0.4,1.7l-0.1,1.4l0.3,1.6l0.1,0.3l-0.1,3.1l-0.2,4.7l-1.6,4.5l-0.9,1.8
	l-4.7,1.3l-3.8-1.1h-1.8l0,0.2l-1.3-0.4h-3.1l-1.7,0.8l-0.3-0.4h-2.6l-3.6-2l-1-1.6l-0.2,0l-4.4-2l-1.3-2.3l-0.2-4.2l1.4-2.6l-1-5.2
	l1.1-1.3l0.9-0.7l0.5-0.7l0.6-1.5l0-1l-0.4-0.1l0.6-1.8l-0.2-2l-1.3-1.3l-2.7,0.2L246,571l-1.6,1.2l-0.4,0l-2,0.1l-1.4,0.1l-1.1,0
	l-0.8-0.4l-0.2-0.6l-1.4,0.1l-1.3-1.8l1.8-2.5l1.8-3.1l0.7-3.8v-2.7l0.4-2l0,0l-0.1-1.3l2.7-1.1l1.1-2.5l1.1-1.6l1.3-2.5l1.6-1.6
	l-0.7-2l0.4-2.9l0.9-2l-0.7-0.5l-0.1-0.2h3.4l4.5-4.7l5.1-4.5l4.7-4.2l3.8-5.8l0.3-0.8l0.1-0.1l0.4-5.1l2.5-1.6l5.7-0.9l6.1,0.2
	l2-0.2l0.8,0.6l0.3,0.1h3.3l6,1.3l2.5,2.2l0.7,2.9l-1.6,0.4l1.2,2l-1.2,1.3l-2.2,1.6l-2.8-0.2l-0.2,0.4l-1.3,3.5l0.9,0.8l1.8,2.2
	l0.5,1.6l0.9,0.1l0.6,0.8l1.2,4.4l1.3,4.9l1.1,4.5l0.9,4.4l-0.3,1.2L302.2,552.5z"/>
<path id="PE-ICA" class="st0" d="M233.3,553.6l2.5,0.9h4.2l0.3,1.1l0.2,0l-0.4,2v2.7l-0.7,3.8l-1.8,3.1l-1.8,2.5l1.3,1.8l1.4-0.1
	l0.2,0.6l0.8,0.4l1.1,0l1.4-0.1l2-0.1l0.4,0l1.6-1.2l2.2-1.8l2.7-0.2l1.3,1.3l0.2,2l-0.6,1.8l0.4,0.1l0,1l-0.6,1.5l-0.5,0.7
	l-0.9,0.7l-1.1,1.3l1,5.2l-1.4,2.6l0.2,4.2l1.3,2.3l4.4,2l0.2,0l1,1.6l3.6,2h2.6l0.3,0.4l1.7-0.8h3.1l1,0.3l-0.4,7.7l-0.4,5.1
	l-1.1,2.7l0.7,4.7l1.8,4.9l1.7,0.1l0.1,0.2l2.9-0.3l1-0.8l0.5-0.7l1.6,0.6l1.3,1.8l2.5,4.7l2.5,4.9l2.8,2.5l0.1,0.3l0.2,1.3v2.1
	l-0.1,1.1l-0.4,1.5l-1,2l-0.3,0.1l-0.1-0.3l-3.9,0.6l-1.9,1l-4,2.2l-3.4,4.2l-1.3,4l-1,2.5l-0.2-0.2l-2.2-3.8l-3.1-4.6l-0.6-0.7
	l-0.7-0.8l-1.5-1.4l-4.3-3l-4.6-6.9l-0.8-0.9l-1.1-0.9l-1-0.6l-1.6-0.8l-4.5-2.6l-5.3-3.2l-4-3.3l-0.1-1.6l-0.2-1.7l-1.8-4.5
	l-3.6-3.6l-0.7-0.5l-1.4-2.8l-0.9-3.6l-2.7-2.5l-1.1-0.7l-3.2-1.4l0.3-9.8l-1.8-1.2l-1.9-0.6l0.7-2.2l1.8-0.7l1.1,0.6l1.2,1.8
	l1.5-3.8l0.4-1.3l1.2-4.1l0.3-2.5l0.6-5.4l-0.7-1.7l-2.1-3.8l-0.3-0.4l-0.3-0.4l0.1-2l1.6-1.4l1.8-4l2.9-1.8l3.1-2.2l2.2-2
	L233.3,553.6z"/>
<path id="PE-JUN" class="st0" d="M272.3,454l0.6,0.3l2.1-0.1l5.1,2.7l3.1,1.6l3.4,1.6l1.8,1.3l2-0.2l1.4,0l1.8,0.2l0.5,2.8l0.4,1.9
	l0.2,0.6l3,1.1h4.5l6-0.4l0.9,0.3l1.5-0.4l3.6-0.5l0.5,2.7l1.1,3.4l4.2,0.9l2-1.1l0.9-2.9l0.2-4v-2.2l-0.1-1.9l0.4-0.5l0.9-1.8
	l1-1.8l5.5,1.7l1.5,1.2l1.6,2l0.2,0.3l0.1,2.9l0.4,3.8l2.4,0.7l0,0.1l1.9,1.5l0.9,6.5l-0.4,4l0.1,0.1l-0.4,1.3l-0.5,1.3l-1.6,3.2
	l-0.7,1.1l-0.5,0.7l-0.8,1l-0.3,0.3l-0.8,3l-0.9,3.2l0.3,0.1l-0.6,2.3l0.7,3.6l1.3,0.9l2.2,0.5l1.2,1.7l0.4,1.6l1.8,2.7l1.8,4.2
	l-2,2.7l-3.4,2.7l-3.1,2.5l-3.1,2.2l-1.3-1.1l-1-2.2l-0.1,0l-1.1-0.9l-2-0.4l-2.9,0.2l-4.5,1.2l0-0.3l-1.3-0.2h-2.9l-1.8,1.1
	l-2.7,0.4l-3.6-0.7l-3.4-2.5l-2,0.2l-1.2-2l1.6-0.4l-0.7-2.9l-2.5-2.2l-6-1.3H288l-0.3-0.1l-0.8-0.6l-2,0.2l-6.1-0.2l-5.7,0.9
	l-2.5,1.6l-0.4,5.1l-0.1,0.1l-0.3,0.8l-3.8,5.8l-4.7,4.2l-5.1,4.5l-4.5,4.7h-3.4l-0.3-1l0.1-0.5l-0.8-1.8l-0.2-5.6l0.8-4.4l-0.2-0.4
	l-2.5-4.6l0.1-1l0.7-1l-0.3-1.3l-0.9-0.7l-0.1-4.4h-6.5l-1.2,0.4l-1.4-0.7l-1.3-0.3l-0.8,0.2l-1.5-0.9l-4.1-1.3l-0.3-0.8l-3.4-4.3
	l-2.6-2.5l-0.3-0.8l-0.2-2.9l-0.1-2.6l-0.4-1.4l-1-0.7l-0.9,0.1l-1.5,0l-1.9-0.8l-1.4-2.4l-4.1-8.4l-0.5-5.3l0-1.2l0.3-2.2l0.1-0.8
	l-0.4-0.9l2.6-0.4l2.5,0.7l0.8,1.4l0.4-0.1l0.7-0.1l1.6,1.2l2.9-0.4l2.2-2.2l3.1,0.4l3.1-1.3l0.9-2.2l-0.4-2l-3.6,0.2l-0.3-2.4h0
	l0.5-1.6l1.3-0.4l1.6-1.3l2.2,0.2l2,1.6l3.1-0.7l3.4-0.7l2.7-1.3l4.7-1.8l2.9-1.6h1.1l1.8,2l1.3,1.5l0.9-0.1l2,0.2l1.1,0l1.2-0.3
	l1-0.4l0.8-1.4l1.8-1.1l3.6-1.8l2.9-0.4l1.3,0.5L272.3,454z"/>
<path id="PE-LAL" class="st0" d="M165.3,322.1l0.2,3.8l0.4,4.5l1.9,0.3l0.1,0.3l1.6,0.1l1.6,1.3l0.7,4.2l0.5,3.2h0.5l4.5-1.9
	l3.4-0.4l2.6,1.9l4.5,0.8l2.2,3.4l1.5,2.2l1.1,4.1l-0.9,0.5l0.3,1.4l0,0.8l-1.2,0.3l-4.1,0.8l-3.4,1.1l-1.9,1.9L178,359l-4.6,1
	l-1.8-3.3l-5.2-7.8l-0.9-0.4l-1.5-0.8l-2.1-2l-0.9-0.9l-0.4-0.8l-0.9-2.7l-0.2-1.3l-0.9-0.1l-8.3,1.6l-3.4,5l-1.5,1l-0.9,0.3
	l-1.4,0.9l-0.7,0.6l-2.8,2.5l-1.5,3.4l-3.1,8.5l0,1l-1.2,2.3l-5.8,2l-6,1.9l-0.8,0.3l-1,1l-1.1,1.9l-0.2,1.6l0.3,1.5l-1.1,2.6
	l-1.4,0.3h-0.3l0.1-0.3l-0.1-1.5l-2.7-4.1l-1.2-4.6l0.2-1.1l-0.1-2.1l-0.4-1.7l-0.4-1l-3.1-3.5l-3.5-3.8l0.4-1.1l-0.1-0.9l-3.2-6.5
	l-7-7.6l-0.8-0.7l-1-0.5l-0.9-0.3l-3.3-2.7l-0.9-0.8l-0.9-0.9l-1.4-2.1l-2.4-4.1l-0.7-2.7l-0.5-1.5l-1.9-3.4l-1.4-1.6l-0.7-0.8
	l-1.6-2.6l-0.2-1.5L77,313l-0.9-2.7l-0.3-0.9l-1.1-2.5l-0.5-0.7l-2.6-2.5l1.1-1.3l6-6.2l1.7-1.5l1-0.5l4.2,1.1l1.4,1.2l0.1,1.1
	l0.4,7.3l0,0.1l0.8,1.2v2.6l1.3,3.5l0.5,0.2L93,313l0.9,0.3l3.9,3.2l1.7,3.5l0.2,1l-0.1,0.3l2.4,0.1l2.6-1.1l1.9-1.5l0.8-1.5
	l2.3-2.3l2.6-1.5l2.3-1.1l3,1.9l0.8,3.4l2.6,0.8l4.9-1.1h1.9l2.3,1.5v3l0.2,3l1.7,1.1l0.2,0.9l0.3,1.3l2.8-1.4l3-1.1l3-2.6l2.6,0.8
	l1.6,1.4l2.2-0.5l0.6-1.4l1.5-0.5l2.5-2.5l1.8-2l1.6-2.2l-0.7-4l-1.8-4.7l-2-4l-2-3.8l-1.3-2.9l-0.1-0.6l2.7-0.6l2.9-1l1.3-0.3
	l0.2,0.6l0.7,0.8l0.6,0.4l1.8,3.1l3.8,4.6l0.7,1.2l-0.2,1.2l-1.1,2.2l0.2,2.2l1.1,3l0.7,1.4l1.4,0.9l0.4,0.2l0.3,3.9L165.3,322.1z"
	/>
<path id="PE-LAM" class="st0" d="M76.4,249.3l1.2,1.4l0.2,0l1.3-0.3l3.1,1.2l0.6,1.4l0.9-0.5l3.3-2.6l0.8,2.1l0.6,0.7l0.3-0.1
	l3.9,1.9l0.4,0.8l-1.4,7l-0.7,1.8l-1,1.5h-1.2l-1.5-0.2l-2,0.9l-1.1,0.7l-1,0.9l-0.7,1.2l-0.2,0.9l0.7,5.7l5.7,6.8l3.4,0.5l2.7,0.7
	l0.5,1l-0.2,1.6l-3.6,3.6l-2.8,1.3l-0.2,2.3l0.2,1.3l-0.4,1.4l-0.9,0.4l-1.4-1.2l-4.2-1.1l-1,0.5l-1.7,1.5l-6,6.2l-1.1,1.3l-0.1-1.2
	l-0.2-1.5l-0.7-1.1l-3.7-4.5l-1-0.7l-1.6-1l-2.4-2.4l-0.6-0.8l-0.7-2.5l-0.7-1.9l-5.8-5.3l-1.1-0.7l-2.1-0.9l-5.3-2.5l-5.8-3.2
	l-3.2-2l-1.3-1.4l-1-0.8l-1.1-0.7l0.4-0.3l1.1-1.5l2.2-3.3l1.5-2.4l0.4-1.7l1-2l2.4-3l1.8-2.1l1-0.9L46,251l1.5-0.6l3.9-1.2l0.8-0.7
	l2.4-1.9l2-1.5l2.6-3.3l0.8-1.5l0.3-3.4l0.7-1.1l-0.1-0.9l0.5-0.9l0.8,0.5l1,0.8l4.8,3.8l2.1,3.8l0.8,2.4l1.7,0.8l1.5,0.5l1.1,0.8
	L76.4,249.3z"/>
<path id="PE-LIM" class="st0" d="M247.7,524.4l-0.8,4.4l0.2,5.6l0.8,1.8l-0.1,0.5l0.4,1.1l0.7,0.5l-0.9,2l-0.4,2.9l0.7,2l-1.6,1.6
	l-1.3,2.5l-1.1,1.6l-1.1,2.5l-2.7,1.1l0.1,1.3l-0.2,0l-0.3-1.1h-4.2l-2.5-0.9l-2.7,1.1l-2.2,2l-3.1,2.2l-2.9,1.8l-1.8,4l-1.6,1.4
	l0,0l-1.7-0.1l-3.5-4.4l-1.1-1.3l-1.1-1.1l-1.4-1.2l-0.6-0.6l-0.6-0.9l-0.5-2l-0.3-1.5l-0.3-2.7l-3.5-5l-1.5-1.7l-4.8-9.3l-1.6-4
	l1.7-1.3l-0.4-4l2.2-2.9l1.8-3.4l0.2-5.6l-2-3.6l-2.9-3.4l-3.1-1.3l1.1-3.4l1.8-0.4l-1.1-2.2l-3.4-3.4l-3.4-3.4l-2.9-2.9l-2.9-0.7
	l-2.2,2.2l-2.2,1.1l-1.6,2.1l-2.8-4.2l-3-2.6l-4.7-2.9l-2.7-1.5l-0.8-0.4l-1.4-0.4l-2-1.4l-0.8-2l0.7-1.4l1.4-0.1l0.2-1.5l-2.9-10.6
	l-1.7-3.6l-2.7-4.4l-1.9-2.2l-2.9-3.7l3.3-2.4l0.7-1.9l0.4-3.8l0.2-2.5l0.3-0.1l0-0.1l1.8-1.6l1.3-1.6l2.7-0.4l2,0.9l-0.2,2.9
	l-2,1.3l-1.1,1.6l-0.4,1.4l0.6,2.7l2.9,2l0.3,1l-0.5,1.9l0.7,4.5l3.7,0l3.4-1.2l7.7-6.7l1.9-2l0.8-1l0.5-1l0.3-1.3l0.1-1.5l0.6-1.4
	l0.8-0.7l6.5-2.6l1.8-0.5l0,0.7l0.5,1.3l1.1,0.7l1.9-0.4l1,0.7l0.4,2.1l0.4,0.7l0.8,0.7l1.1,0.4l0.6-0.1l0.7,0.8l0.7,1.7l0.4,1.5
	l0.1,1.6l0.5,1.1l1.1,1.4l0.4,1l0.3,1.4l0.1,1.3l0.4,1.3l0.6,0.9l1.8,1.9l0.3,1.3l0,1.4l0.1,1.1l0,1.7l-0.3,1.2l0.5,1.2l0.7,0.5
	l1.8,1.2l0.7,1.7l-0.1,0.8l-0.3,2.2l0,1.2l0.5,5.3l4.1,8.4l1.4,2.4l1.9,0.8l1.5,0l0.9-0.1l1,0.7l0.4,1.4l0.1,2.6l0.2,2.9l0.3,0.8
	l2.6,2.5l3.4,4.3l0.3,0.8l4.1,1.3l1.5,0.9l0.8-0.2l1.3,0.3l1.4,0.7l1.2-0.4h6.5l0.1,4.4l0.9,0.7l0.3,1.3l-0.7,1l-0.1,1l2.5,4.6
	L247.7,524.4z"/>
<path id="PE-LMA" class="st0" d="M196.4,530.3l-0.1-0.2l-0.4-2.1l-0.9-1.3l-1.6-1.8l-2.5-2.1l-4.8-5.2l0.6-1.1l1.6-2l-0.7-2.2
	l-2-3.1l-1.6-2.7l-0.2-7.8l-4.4-0.3l-0.7-1.9l-1.6-2.4l1.6-2.1l2.2-1.1l2.2-2.2l2.9,0.7l2.9,2.9l3.4,3.4l3.4,3.4l1.1,2.2l-1.8,0.4
	l-1.1,3.4l3.1,1.3l2.9,3.4l2,3.6l-0.2,5.6l-1.8,3.4l-2.2,2.9l0.4,4L196.4,530.3z"/>
<path id="PE-LOR" class="st0" d="M266.9,0.4l4.9,3.3l2.6,2l1,1.2l3.3,1.4l0.8-0.3l1.2-0.8l0.9-0.2l0.8,0.3l1,1.2l0.7,1.1l0.5,1.2
	l0.2,0.9l0,0.9l0.3,1.2l3.2,1.9l1.1-1l2.2,1.4l7,5.3l0.8,1l0.2,0.4l0.5,2.4l0.8,3.1l1,3.2l1.1,1.2l1.8,1.9l-0.7,1.9l-0.8,1.3
	l1.2,2.4l0.6,1.1l1.1,0.9l5.9,1.6l9,5.8l1.2,2.4l3.8,1l1.7-0.4l2.5,0.2l4.2,3.9l0.3,2.6l0.2,1.3l1,1.1l1.8,2.5l1.3,2.5l-1.3,1.1
	l-0.4,0.8l-0.9,4l0.7,0.8l3.2,2.1l5.1,2.4l2.5-1.2l1.8-1.7l2.7,1.8l1.8,3.2l1.4,9.4l-0.8,2.3l-1,1.3l-1.3,0.6l0.7,3.5l0.5,0.8l1.3,1
	l3,1.7l1.2-0.4l1.7-0.1l1.4,2.3l0.9,2.2l2.9-0.7l5.6-2.1l4-1.4l5.9,1.4l5.3,1.8l1.2,0.4l3.1,0.3l6.7-3.9l3.7-1.6l2.2,0.4l1.8-0.1
	l0.8-2.4l2.7-3.8l3.7-3l1.2-0.5l0.4,0.8l0,1.3l0.4,1.2l4.2,0.5l2.4-0.1l4.6,2L428,98l7.4,0.6l3.7-2.1l5.3-1.4l5-2.2l6.5,4.2h4
	l3.8,3.4l4.3,1.9l2.6,2.3l0.3-0.2l0.9-0.2l1.7,0.4l3.3,2.9l0.4,1.7l7.6-1.5v2.4l-1.6,5.3l-14.7,22.9l-1.5,2.3l-5.1,7.8l-2.6,4.1
	l-1.9,2.9l-2.2,3.5l5,2.1l3.4,1.3l1.2,0l0.9-0.4l2.4-1.4l0.7-0.6l1.9-0.6l0.9,0.1l0.8,0.4l3.8,3.1l2.2,2.8l0.8,1.6l0.4,1.3l0.4,1.1
	l0.4,0.8l0.6,0.9l3.5,2.9l0.8,0.6l1.4,0.9l1.4,1.4l0,1.2l0.3,1.1l-0.4,0.9l-0.8,1.2l-1.6,1.1l-7.7-0.2l-2.5-1.8l-1.9-1.8L473,178
	l0.4-1.3l-0.1-1.1l-0.9-1.5l-4.7-0.3l-1.5,1l-1.5,1.1l-3.6,0.7l-1.8-1.5l-5.8-0.5l-2,1l-0.9,0.7l-1.6,2.7l-0.2,1.2l-3.6,4.3l-1.6,0
	l-2.5,2.3h-4.8l-4.3,2.4l-6.2,1l-6.2,2.4l-6.2-0.5h-6.2l-3.8,3.4l-4.3,3.8l-4.8,3.4l-6.2,2.4l-6.7,4.3l-6.7,7.2l-6.2,2.4l-4.8,7.7
	l-1.4,7.2l-1.4,9.1l-5.8,4.8l-5.3,8.6l4.3,10.5l1.9,6.7l-6.2,6.2L343,283l-10.5,4.8l-4.3,2.4l-1.9,10.1l-2.1,0.6l0,0.4l0.8,0.6
	l2.4,3.7l0.6,3.7l-1.4,1.1l-8.2,1.1l0,3.6l-1.4,3.6l-1.1,0.1l-0.4-0.5l-0.8-0.6l-0.1-0.1l-0.1-1.4l-2.9-2.2l-2.9-2.5l-4.2-0.4
	l-3.1-0.2l-1.6-1.8l-2.2-0.2l-1.6,0.4l-0.9,1.6l-0.1,0.3l-0.1-0.1l-0.1-0.1l-1.7,2.6l-1.6,1.6l-0.8,1.4l0.4,1.9l0.3,1.8l0.7,8.5
	l-0.2,3.8l-0.2,1.1l-0.8,1.1l-1.3,0.9l-0.8,0.4l-1.1,2.5l-2.5,1.3l-5.6,0.4l-4.5-0.4l-0.4-0.5l-0.5,0.2l-1.3-0.8l-4.9-0.4l-2.2,2.7
	l-2,1.8l-1.1,1.2l-1.4-0.2l-2.8-0.5l-2.7,2l-1,1.9v3.8l-0.2,2.7v2.6l-1.5,1.1l-2.3,0.6l-0.1-0.1l-1-1l-1-0.9l-1.4-0.8h-1.9l-5.6,4.9
	l-2.6,2.8l-0.8,1l-0.8,0.6l-1.6,0.7l-1-2.6l-0.4-2.1l0.1-0.5l0.4-1.2l0.2-1.8l0.4-2.7l0.4-1l0.1-0.2l-1.7-2.7l0.8-5.6l1.9-3.4
	l2.4-2.2l-0.5-0.9l-1-2.1h-2.9l-0.7-2.6l-2.6-3.5l-1.2-4.1l-1-6.9l-3.5-3.5l-1.2-3.7v-3.3l0.2-2.7l2.8-0.9l0.1-0.7l0.2-1l4.1-3v-3.8
	l-1.1-9l2.1-2.1l0.8-0.2l1.8-0.1l1.2,0.3l1.3,0.4l1.2,0.5l1.1,0.8l1.1,0.9l0.5,0.6l4.7-0.2l3.8-0.8l1.6-0.6l0.1-0.1l0.4-1.2l0.7-3.3
	l-0.1-1.7l0-1.4l0.2-2.5l0.3-3l0.3-2.1l0.4-2l0.1-1.1l-0.1-1.3l-0.4-0.9l1.9-2.2l0.4-3.8l-2.3-3l-3.8-1.9l-5.3,1.1l-2.8,2.1
	l-3.9-0.8l-1.2-0.2l-3.2,0l-1.9,0.2l-2.4,1.7l-4.1,2.6l-3-1.5l-3-3.8l-4.1-3.8l-3.9-0.4l-0.8,0.7l-1.5,1l-1.5,0.7l-2.4,0.4l-2.1-0.9
	l-2.1-1.5l-0.8-1.3l-1-1.9l-0.3-1.6l-0.9-2.5l-0.7-1.2l-0.7-1.2l-4.3-3l-2.1-0.7l-1.2,0.1l-1.7,0.1l-2.1-0.1l-3.7-0.3l-1.2-0.3
	l-1.2-0.4l-1.1-0.6l-1.8-2l-0.8-0.9l-0.9-1.4l-1.3-1l-2.1-1l-2.7-0.8l-2.5-0.8l-1.3-0.8l-2.4-1.8l-0.4-0.8l-0.4-0.6L157,221
	l-0.4-1.2l-0.4-2.4l-0.3-0.1l-4.1-3.4v-3l2.8-3.1l-0.3-2l-0.1-1.3l0.2-2.5l0.6-2.1l0.7-1.8l0.8-1.2l0.8-1l0.9-0.9l0.8-0.6l1-1.6
	l2.7-5.8l0.3-1.2l0.4-2.4l-0.2-1.4l-0.3-0.9l0.1-2.2l0.6-7.4l0.4-0.9l-0.4-6.3l-0.2-1l-0.4-0.8l-0.5-0.7l-1.6-2.1l-0.6-1.2l-0.3-0.9
	l-0.1-1.1l0.1-1.7l0.2-1.8l-1.8-8.2l-0.3-1.1l-1.4-2.9l-1.7-2.7l-0.4-1.3l-0.1-1.3l-0.2-4.3l-1.6-6.8l0.7-0.2l15.1-5.2l9.2-3.1
	l7.7-2.7l5.9-2l10.4-3.6l11-8.1l14.1-10.6L231,84l8.4-9.9l2.6-3.1l3.9-4.7l1.7-1.7l1-0.7l0.4-1.1l3-11.5l0.9-3.7l0.7-2.9l0.5-2
	l1.3-4.9l1.1,1.2l0.7,0.7l1.2,0.5l4.8-0.4l-2-6.6l-1.3-3.6l0.4-3.2l0.3-0.3l0.4-0.2l0.8-0.7l0.2-2.9l-0.8-1.6l-3.3-2.5l-1,0.1
	l-1.1-0.8l-1-1.2l-0.9-1.5l-0.6-1.6l-0.4-2.2l-0.2-0.9l-0.7-1.7l-3.8-2.2l-2.3-0.3l0.4-2.8l4.1,0.4l1.7,1.1l2.3,0.9l3.2-0.6l1.9-0.7
	l0.8-0.6l1.1,0.1l1.4-1.1l0.4-1.2L264,0L266.9,0.4z"/>
<path id="PE-MDD" class="st0" d="M459.2,466.7l0,1.5l2.1-1.6l2.4-1.5l1.2,0.8l1.2,1.2l0.6,0.9l0.2,0.3l4.5-0.4l5.4-0.8l5.4-0.8
	l3.3-0.3l0.6-0.4l1.3-0.8l0.8-0.4l1-0.3l6.2,0.5l1.8,1.6l2.1-0.1l1-0.2l3.4-0.1l0.8,0l0,0l2.9,4.8l2.9,4.8l7.8,12.9l1.5,2.4l1.5,2.4
	l4.7,7.8l1.3,2.1l1.6,2.7l0.6,0.9l1.3,2.1l1.4,2.3l1.9,3.8l1.9,3.9l3.7,7.5l0.6,1.2l1.6,3.3l0.9,1.8l0.2,0.2l-3,3.6l-1.1,2.6l-2,3.9
	l-2.7,1.1l0.4,3.5l-0.8,3.5l-3.6,2.6l-3.3,2.1l-4.2,1.6l-3.6,1.8l-3.4,0.9l-4.5,1.8l-2.5,1.1l-2.5,2.7l-4.9,1.1l-4.8,0.4l-0.9-0.4
	l-8.6-1.5l-4.9-2.7l-5.6-2.5l-6.3-0.7l-2.7,0.5l0-0.3l-3.5-0.7l-0.1,0.1L461,559l-4.2-1.3l-5.1-0.4l-3.4-1.3l-1.8,0.7l-0.6,1.9
	l-0.4-0.1l-1.7,2l-1.8,1.6l-2.7,1.8l-2-0.4l-0.7-3.1l-1.3-4l-0.1-2.2l-0.5-0.2l-0.5-1.8l-2.5-0.4l-4-1.3l-3.6-2.5l-2.2-3.8l-2.7-3.1
	l-2,0.2l-4.9,1.3l-3.6,0.2l-2.7,0.9l-0.1-0.2l-1.7,0.2l-2.5-1.8l-0.2-2.7l-0.4-4l-1.6-1.6l-1.8-2.5l-1.1-1.8l3.1-2.5l1.4-1.3
	l-0.2-0.2l-0.3-0.1l1.1-2.3l-3.4-1.6l-1.3-3.1l-2.5-3.4l-4-2.9l-3.6-1.8l-0.9-4.7l-1.4-1.6l0.4-1.7l-0.8-1.3l-2.9-3.4l1.3-1.6
	l2.9-3.1l2-3.4l0.9-5.1v-3.8l0.5,0.1l1.3-1.1l1.8-2.6l1-3.7l0.6-2.4l-1.6-1.4l0.4-2l2.2-0.3l0,0l3.1,0.5l2.8-0.4l0.2,0.2l1.6,0.3
	h1.1h1.2l3-0.2l1.3-0.2l0.2-0.1l4.7,0.2l11.6-0.4l1.8-1.8l2.6-2.4l0.8-2.4l0.3-3.8l0.2-0.1l0.1-2l1.4-4.3l1.4-1.8l2.9-2.9l4.7-1.8
	l5.1-5.3l3.3-3.1v-0.1l2.4-1l6.7-10.6l0,4.5l0,5.1l0,6.6l0,11.6l0,7.5l0,5.7L459.2,466.7z"/>
<path id="PE-MOQ" class="st0" d="M452.1,686l0.2,0.2l2.5-0.4l3.4-0.2l2.7,0.2l0.7,0.7l0.3-0.1l6.4,1.7l0.8,1.1l1.9,5.4l0.4,3.9
	l-0.2,1l-0.1,1.2l1.5,4.6l0.4,1.1l4.5,4.8l3,2.8l1.3,0.5l2.5,0.4l1.2,1.3l-3.5,3.4l-0.2,3.3l-0.2,3.6l-1.3,1.5l0.1,0.2l-1.3,0.1
	l-2.2,0.7l-0.6-1.5l-0.7-0.1V726l-0.4-3.1l-2-1.1l-1.7,0.5l-0.3-0.2l-2.2,0.1l-1.4,0.8l-1.4,1.8l-1,3.2l-0.2,1.2l0.7,1.7l0.3,0.9
	l0,1.3l-2.4,3l-2.7,3.1l-0.9,0.6l-1.5,0.6l-1.4,0.4l-0.7,0.5l-0.9,1.3l-1.5,2.8l-2.1,4.1l-1.4,2.9l-0.8,1.2v2.1l-2.2,5.1l-2.5,2.2
	l-3.8,1.6l-2.9,1.8h-1.9l-0.1,0l-0.4-0.5l-0.4-0.8l-1-0.8l-3.9-2.3l-2.3-4l-0.5-3.4l-0.3-2.3l-1-4.2l-0.8-0.4l-2.9-2.6l-0.3-0.4
	l-0.1-0.9l-2.1-1.3l-1.7-0.7l4.3-1.3l2.7-1.9l2.1-1l1.2-4.6l-2-2.8l-0.8-0.8l-1.4-3.1l-0.4-1.4l0-1.1l0.3-0.9l0.5-0.7l2.8-2.3
	l1.5-0.5l1-0.5l0.4-2.3l-0.4-2.6l4.1-5.6l2.5-1.2l-0.5-1l-1.1-0.7l-1.6-1.6l-0.9-1.3l0.9-1.6h2l1.8,0.9l3.4,2.5l2.9,0.9l1.6-0.6
	l-0.4-1.1v-1.1l0.5-1l0.9-0.9l0.9-0.9l1.1-1.3l0.6-1.1l0.3-2.3l0.1-1.2l0.1-1.8l-0.1-2.2l0-2.2l0.3-1.9l1.2-0.2L452.1,686z"/>
<path id="PE-PAS" class="st0" d="M214.8,471.9l-0.8-1.4l-2.5-0.7l-2.6,0.4l-0.3-0.7l-1.8-1.2l-0.7-0.5l-0.5-1.2l0.3-1.2l0-1.7
	l-0.1-1.1l0-1.4l-0.3-1.3l-1.8-1.9l-0.6-0.9l-0.4-1.3l-0.1-1.3l-0.3-1.4l-0.4-1l-1.1-1.4l-0.5-1.1l-0.1-1.6l-0.4-1.5l-0.7-1.7
	l-0.6-0.7l3.8-0.9l2.9-2l3.4-2.2l3.4-1.1l3.1,0.2l2.2,2.2l2,0.9l4.2,0.4l2.2,0.7l4,1.1l3.1,0.2l0.2-0.6l0.2-0.1l0.7-2l0.7-3.4
	l2.2-0.9l1.1-1.8l1-0.1l1.5-0.8l2-3.4l2.2-3.1l2.2-1.6l2.9-2.5l3.4-3.1l0.5,0l0.9-0.1l2.5-2l2.7-2l2.2-1.8l2.7,0.2l1.1,0.9l0.4-0.1
	l1,1.5l2,1.6l2.2-1.6l0.8-1.2l0.8,0.1l0.6-1.3l1.3-0.7l2.2-1.6l2.7-0.2l1.3-1.3l1.6-1.8l0.9-3.1l2.2-2.5l2.5-2.9l1-0.9l0.2,1.8
	l1.8,2.5l2.2,1.6l0.9,2.9l1.3,2.7l-0.3,3.7l0.2,0.6l0.8,2.3l1.7,0.8l0.9,3.4l0.2,3.8l2.7,3.6l2,1.6l2.9,0.4l-0.2,3.4l-1.1,2.5
	l-0.4,2.9l1.1,2.9l2,2l1.1,0.7l0.7,1.8l-0.2,2l-1.3,0.7l0.1,0.2l-0.2,0.9l-1.4,0.5l-1.3,0.4l-2.4,1.3l-3,2.9l-1.3,1.5l-0.5,0.7
	l-2.9,2.5l-1.7,0.8l-1.8-0.2l-1.4,0l-2,0.2l-1.8-1.3l-3.4-1.6l-3.1-1.6l-5.1-2.7l-2.1,0.1l-0.6-0.3l-1.6,0l-1.3-0.5l-2.9,0.4
	l-3.6,1.8l-1.8,1.1l-0.8,1.4l-1,0.4l-1.2,0.3l-1.1,0l-2-0.2l-0.9,0.1l-1.3-1.5l-1.8-2H250l-2.9,1.6l-4.7,1.8l-2.7,1.3l-3.4,0.7
	l-3.1,0.7l-2-1.6l-2.2-0.2l-1.6,1.3l-1.3,0.4l-0.5,1.6h0l0.3,2.4l3.6-0.2l0.4,2l-0.9,2.2l-3.1,1.3l-3.1-0.4l-2.2,2.2l-2.9,0.4
	l-1.6-1.2l-0.7,0.1L214.8,471.9z"/>
<path id="PE-PIU" class="st0" d="M11.2,258.5l-0.7-1.3l-1.2-2.7l0.7-2.7l1.7-2l2.8,0.2l2-0.7l0.8-1.6l0,0l0.5-0.1l0.3-1l1.2-1
	l1.3-3.7l-0.3-4.3l-1.7-3.8l-3.2-5l-3-1.8L9,225.4l-3.7-3l0.3-2.3l1.5-2.5l1.2-0.7l0.6-3l1.1-0.5l1.6,0.2l0.8-0.2l-1.4-1.4l-1.7-3
	L5,205.5L0,200l0.2-3.8l1.3-7l1.2-5.5l1.6-2.2l0.5-1.4l0.8-1.3l6-5.5l1.3-0.8l0.9,2.8l2.8,2.3h5.7l6.2-0.4l3.4-1.3l0.4-1l0.5-0.1
	l2.5-2.2l0.6,1.1l0.9,1.1l2.5,3l1,2.4l0.3,1.8l-1.6,2.4l-0.1,1.2l0.7,1.1l2.3,1.3l0.8,0.3L44,188l1-0.6l3.1-2.3l1.5-1.4l0.8-0.9
	l1.2-0.1l2.4,0.5l2.3,1.5l3.9,1.5l3.5,1.3l2.1,1.9l1.2-0.9l0.1,0.1l1.4,0.1l1.4-0.5l1.4,0.5l4.4,0.1l2.3,0.7l0.9,0.8l0.8,2.6
	l0.2,1.7l2.7,6.2l0.3,1.3l3.4,3.8l3.4,3.3l2.3,0l-0.9,0.8l-2.5,2.8l-3.5,5.1l1.5,5.2l1.5,2.1l0.2,7.1l-0.9-0.1l-2.6,3.1L84,242
	l0.8,3.6l0.6,1.1l0.7,0.7l0.4,0.8l0.4,1.3l-3.5,2.7l-0.9,0.5l-0.6-1.4l-3.1-1.2l-1.3,0.3l-0.2,0l-1.2-1.4l-1-1.9l-1.1-0.8l-1.5-0.5
	l-1.7-0.8l-0.8-2.4l-2.1-3.8l-4.8-3.8l-1-0.8l-0.8-0.5l-0.5,0.9l0.1,0.9l-0.7,1.1l-0.3,3.4l-0.8,1.5l-2.6,3.3l-2,1.5l-2.4,1.9
	l-0.8,0.7l-3.9,1.2L46,251l-0.8,0.5l-1,0.9l-1.8,2.1l-2.4,3l-1,2l-0.4,1.7l-1.5,2.4l-2.2,3.3l-1.1,1.5l-0.4,0.3l-0.3-0.2l-1.9,0.4
	l-3.3,1.5l-3.5-2.3l-3.8-3.2l-2.2-1.7l-0.7-1.6l-4-1.7L11.2,258.5z"/>
<path id="PE-PUN" class="st0" d="M500.1,685.2l1.8,0.9l4.6,0.9l0.6,1.8l-2.1,2.4l-1.2,3.3l2.4,2.4l4-1.8h2.1l2.1,3.3l3.3,0.6l4-1.5
	l1.8-3.3l2.2-1.3l0.4,0.3l1.5,1.9l0.5,0l0.5,1.2l1.1,2.5v4l-0.3,1.6l-0.1,0l-1.8,2.4l-0.3,3.3l0.4,2.7l0.8,0.9l0.1,1.2l-1.6,1.2
	l-2.4,1.2l-3.6,2.9l-5.5,6.6l-2.8,5.6l-0.8,0.9l-2.5,1.1l-2.8,1.5l-2.6,2.4l-1.1,1.3l-1.6,3.2l-0.9,0.3l-1.5,0.3l-0.9,0l-4.4-2.3
	l-3.6-1.9l-4.1-3l-0.7-0.8l-4.4-7.4l1.3-1.5l0.2-3.6l0.2-3.3l3.5-3.4l-1.2-1.3l-2.5-0.4l-1.3-0.5l-3-2.8l-4.5-4.8l-0.4-1.1l-1.5-4.6
	l0.1-1.2l0.2-1l-0.4-3.9l-1.9-5.4l-0.8-1.1l-6.4-1.7l-0.3,0.1l-0.7-0.7l-2.7-0.2l-3.4,0.2l-2.5,0.4l-0.2-0.2l-1.1-0.7l-1.2,0.2
	l0.4-1.4l0.2-1.3l-0.5-1l-1.7-1.2l-2.2-3.7l0.3-1.7l1.1-1.8l0.2-1l-0.3-0.9l-0.6-0.7L446,670l-1.1-0.8l-0.9-0.9l-1.2-1.7l-0.5-4.5
	l0.1-3.6l-0.2-2l2-1.1l0.3-3.7l0-0.9l-0.1-1.4l-0.3-0.9l-0.8-1.1l-0.4-0.8l-0.3-4.8l0.2-0.9l0.9-1.3l0.6-1.1l-0.7-4.6l-2-3l-1.1-0.3
	l-1-1.1l-1.3-2l0-0.2l-1-1l1.1-1.8l2.9-2l1.1-2.9l0.7-4l2.5-4l1.3-3.4l0.7-4l0.7-4.2l-0.9-4l0.2-2.7l0.4-3.1l3.6-1.6l3.1-3.6
	l1.3-2.5l3.1-3.8l3.6-4l4.2-4.7l0.2-4.7l0.4-6l2.7-0.5l6.3,0.7l5.6,2.5l4.9,2.7l8.6,1.5l0.9,0.4l4.8-0.4l4.9-1.1l2.5-2.7l2.5-1.1
	l4.5-1.8l3.4-0.9l3.6-1.8l4.2-1.6l3.3-2.1l3.6-2.6l-0.5,4.3l0.3,4.6l0.8,1.9l-1.4,6l-2.2,3.6l0,2.9l-0.1,2.4l-0.8,2.6l-1.9,3.3
	l-1.7,2.9l2.1,3.6l0.5,2.1l1.1,5.5l0.6,0.9l1,0.8l0.8,0.5l-0.4,3.5l0.8,3l-3,1.1l-2.2,1.6l-0.8,5.2l-2.7,3.3l-2.7,3l-3.3,4.1
	l-2.7,3.8l-1.9,4.1l0.1,1.4l-0.3,0.3l-0.7,7.2l3.7,5l4.2,3.5l1.2,1.3l1.4,1.8l-0.3,1.2l-1.1,0.4l-1.1-0.1l-3.1,2.9l-2.7,4.9
	l-0.3,0.6l-1.5-0.7l-1.8-1.5l-4.3-0.3l-1.5-3l-2.4-0.6h-3l-0.9-3.7l-3.3-2.7l-3-0.9l-3.7-0.9l-3-0.9h-3.3l-3.3,0.3l-0.6,1.8l0.6,1.8
	h2.7l2.7,0.3l3.7-0.3l1.8,0.9l0.6,4.3l-2.4,1.5l-1.5,1.5l0.6,3l2.1,1.2v4l-1.8,0.3l-0.9,2.7l-2.1,0.9l-3,1.2l0.9,3.3l0.6,3.3
	l0.9,2.7l2.4-0.3h1.8l2.1,1.8l1.5,0.6l1.2-2.4l1.2-0.6l0.9,2.4l1.2,2.4h3.7L500.1,685.2z"/>
<path id="PE-SAM" class="st0" d="M183.6,240l2.1,0.1l1.7-0.1l1.2-0.1l2.1,0.7l4.3,3l0.7,1.2l0.7,1.2l0.9,2.5l0.3,1.6l1,1.9l0.8,1.3
	l2.1,1.5l2.1,0.9l2.4-0.4l1.5-0.7l1.5-1l0.8-0.7l3.9,0.4l4.1,3.8l3,3.8l3,1.5l4.1-2.6l2.4-1.7l1.9-0.2l3.2,0l1.2,0.2l3.9,0.8
	l2.8-2.1l5.3-1.1l3.8,1.9l2.3,3l-0.4,3.8l-1.9,2.2l0.4,0.9l0.1,1.3l-0.1,1.1l-0.4,2l-0.3,2.1l-0.3,3l-0.2,2.5l0,1.4l0.1,1.7
	l-0.7,3.3l-0.4,1.2l-0.1,0.1l-1.6,0.6l-3.8,0.8l-4.7,0.2l-0.5-0.6l-1.1-0.9l-1.1-0.8l-1.2-0.5l-1.3-0.4l-1.2-0.3l-1.8,0.1l-0.8,0.2
	l-2.1,2.1l1.1,9v3.8l-4.1,3l-0.2,1l-0.1,0.7l-2.8,0.9l-0.2,2.7v3.3l1.2,3.7l3.5,3.5l1,6.9l1.2,4.1l2.6,3.5l0.7,2.6h2.9l1,2.1
	l0.5,0.9l-2.4,2.2l-1.9,3.4l-0.8,5.6l0.3,0.4l-4,1.4l-3.8,3.8l1.1,9.4l0.8,3.2l-0.7,1.2l-0.8,0.6l-2.2-0.3l-1.1-1.5l-2.8-6.9
	l-1.6-2.8l-1.4-0.5l-1.9-1.6l-0.1,0.5l-1.8-0.9l-1.5,1.9l-1.5,3l-1.9-1.1l-3-1.1l-4.1,1.5l-3-0.8l-3.8,0.8l-1.7,0.2l0.2,0.8H191
	h-2.7h-1.7l-0.4-1l-0.8-0.5l-1.3,0.1l-0.5,0.2l-2.2-3.5l1.9-1.9l3.4-1.1l4.1-0.8l1.2-0.3l0-0.8l-0.3-1.4l0.9-0.5l-1.1-4.1l-1.5-2.2
	l-2.2-3.4l-4.5-0.8l-2.6-1.9l-3.4,0.4l-4.5,1.9h-0.5l-0.5-3.2l-0.7-4.2l-1.6-1.3l-1.6-0.1l-0.1-0.3l-1.9-0.3l-0.4-4.5l-0.2-3.8
	l-0.7-2.5l-0.3-3.9l-0.4-0.2l-1.4-0.9l-0.7-1.4l-1.1-3l-0.2-2.2l1.1-2.2l0.2-1.2l-0.7-1.2l-3.8-4.6l-1.8-3.1l-0.6-0.4l-0.7-0.8
	l-0.5-1.5l0.1-1.6l0.7-2.1l0.7-1.5l0.6-4.3l2.3-1.9l2.3-0.4l4.5,0.4l3,2.2l2.3-1.1l2.2-2.6v-1.9l0.4-0.2l0.5-1l0.4-1.7l0.4-1.2
	l0.7-1.4l0.8-1l1-0.8l1.6-1l1.5-1.3l0.9-1.7l-0.7-2.8l-0.8-2l-0.5-1.2l-1.1-1.7l-2.1-2.2l-3.8-1.3l-1.7-0.4l-1.9-0.4l-1.9-0.4
	l-1.2-0.3l-1.1-0.5l-1.8-2l-4.4-8.5l-0.6-1.4l-0.6-1.5l0.4-9l0.2-1.2l0.5-0.9l1-1.3l1.1-0.9l0.5-0.3l0.4,0.8l2.4,1.8l1.3,0.8
	l2.5,0.8l2.7,0.8l2.1,1l1.3,1l0.9,1.4l0.8,0.9l1.8,2l1.1,0.6l1.2,0.4l1.2,0.3L183.6,240z"/>
<path id="PE-TAC" class="st0" d="M473.1,721.7l2,1.1l0.4,3.1v1.5l0.7,0.1l0.6,1.5l2.2-0.7l1.3-0.1l4.3,7.2l0.7,0.8l4.1,3l3.6,1.9
	l4.4,2.3l0.9,0l1.5-0.3l0.9-0.3l2.8,0.4l2.4,2.3l1.4,1.4l0,2.1l0,3.5l-5.6,5l-2.3,2.1l-0.3,0l-0.5,0.8l-2.9,0.4l-1.1,1.6l0.4,3.1
	l0.9,2.2l1.1,4.9l0.2,4.5l-1.8,4l-2.2,4l-4.2,4l-6.7,1.3l-7.1,0.4l-4.5,0.9l-1.1-1.1l-0.5-1l-0.4,0.3l-0.4-0.5l-4.6-4l-1.8-1.2
	l-1.1-0.5l-1.7-0.3l-0.8-0.4l-3.3-2.9l-7.2-6.6l-1.1-1.7l-1.5-1.2l-2.5-1.5l-3.4-1l-3.1-2.2h1.9l2.9-1.8l3.8-1.6l2.5-2.2l2.2-5.1
	v-2.1l0.8-1.2l1.4-2.9l2.1-4.1l1.5-2.8l0.9-1.3l0.7-0.5l1.4-0.4l1.5-0.6l0.9-0.6l2.7-3.1l2.4-3l0-1.3l-0.3-0.9l-0.7-1.7l0.2-1.2
	l1-3.2l1.4-1.8l1.4-0.8l2.2-0.1l0.3,0.2L473.1,721.7z"/>
<path id="PE-TUM" class="st0" d="M44.1,167.9l-1.4-0.6l-1.3,0l-1.9,0.3l-1.5,2.8l0,0.2l-0.4,0.3l-0.9,0.7l-3.9,3.4l-0.5,0.1l-0.4,1
	l-3.4,1.3l-6.2,0.4h-5.7l-2.8-2.3l-0.9-2.8l1.2-0.8l1.7-3.4l1.3-1.9l2-1.5l2.5-1.5l0.8-1l0.3-1.8l0.4-1.4l0.6-1.2l0.7-0.8l4.1-2.6
	l3.1-1.6l2.1-1.1l1.9-2.5l0.4-0.8l0.7-1.3l1.2-0.5l2.5,0l1.1-0.1l0.9-0.2l0.8-0.6l0.1-0.1l2.1,0.6l1.5,0.5l0.6,2.8l0.8,2.8l0.9,2.6
	l0.3,4.3l-0.8,3.1l-0.9,2.4l-1.8,1.9L44.1,167.9z"/>
<path id="PE-UCA" class="st0" d="M304.5,311l4.2,0.4l2.9,2.5l2.9,2.2l0.1,1.4l0.1,0.1l0.8,0.6l0.4,0.5l-0.6,0.1l-0.1,1l1.3,0.9
	l1.8,1.5l2.9,2.8l0.6,1l0.4,0.8l0.9,0.6l3,1.1l1.2,0.3l0.7,0.5l0.5,1.2l-0.2,1.8l-1.2,1.4l-2.2-0.3l0.2,3.2l0.7,0.8l2,0.7l2.5,1.4
	l2.4,4.5l1.7,5.5l0.7,2.3l0.4,2.1l2.3,2l3.2,2.2l2.5,6.5l3.1,3.1l1.4,0.2l1.1,0.3l1.4,0.6l0.7,0.6l0.6,0.9l0.5,1.2l0.4,1.2l0.5,0.7
	l2.7,4.1l2.3,1.2l1.9,2.5l0.5,2.5l0.1,0.9l0,1l-0.3,1.2l-0.5,1l-2.4,3.4l-4.1,4l-1.6,1.3l-1.1,0.9l-0.8,1.5l9.4,0.4l5.1,0.1l0.9,0
	l4.7,0.1l5.3,1.4l8.7,1.6l1.3,0.4l3,1.7l2.1,5.3l-0.2,1.5l-0.5,1.6l0.4,1.2l1.4,0.8l2,1.1l0.7,1.3l0.6,2.3l-0.8,2.9l-0.7,2.1
	l1.8,0.1h3.9l1.8,0h1.3h2.1h12.3l7.8,0l3.9,0l3.1-0.4l5-2.7l0.9-1.8l0.9-1.1l5.3-1.8l1.2-1l0.7-1.4l3.7-4l1.6-1.1l2.8-1.7l5.8-4.9
	l2.3-2.1l0.9-0.3l-0.5,2.3l0.1,2.2l-0.6,4l-0.2,6.4L460,416l-0.6,1.2l-0.1,3l0,2.3l0,0.7l-6.7,10.6l-2.4,1v0.1L447,438l-5.1,5.3
	l-4.7,1.8l-2.8,2.9l-1.4,1.8l-1.4,4.3l-0.1,2l-0.2,0.1l-0.3,3.8l-0.8,2.4l-2.6,2.4l-1.8,1.8l-11.6,0.4l-4.7-0.2l-0.2,0.1l-1.3,0.2
	l-3,0.2h-1.2h-1.1l-1.6-0.3l-0.2-0.2l-2.8,0.4l-3.1-0.5l0,0l-2.2,0.3l-0.4,2l1.6,1.4l-0.6,2.4l-1,3.7l-1.8,2.6l-1.3,1.1l-1-0.1
	l-4.8,1.7l-2.4,2.2l-3,1.9l-1.7,0.5l-2.1-0.6l-3-1.3l-5.9-0.7l-3.4-1.8l-1.1-0.9l-1.2-2.9l-3.3,0.6l-0.9,0.8l-1.1,0.4l-1.4,0.4
	l-1.5,0.3l-3.1,0.5l-1,0.1l-6.7,0.8l-0.9-0.4l-0.1-0.1l0.4-4l-0.9-6.5l-1.9-1.5l0-0.1l-2.4-0.7l-0.4-3.8l-0.1-2.9l-0.2-0.3l-1.6-2
	l-1.5-1.2l-5.5-1.7l-1,1.8l-0.9,1.8l-0.4,0.5l0.1,1.9v2.2l-0.2,4l-0.9,2.9l-2,1.1l-4.2-0.9l-1.1-3.4l-0.5-2.7l-3.6,0.5l-1.5,0.4
	l-0.9-0.3l-6,0.4h-4.5l-3-1.1l-0.2-0.6l-0.4-1.9l-0.5-2.8l1.7-0.8l2.9-2.5l0.5-0.7l1.3-1.5l3-2.9l2.4-1.3l1.3-0.4l1.4-0.5l0.2-0.9
	l-0.1-0.2l1.3-0.7l0.2-2l-0.7-1.8l-1.1-0.7l-2-2l-1.1-2.9l0.4-2.9l1.1-2.5l0.2-3.4l-2.9-0.4l-2-1.6l-2.7-3.6l-0.2-3.8L298,418
	l-1.7-0.8l-0.8-2.3l-0.2-0.6l0.3-3.7l-1.3-2.7l-0.9-2.9l-2.2-1.6l-1.8-2.5l-0.2-2.5l0.9-2.5l1.8-2.2l-0.9-3.4l-1.8-2.2v-4.5
	l-0.8-3.3l0.7-3.2l2.5-4.9l2-1.3l0.1-1.1l-0.3-1.4l-0.6-1.5l-1.1-1l-0.8-0.4l-1.6-0.2l-2.4-0.2l-1.4,0.1l-1,0.2l-3.5,1.4l-0.4,0.3
	l-0.9,3.5l-1.6,4.2l-0.2,2.9l-1.1,2h-2l-1.1-2.2l-3.1,0.4l-2.7,0.5l-0.3,0.5l-0.5,3.9l-2.2,2.7l0.2,4.5l-1.8,1.8l-2.2,2l-3.4,0.9
	l-2.4-0.6l-4.2,2.2l-2,1.6l-0.8,0.4l-2.2-0.7l-1.8-2.5l-1.8-3.1l-2.2-4l-0.7-1.3l-0.8-0.7l-0.2-1.2l-0.6-1.4l-0.7-0.8l-2.4-5.3
	l-1.3-4.9l0.7-4l0.1-3.5l1.5-0.7l0.8-0.6l0.8-1l2.6-2.8l5.6-4.9h1.9l1.4,0.8l1,0.9l1,1l0.1,0.1l2.3-0.6l1.5-1.1v-2.6l0.2-2.7v-3.8
	l1-1.9l2.7-2l2.8,0.5l1.4,0.2l1.1-1.2l2-1.8l2.2-2.7l4.9,0.4l1.3,0.8l0.5-0.2l0.4,0.5l4.5,0.4l5.6-0.4l2.5-1.3l1.1-2.5l0.8-0.4
	l1.3-0.9l0.8-1.1l0.2-1.1l0.2-3.8l-0.7-8.5l-0.3-1.8l-0.4-1.9l0.8-1.4l1.6-1.6l1.7-2.6l0.1,0.1l0.1,0.1l0.1-0.3l0.9-1.6l1.6-0.4
	l2.2,0.2l1.6,1.8L304.5,311z"/>
<path id="PE-LKT" class="st0" d="M495.5,649.3l3.3,2.7l0.9,3.7h3l2.4,0.6l1.5,3l4.3,0.3l1.8,1.5l1.5,0.7l-3.5,7.5l3.5,9.3l3.4,9.2
	l1.5,0.8l3.4,2.2l3,2.2l-2.2,1.3l-1.8,3.3l-4,1.5l-3.3-0.6l-2.1-3.3h-2.1l-4,1.8l-2.4-2.4l1.2-3.3l2.1-2.4l-0.6-1.8l-4.6-0.9
	l-1.8-0.9l-0.1,0.3h-3.7l-1.2-2.4l-0.9-2.4l-1.2,0.6l-1.2,2.4l-1.5-0.6l-2.1-1.8h-1.8l-2.4,0.3l-0.9-2.7l-0.6-3.3l-0.9-3.3l3-1.2
	l2.1-0.9l0.9-2.7l1.8-0.3v-4l-2.1-1.2l-0.6-3l1.5-1.5l2.4-1.5l-0.6-4.3l-1.8-0.9l-3.7,0.3l-2.7-0.3h-2.7l-0.6-1.8l0.6-1.8l3.3-0.3
	h3.3l3,0.9l3.7,0.9L495.5,649.3z"/>
</svg>
