<?xml version="1.0" encoding="utf-8"?>
<!-- Generator: Adobe Illustrator 25.4.1, SVG Export Plug-In . SVG Version: 6.00 Build 0)  -->
<svg version="1.1" id="Capa_1" xmlns="http://www.w3.org/2000/svg" xmlns:xlink="http://www.w3.org/1999/xlink" x="0px" y="0px"
	 viewBox="0 0 1000 100" style="enable-background:new 0 0 1000 100;" xml:space="preserve">
<g>
	<g>
		<g>
			<g>
				<g>
					<g>
						<path d="M936.6,48.8c1.3,0,0.8-0.4,1-0.5C935.5,48.5,936.7,48.9,936.6,48.8z"/>
						<polygon points="915.2,49.8 915.6,49.6 912.4,50 						"/>
						<path d="M895.1,49.8c1.9,0.7,7.3-0.1,10.9,0.1l0.6,0.2l1.6-0.6C903.8,49.6,898.2,50,895.1,49.8z"/>
						<path d="M884.4,48.2c0.7,0.3-2.3,0.2,2.5,0.1c-0.2,0-0.3,0-0.5-0.1C886,48.3,885.4,48.3,884.4,48.2z"/>
						<path d="M886.4,48.3C888.5,48.2,885.1,48,886.4,48.3L886.4,48.3z"/>
						<path d="M876.7,48.4l2.8-0.2c-0.6-0.2-3.1-0.2-2.1-0.3C874.5,48,875,48.1,876.7,48.4z"/>
						<path d="M874,48.9l1.4-0.1C875.2,48.8,874.8,48.7,874,48.9z"/>
						<path d="M878.5,48.6l-3.1,0.2c0.4,0.1,0.4,0.3,1.4-0.1C876.6,49,877.2,48.8,878.5,48.6z"/>
						<path d="M880.3,48.7c1.6,0.2,3.6,0.3,0.8,0.5C886.4,49.1,885.6,48.6,880.3,48.7z"/>
						<path d="M894.1,50.5l2.1,0.2l1.8-0.2C897.1,50.6,893.9,50.3,894.1,50.5z"/>
						<path d="M859.3,48c-0.2,0.2,0.9,0.4,1.1,0.6l2.1-0.2C861.5,48.4,859.5,48.3,859.3,48z"/>
						<path d="M860.5,48.6l-3.1,0.3C860.1,48.9,860.6,48.8,860.5,48.6z"/>
						<polygon points="873.5,49.7 878.6,49.2 872.6,49.7 						"/>
						<polygon points="847.6,48 849.3,47.7 846.2,48.2 						"/>
						<path d="M839.8,48.1c1.3-0.3-1.8-0.5-0.4-0.7c-2.1,0.1-3.9,0.3-5.6,0.5C835.5,47.8,837.4,47.8,839.8,48.1z"/>
						<path d="M831.1,48.3c0.9-0.1,1.8-0.2,2.7-0.3C832.9,48,832,48.1,831.1,48.3z"/>
						<path d="M852.1,48.8c-0.2-0.1-0.7-0.3-2.4-0.4l1.2,0.4C851.3,48.8,851.7,48.8,852.1,48.8z"/>
						<path d="M851,48.8L851,48.8c-1.4,0-2.3,0-2.7,0C848.7,48.8,849.5,48.8,851,48.8z"/>
						<path d="M852.5,48.8c-0.1,0-0.2,0-0.3,0C852.3,48.9,852.3,48.9,852.5,48.8z"/>
						<path d="M865.5,49.3c-1.8,0.2-5.6,0.5-1.9,0.9C864.8,49.9,862.7,49.7,865.5,49.3z"/>
						<path d="M854,49.4l3.3,0.1c-0.1-0.1-0.7-0.3,0.2-0.4L854,49.4z"/>
						<polygon points="852.4,49.5 854,49.4 852.7,49.3 						"/>
						<path d="M836.7,48.7c-1.4,0.2-3,0.2-4.7,0.2c1.9,0.1,3.8,0.1,5.6,0.1C837.9,48.9,838.7,48.7,836.7,48.7z"/>
						<path d="M843.6,48.8c-0.1,0-0.2,0-0.3,0C843.5,48.8,843.7,48.9,843.6,48.8z"/>
						<path d="M814.8,48.9c0.1,0,0.2,0.1,0.3,0.1c0,0,0,0,0.1-0.1L814.8,48.9z"/>
						<path d="M837.9,49.1c1.4,0.1,2.2,0,3-0.2c-1.1,0-2.2,0.1-3.4,0.1C837.5,49.1,837.5,49.1,837.9,49.1z"/>
						<path d="M826.3,48.5c0.7,0.1,1.6,0.2,2.4,0.2C828,48.6,826.5,48.4,826.3,48.5z"/>
						<path d="M842.8,48.7c0.1,0,0.1,0,0.2,0C842.6,48.6,842.6,48.6,842.8,48.7z"/>
						<path d="M842.8,48.7c-0.7,0.1-1.3,0.2-1.9,0.3c0.9,0,1.6-0.1,2.3-0.1C843.1,48.8,843,48.7,842.8,48.7z"/>
						<path d="M809.6,51.6c0.2-0.4,3.9-0.8,7.1-0.3c3.1-0.3,1.1-1.6-1.7-2.3c-0.1,0.2-0.1,0.3-3.3,0.6c1.1,0.2,7.2,0.5,4.4,0.9
							c-4.3,0.2-3.5-0.1-5.6-0.3c1.8,0.5-5.4,0.7-4.5,1.4l3.8-0.3C809.9,51.4,808.5,51.5,809.6,51.6z"/>
						<path d="M821.2,49l1.3,0c-1.5-0.1-2.6-0.2-4.6-0.5c-2.2,0.2-2.7,0.3-2.8,0.5l6.5,0.1L821.2,49z"/>
						<path d="M828.5,49c-1,0.4-4.2,0.6-2.3,1.1c3.9,0,2.7-0.4,5.1-0.5C825,49.6,833.1,49.3,828.5,49c1.3,0,2.4,0,3.4-0.1
							c-1.1-0.1-2.2-0.1-3.3-0.2c0.1,0,0.1,0,0.1,0l0,0c0,0,0,0,0,0c0.3,0.1,0.4,0.1,0.1,0.1c0,0-0.1,0-0.1,0
							C828.8,48.9,828.7,48.9,828.5,49c-1.8-0.1-0.3-0.1,0.3-0.2c0,0,0.1,0,0.1-0.1c0,0,0,0,0,0l-6.3,0.2
							C823.9,49,825.6,49,828.5,49z"/>
						<path d="M860.2,51.1c-0.2,0-0.2-0.1-0.2-0.1C859.6,51.1,859.4,51.1,860.2,51.1z"/>
						<path d="M857.6,50.9c0.5-0.1,0.8-0.2,2.3-0.2c1.3,0.1,0,0.2,0.1,0.3c0.9-0.1,3.1-0.3,0.3-0.5l-0.4,0.1
							c-2.5-0.1-5.8-0.7-5.4-0.7C855.2,50.2,855.9,50.5,857.6,50.9z"/>
						<path d="M842.9,50l-5.3,0.2l2.7,0.4l-0.1-0.2C843.1,50.5,842.5,50.2,842.9,50z"/>
						<polygon points="814.2,48.7 814.9,48.2 811.9,48.9 						"/>
						<polygon points="807.4,48.7 807.6,48.3 805.8,48.6 						"/>
						<path d="M422.3,53.6l-1.5,0.1C421.5,53.7,421.9,53.7,422.3,53.6z"/>
						<path d="M433.4,53.7l0.3-0.2C433.2,53.6,433,53.7,433.4,53.7z"/>
						<path d="M639.8,48.8c-2.2-0.4-4.8-0.9-4.5-0.5l0.7,0.4C637.5,48.6,638.7,48.7,639.8,48.8z"/>
						<path d="M525,51.4c0.2,0,0.4,0.1,0.7,0.1c0.5-0.1,1.1-0.3,1.5-0.4C526.5,51.2,525.8,51.3,525,51.4z"/>
						<path d="M523.4,53.2l-3-0.3C521.1,53,522.1,53.1,523.4,53.2z"/>
						<path d="M361.3,54.1l-1.8,0.4C362.3,54.5,361,54.3,361.3,54.1z"/>
						<path d="M737.5,48.9c-1.9-0.2-3.5-0.2-4.8-0.3C735,48.9,736.9,49.3,737.5,48.9z"/>
						<path d="M426.7,49c-0.9,0.1-1.3,0.2-1.3,0.3C426.3,49.2,426.9,49.2,426.7,49z"/>
						<path d="M727,48.6c0.3,0,0.7,0.1,1,0.1c1.4-0.1,2.8-0.1,4.6-0.1C730.9,48.5,728.9,48.3,727,48.6z"/>
						<path d="M140,53.7c-0.2,0-0.4,0-0.5-0.1C139.4,53.8,139.7,53.8,140,53.7z"/>
						<path d="M75.5,49.4c0.6,0,1.7,0,2.6,0C77.7,49.3,76.9,49.3,75.5,49.4z"/>
						<path d="M779.9,48.5C781.4,48.5,780.1,48.5,779.9,48.5L779.9,48.5z"/>
						<path d="M787,50.3c-0.3,0-0.5,0.1-0.6,0.2C786.5,50.4,786.7,50.3,787,50.3z"/>
						<path d="M712.6,51.3c0,0-0.1,0-0.1,0C712.9,51.4,712.9,51.4,712.6,51.3z"/>
						<path d="M782.1,48.7c-0.5-0.1-1.2-0.1-1.9-0.1C780.5,48.7,781.1,48.7,782.1,48.7z"/>
						<path d="M781.8,48.5c0.5,0,0.9,0,1.3,0C783.2,48.5,783.1,48.5,781.8,48.5z"/>
						<path d="M777.9,48.6c0.8,0,1.6,0,2.3,0c-0.3,0-0.4-0.1-0.3-0.1C779.5,48.6,778.9,48.6,777.9,48.6z"/>
						<path d="M258.5,52.6c-0.1,0-0.2,0-0.3,0C256.8,52.7,257.4,52.7,258.5,52.6z"/>
						<path d="M602.1,53.3c0.1,0,0.1,0,0.2,0C602.2,53.3,602.1,53.3,602.1,53.3L602.1,53.3z"/>
						<path d="M596.9,53.6c2.2-0.5,3.5-0.5,5.1-0.4l-1.7-1.3L596.9,53.6z"/>
						<path d="M395.5,53.8l3.7,0.4c-4.4,0.6-7.6,0.4-4.2,1c0.5-1.4,14.2-0.1,14.7-1.5l2.4,0.3c-0.7,0-0.8,0.1-1.5,0.1
							c4.7,0.7,3.5-1,9.5-0.8c2.1,0.1,3.6,0.3,2.1,0.5l4.7-0.3c1.4,0,1,0.3-0.3,0.2l7.1-0.1l-0.1,0c1-0.2,3.3-0.5,4.5-0.7
							c1.8,0.2-0.9,0.1-0.4,0.3l4-0.3c1.6,0.4-1.7,0.7-4.4,0.6c3.7,1.4,3.3-0.3,11.3,0.5l-3.7,0.2c2.4,0.8,5.3,0.5,9.5,1
							c-1-0.3-8.5-1.2-4.2-1.5c1.2,0.1,2.8,0.2,5.1-0.1c0,0.5,2.3,0.4,5.1,0.3l-0.2,0.6c3.1-0.2,2.8-0.5,4.6-0.8
							c3.4,0.1,4.1,0.6,4.9,1c5.5,0.1-3.8-0.8,2.7-0.9c4.5,0.2,7.7,0,13.2-0.4c3.2,0.2-0.6,0.4,0.6,0.6l2.8-0.5
							c0.7,0,0.5,0.2,0.4,0.2c2.4-0.2,0.2-0.6,3.9-0.8c1-0.7,7.7,1,12.3,0.2c1.1,0.2-0.5,0.4-0.2,0.6c6.3-0.5,5.4-0.4,10.6-1.1
							l4.4,0.4c-3.3-0.5,0.9-1,4.5-1.5c-1.2-0.2-2.1-0.4-2.8-0.5l5.8-0.3c0.7,0.1,0.1,0.3-0.8,0.6c0.4-0.1,0.8-0.1,1.1-0.2
							c2.1,0.2,1,0.6-0.5,1c-0.7-0.1-1.4-0.3-2.1-0.4c-1.4,0.4-2.8,0.8-2.5,1.2c0.4-0.1,1.1-0.1,1.9-0.2c-0.4,0.1-0.6,0.2-0.4,0.3
							c0.2,0.1,0.8-0.1,1.8-0.2l1.3,0.7L528,53l7.6,0.4c5.4-0.7,10.2-1.8,18.8-2.1c-2.1,0.5-0.5,0.9-0.6,1.5
							c-2.4-0.7-6.7,0.3-11.2,0.1c2.3,0.1,1.8,0.4,1.2,0.5l8-0.6c-0.2,0.5,1.7,0.4,3.8,0.6c-1.6-1,6-0.7,9.2-1
							c0.2,0.3-0.6,0.7-4.5,0.6c4.4,0.8,5.7-1.2,9.9-0.5c-1,0-1.5,0-1.9,0.1c2.3-0.3,7.8-0.1,6.5,0.2l-1,0c6.4,0.1,19.6,0,20.5-0.8
							c0.1,0.1-0.8,1-1.2,1.2l11.5-2.9c-1,0.7,2.9,2.5-2.5,2.9c1.5,0.1,3.4,0.2,6.7,0c-1-0.1-2.6-1.1-1.2-1.1
							c3.9,0.8,2.7,0.4,7.5,1.1c-1.6-0.2,0.2-1.3,2.6-1.3c-0.4,0.2,0.2,1.1-0.7,1.2l6.2-1.1c-1.5,0.2-0.3,1,1.1,1.3
							c-0.6-0.2,5.3,0,7-0.1l-2.6-0.3c7,0.2,6.9-1.6,13.8-1.5c-0.8,0.2-2.1,1.4,1.4,1.6c1.6-0.6,7.1-2.8,13.2-3.2l1.2,0.3l4.7-0.4
							c-2.9,0.9-11.1,2.7-15.6,3.4c2.6,0.3,0.7,0.4,4.6,0.4c1.4,0.3-2.1,0.5-3.3,0.5l9.1,0.2c-0.4-0.7,6.9-0.7,6.6-1.2l-9.8,0.7
							c-0.4-0.7,5.7-1.9,12.1-1.8c1.6,0.3-1.2,1.2-1.1,1.4c0.8-0.2,6.1-0.4,6.7-0.3l-2.7,0.4c3.6,0.3,5.8-0.9,10.1-0.2
							c1.5,0,4.4,0.9,4.7,0.5c-2.4-0.8-2.9-3.1-1.3-3.7c0.5,0.1,7.8,0.7,9.5,1.1c2.4,0.6-3.7,1.4-1.6,2c0.1-0.2,1.4-0.4,2-0.5
							c1.6,0.2-0.6,0.6,2.7,0.5c0.6-0.7,6.9,0.1,1.6-0.6c3.3-0.2,3.5,0.1,7.4,0.1c-1.2-0.4,3.5-1.5,6.8-1.7
							c-0.2,0.2,0.5,0.4,0.9,0.5c6.8,0.1,10.4,0.4,16.8,0.4c0.6,0.2,3.6,0.4,2.3,0.7c0.9-0.1,1.7-0.4,3.7-0.4
							c3.8,0.6-4.4,0.1-1.5,0.8c0.2-0.4,5-0.5,7.8-0.8c-0.9-0.6-6.4-0.1-9.2,0.1c0-0.8,4.8-1.7,11.5-2.1c5.3-0.2,2.3,0.5,3.2,0.4
							c9.9,0.1,8.4-1.5,16.6-0.9c3.3,0.5,0.1,1.1,0.9,1.5c-4.3,0.2-6.6-0.3-9.5-0.3l3.6,0.3c-1.4,0.2-4.2,0.3-5.8,0.2
							c2.7,0.5,16.7,0.1,24.3,0.5c1.4-0.2,3.7-0.4,2.6-0.6l-2.4,0.1c-2.2-0.4,4.5-0.6,1.5-0.8c3.2-0.3,6.9-0.8,11.4-0.5l0.9,0.6
							c-0.1-0.2-3-0.4-4.3-0.2c1.9-0.3,7,0.8,9.1,0l-3.2-0.4c3.2-0.3,7.3-1,11.3-0.8c-1.8-0.6-0.9,0.1-3.8-0.6
							c2.5,0.9-10.3,0-6.3,0.9c-2.9-0.8-5.1-0.3-8.9-1c0.1,0.2,1.4,0.4-2,0.3c-0.2,0.1-0.5,0.1-0.7,0.2c-0.1,0-0.1,0-0.2,0
							c0.1,0,0.1,0,0.2,0c-0.1,0-0.2,0,0.1,0c0.8,0.1,1.5,0.2,1.7,0.3c-1.7,0.5-7.1,0.4-8.9,0.7c-2-0.1,0.8-0.2-0.3-0.4l-2.7,0.4
							c-0.3-0.4-5.3-0.7-0.6-1l-4.3,0c-2.5-0.3-6-0.4-8.1-0.2c-2-0.1-5.1,0.5-3.3,0.1l-6.7,0.3l-0.1-0.1c-6.6-0.1-13.6,0.7-21.1-0.1
							c-2.2,0.1-4.5,0.3-8.2,0.1l-0.7-0.4c-2.9,0.1-8.6-0.4-9.8,0c-3.1-1-13.8-0.2-18.8-0.4l-0.2,0.5c-3.5,0-6.8,0.1-11,0.3l0.3,0.4
							c-3.7,0.4-9.5-0.3-15.3-0.3c0.4-0.2,1.9-0.1,2.9,0c-7-1-14.7,0.7-21.1,0c-1.6,0.2-2.7,0.1-3.8,0c0.1,0,0.3,0,0.4,0
							c-0.2,0-0.4,0-0.6,0c-0.7-0.1-1.4-0.2-2.2-0.2c0.7,0.1,1.3,0.2,1.8,0.2c-1.2,0-3.1,0.1-4.9,0.2l-0.8-0.5c-0.1,0-0.3,0-0.4,0
							c-1.8-0.2-1.4,0.2-0.5,0.6c-0.9,0.1-1.7,0.2-2.4,0.3c-1.4-0.8-4.7,0.3-6.7-0.6c-1.2,0.4-9.1,0.3-10.1,1.2
							c-0.1-0.1-0.6-0.2,0.4-0.2c-2-0.1-4-0.2-5.8,0l-0.9-0.6l-4.4,0.8c-2.7-0.4-3.8-0.6-1.1-1.1c-6.4,0.7-5.2,0.3-10.7,1l0.3-0.4
							c-1.9,0-5.1,0.5-6.2,0.2c-4.4-0.8-21.6-0.1-32.8-0.8c2.2,1.2-5.2-0.5-5.6,0.4c-0.7-0.3-2.2-0.4-0.4-0.7
							c-5.7,0.3-8.6-0.4-12.5,0.3c-0.7-0.3,1.2-0.4,0.6-0.6c-0.5,0.1-1.8,0.2-2.4,0.1c-0.6-0.2,0.8-0.2,1.7-0.4
							c-5.8,0-6.4,0.9-6.8,1.7c-3-0.4-4.4-0.3-6.6,0.2c-1-0.3-2.7-0.5,0.9-0.6c-2,0-12.5-0.4-12.7,0.3c-0.6-0.2-2.9,0-3.4,0
							c-4.6,0-5-0.1-9.5,0l1.2,0.1c-1.8,0.8-3.7,0.2-7.4,0.3l0.1-0.1c-8.3-0.6-3.6,0.3-11.8-0.4l0.4,0.5c-0.8,1-7.3-0.6-12-0.2
							l1.7,0.3c-2.6,0.4-7.3-1.4-9.9-1.5c-0.6-0.1,0.9-0.1,1.7-0.2c-6.8-0.6-0.9,0.6-6,0.8c-0.9-0.3,1.2-0.9-2.2-0.9
							c-1.7-0.3-9.9,1.1-14.6,0.5c1,0.3,2.1,0.5-0.3,0.7c-3.6,0.1-9.8-1-13.1-0.2c-0.5-0.1-0.6-0.1-0.7-0.2c-2.8,0.2-9,0.4-10.7,0.8
							c-2.6-1.7-17.2,0.8-17.2-0.7l-8.5,0.1l0.2-0.2c-5.4-0.1-7.4,0.3-9.3,0.6c-1.3-0.1-0.3-0.2-0.2-0.3c-8-0.3-8.7-0.2-15.4,0.5
							l-0.7-0.5c-1.8,0.3-11.5-0.8-19.3-0.2c0.1-0.1,0.2-0.2,0.9-0.2c-8.8,0.6-21-1.4-24.2,0.4l-5.8,0.4c7.5,0.1-1.1,0.8,2,1.1
							c-2.9,0.1-7.6-0.5-4-0.6l0.6,0.1c1.3-0.9-9.3-0.3-9.1-1c-14.8,0-29.1-0.5-42.9-0.5l1.6,0.7l-4.8,0c-1.3-0.2-1.7-0.6,1.7-0.5
							c-1.8-0.4-5.8,0.3-5.9,0.5c-6.7-0.3,2.6-0.9,0.6-0.9L252,49l0.6,0.1c-2.3,0.3-2.5,0.6-6.6,0.6c-2.6-0.1-1.3-0.5-2.4-0.5
							c0-0.1-0.3-0.1-1.6,0l-6.1-0.1l2.4,0.6c-2.7,0.3-5.7,0-2.9,0.6c-4.1-1-22.7-0.4-25.2-0.7c-3.8,0.4-7.5,0.4-12.1,0.4
							c1.1,0.1,1.8,0.8-2.1,0.7c1.5-1.3-7.3-0.6-10.5-1.5c2.9,0.6-11.3,0.2-6.8,1.1c-3.3-0.1-0.2-0.5-2.7-0.8
							c-7.9,0.5-17.4-0.3-27.2-0.2c-0.2,0.2,1.5,0.4-0.6,0.7l-5.2-0.9c-1.9,0.1-1.8,1-5.3,0.4c0.5,0.1,1.2,0.4-0.1,0.4
							C118.7,49,98.7,50.6,79.3,49c2.6,0.3,0.9,0.4-1.1,0.4c1.3,0.1,0,0.4,0.2,0.7l-8.1-0.7c-1.5,0.7-8.7,0-9.6,0.7l2.6-0.1
							c-3.4,0.7,4.8,1.7,4.3,2.6c3.8-0.8,10.1,1.3,16.4,0c1.4,0.2-1.2,0.3-0.4,0.5c1.6-0.4,3.5-0.5,7.1-0.3l-0.4,0.1
							c10-0.1,14.3,0.3,25.6,0.6L115,53c2.4,0.1,2.9,0.2,4.1,0.3c2.8-0.7-6.8,0-4.3-0.8c3.2,1,17.1,0,19.2,1.1
							c3.7,0-1.1-0.5,2.6-0.5l1,0.3l0.9-0.4c2.4,0.1,3.7,0.4,3.8,0.7c-0.6,0-1.7,0.1-2.3,0.1c3.2,0.3,8.9-0.1,10,0l-3.6-0.2
							c10.2-0.3,22.6,0.1,32.4-0.5l-0.7-0.2c7.5-0.4,6,0.2,14.2,0.1L192,53c1.6-0.2,3.8-0.3,6.1-0.3c-2.1,0.3,3.9,0.5,1.2,0.8
							c8.1-0.4,4-0.3,9.4-1.2l1.2,0.4c1.8-0.3,2-0.5,6.1-0.6c-3.4,0.3,2.6,0.6-1.2,1c8.6,0.8,12.8-0.8,16.8,0.4c4-1-7.5-0.6-5.2-0.8
							c-1.9-0.3,3.3-0.8,6-0.7c2.8,0,4.7,1.3,11.6,1.3c-0.7,0-0.7,0.1-1.4,0.1c2.6,0.3,5.1-0.4,8.3,0.1c1.8-0.6,4.1,0,4.6-0.8
							l-6.4,0.2c3.6-0.2,7-1.1,12.9-0.7c-0.5,0.2-2.2,0.4-3.4,0.5c1.7,0.2,3.3-0.2,5.1,0.1c-0.5,0.8-7.7,0.2-11.6,0.8
							c1.9,0.3,7.3-0.6,5.4,0.3c2.8-1.1,6.8,0.1,11.5-0.7l-0.3,0.5c0.7-0.1,2.3-0.3,3.6-0.3l-2.5,0.6c3.8-0.5,7.3,0.5,11,0.2
							c-7.6,0-1.7-0.6-4.9-0.9c9.4-0.6,5.4,1.2,15.9,1c-1.4,0.1-5.4-0.3-3.1-0.5c2,0.1,4.7,0.3,5.9,0.5c7-0.1-1.1-0.5,1.9-0.8
							c2.4,0.6,3.4-0.2,6.5-0.4l0,0.5c8,0.3,2.1-1,9.3-0.6l-3,0.7l3.7-0.2l-0.8,0.5c4.1-0.4,5.3-0.3,9.3-0.1c-0.9-0.3,0.5-0.9,4-0.9
							c2.4,0.3-1.3,0.5,3.6,0.4c-1.1,0.3-2.4,0.7-4.5,0.2c-0.2,0.2-1.1,0.3-1.3,0.5c2.6,0.3,6.5,0.1,8.3,0.1c-0.7,0-1.5,0-2-0.1
							l7.2-0.7c1.1,0.2,0.2,0.3-0.7,0.5c1.5-0.1,2.5-0.3,4.6-0.3c-0.6,0.4-0.4,0.8-3.5,1l6.9-0.4c0.5,0.2,3.5,0.5,2.6,0.6
							c3.8,0.2,9.4-0.8,14.5-0.5c0.3-0.1,0.8-0.1,1.9-0.2c4.8,0.1,9,0.6,14.6,0l3.2,0.7c4.4-0.2-4.3-0.9,3-1.2
							c5.2-0.2,1.9,0.6,3.8,0.8c2.6-0.4,7.1-1.1,11.9-0.5C398.2,53.8,397,53.7,395.5,53.8z M450.1,53.5c-1.1,0.1-3.2,0.4-3.9,0.1
							C447.3,53,448.3,53.3,450.1,53.5z M533,52.3c-0.8,0.2-2,0.1-3.4-0.1C530.6,52.2,531.8,52.2,533,52.3z M764,48.9
							c0,0-0.1,0-0.1,0C761.6,48.8,762.4,48.9,764,48.9z M768.9,49.2c0.5-0.1,0.5-0.1,0.3-0.2c-0.3,0.1-1.4,0.1-2.7,0.1
							C766.8,49.2,767.5,49.3,768.9,49.2z M243.1,49.3l1,0.1C241.9,49.6,242.5,49.5,243.1,49.3z"/>
						<path d="M523.6,53c-0.3-0.1-0.4-0.2-0.5-0.3C522.7,52.8,522.7,52.9,523.6,53z"/>
						<path d="M361.6,54c-0.1,0-0.1,0-0.2,0c-0.1,0-0.1,0.1-0.2,0.1L361.6,54z"/>
						<path d="M693.1,53.2c-1-0.1-1.6-0.2-1.9-0.2C691.1,53.1,691.6,53.2,693.1,53.2z"/>
						<path d="M794.9,48.3l-3.1,0.1c1.5,0,2.1,0.1,2.8,0.2C794.5,48.5,793.9,48.3,794.9,48.3z"/>
						<path d="M822.1,51.3c0.5-0.1,1,0,1.4-0.1l-0.1-0.2C821.5,51,820.1,51.2,822.1,51.3z"/>
						<path d="M797.8,49.9c0.2,0.4,2.2,0.3,4.4,0.2c-0.1,0-0.3,0-0.4,0C802.5,49.6,800.1,49.7,797.8,49.9z"/>
						<path d="M802.7,50.1c0.7,0,1.4,0,2,0C805,49.9,803.9,50.1,802.7,50.1z"/>
						<path d="M775.2,48.9c1,0.1,0.7-0.5,1.2-0.4C777.6,48,769.5,49.2,775.2,48.9z"/>
						<polygon points="799.6,51.3 798.8,50.8 797.6,51.2 						"/>
						<path d="M782.2,50.9l3.5,0.1c-0.1-0.1,0.4-0.1,0.9-0.2C784.5,50.9,782.1,50.8,782.2,50.9z"/>
						<path d="M786.7,50.9c1.1,0,2.2,0,2.8-0.1C788.9,50.8,787.6,50.8,786.7,50.9z"/>
						<polygon points="794.8,51.4 793.7,51.3 791.3,51.3 						"/>
						<path d="M744.5,50.8l-3.8,0.1c-0.4,0.2,0.7,0.3,2.1,0.2C743.7,51,745.1,51,744.5,50.8z"/>
						<path d="M756.1,52.2c-1-0.1-1.1-0.2-1.7-0.4l-0.1,0.6L756.1,52.2z"/>
						<path d="M744.9,52.3c-0.4,0.2-5.6,0.5-0.7,0.5C744.6,52.6,748.4,52.5,744.9,52.3z"/>
						<polygon points="687.2,51.5 688.1,51.5 688,50.5 						"/>
						<path d="M636.3,54c4.5,0.2,1.1-0.6,5.2-0.3c1.1-0.2-3.4-0.2-2.3-0.5C636.5,53.4,635,53.3,636.3,54z"/>
						<path d="M639.2,53.2c0.4,0,0.9-0.1,1.4-0.2C639.8,53.1,639.4,53.2,639.2,53.2z"/>
						<polygon points="64.8,48.8 61.9,48.6 63.8,49 						"/>
						<path d="M59.2,49.6l-0.7-0.6l-1.8,0.6C57.4,49.5,58.7,49.4,59.2,49.6z"/>
						<path d="M458.2,54.8l0.2-0.2c-0.5-0.2-1.1-0.2-2.5-0.2L458.2,54.8z"/>
						<polygon points="418.6,54.3 419.3,54.3 418,53.7 						"/>
						<path d="M385.4,55c1.4,0,3-0.1,4.3-0.1C386.7,55.1,385,54.3,385.4,55z"/>
					</g>
				</g>
			</g>
		</g>
	</g>
	<g>
		<g>
			<g>
				<g>
					<path d="M943.2,48.7L943.2,48.7C943.2,48.7,943.2,48.7,943.2,48.7z"/>
					<polygon points="942.6,48.7 942.6,48.7 942.5,48.7 					"/>
					<path d="M942,48.7c0.1,0,0.2,0,0.3,0l0,0l0,0C942.3,48.7,942.1,48.7,942,48.7z"/>
					<path d="M941.7,48.5C941.8,48.6,941.7,48.5,941.7,48.5C941.8,48.6,941.8,48.6,941.7,48.5C941.8,48.5,941.8,48.5,941.7,48.5z"/>
					<path d="M941.8,48.6C941.9,48.6,941.8,48.5,941.8,48.6L941.8,48.6z"/>
					<path d="M941.5,48.5L941.5,48.5C941.6,48.5,941.5,48.5,941.5,48.5C941.5,48.5,941.5,48.5,941.5,48.5z"/>
					<path d="M941.4,48.6L941.4,48.6C941.5,48.5,941.5,48.5,941.4,48.6z"/>
					<path d="M941.6,48.5L941.6,48.5C941.5,48.6,941.5,48.6,941.6,48.5C941.5,48.6,941.5,48.6,941.6,48.5z"/>
					<path d="M941.6,48.6C941.7,48.6,941.7,48.6,941.6,48.6C941.8,48.6,941.8,48.6,941.6,48.6z"/>
					<path d="M942,48.7L942,48.7l0.1,0C942.1,48.7,942,48.7,942,48.7z"/>
					<path d="M941,48.4C941,48.5,941.1,48.5,941,48.4L941,48.4C941.1,48.5,941,48.5,941,48.4z"/>
					<path d="M941.1,48.5L941.1,48.5C941.1,48.5,941.1,48.5,941.1,48.5z"/>
					<polygon points="941.4,48.6 941.6,48.6 941.4,48.6 					"/>
					<polygon points="940.7,48.4 940.8,48.4 940.7,48.4 					"/>
					<path d="M940.5,48.4C940.5,48.3,940.4,48.3,940.5,48.4c-0.1-0.1-0.1-0.1-0.2,0C940.4,48.3,940.4,48.3,940.5,48.4z"/>
					<path d="M940.2,48.4C940.3,48.4,940.3,48.3,940.2,48.4C940.3,48.3,940.3,48.3,940.2,48.4z"/>
					<path d="M940.8,48.5C940.8,48.5,940.8,48.5,940.8,48.5L940.8,48.5L940.8,48.5z"/>
					<path d="M940.8,48.5L940.8,48.5C940.8,48.5,940.7,48.5,940.8,48.5C940.7,48.5,940.8,48.5,940.8,48.5z"/>
					<path d="M940.8,48.5L940.8,48.5C940.8,48.5,940.8,48.5,940.8,48.5z"/>
					<path d="M941.2,48.6C941.2,48.6,941.1,48.6,941.2,48.6C941.2,48.6,941.1,48.6,941.2,48.6z"/>
					<path d="M940.9,48.5L940.9,48.5C941,48.6,941,48.5,940.9,48.5L940.9,48.5z"/>
					<polygon points="940.8,48.6 940.9,48.5 940.9,48.5 					"/>
					<path d="M940.4,48.4c0,0-0.1,0-0.1,0C940.3,48.5,940.4,48.5,940.4,48.4C940.4,48.5,940.5,48.4,940.4,48.4z"/>
					<path d="M940.6,48.5L940.6,48.5C940.6,48.5,940.6,48.5,940.6,48.5z"/>
					<polygon points="939.8,48.4 939.8,48.4 939.8,48.4 					"/>
					<path d="M940.4,48.5C940.5,48.5,940.5,48.5,940.4,48.5C940.5,48.5,940.5,48.5,940.4,48.5C940.4,48.5,940.4,48.5,940.4,48.5z"/>
					<path d="M940.1,48.4C940.1,48.4,940.2,48.4,940.1,48.4C940.2,48.4,940.1,48.4,940.1,48.4z"/>
					<path d="M940.6,48.4L940.6,48.4C940.6,48.4,940.6,48.4,940.6,48.4z"/>
					<path d="M940.6,48.4C940.6,48.5,940.5,48.5,940.6,48.4C940.5,48.5,940.6,48.5,940.6,48.4C940.6,48.5,940.6,48.5,940.6,48.4z"/>
					<path d="M939.6,48.8c0-0.1,0.1-0.1,0.2,0c0.1,0,0-0.2,0-0.3c0,0,0,0-0.1,0.1c0,0,0.2,0.1,0.1,0.1c-0.1,0-0.1,0-0.2-0.1
						C939.7,48.6,939.5,48.6,939.6,48.8L939.6,48.8C939.7,48.7,939.6,48.8,939.6,48.8z"/>
					<path d="M940,48.4L940,48.4C940,48.4,939.9,48.4,940,48.4c-0.2-0.1-0.2,0-0.2,0L940,48.4L940,48.4z"/>
					<path d="M940.2,48.4c0,0.1-0.1,0.1-0.1,0.1C940.2,48.6,940.2,48.5,940.2,48.4C940.1,48.5,940.3,48.5,940.2,48.4
						C940.2,48.4,940.2,48.4,940.2,48.4C940.2,48.4,940.2,48.4,940.2,48.4L940.2,48.4L940.2,48.4L940.2,48.4
						C940.2,48.4,940.2,48.4,940.2,48.4L940.2,48.4L940.2,48.4C940.1,48.4,940.2,48.4,940.2,48.4L940.2,48.4L940.2,48.4l-0.2,0
						C940,48.4,940.1,48.4,940.2,48.4z"/>
					<path d="M941.1,48.7C941.1,48.7,941.1,48.7,941.1,48.7C941,48.7,941,48.7,941.1,48.7z"/>
					<path d="M941,48.7C941,48.7,941,48.7,941,48.7C941.1,48.7,941.1,48.7,941,48.7C941.1,48.7,941.1,48.7,941,48.7L941,48.7
						c0,0-0.1-0.1-0.1-0.1C940.9,48.6,940.9,48.7,941,48.7z"/>
					<path d="M940.6,48.6l-0.1,0L940.6,48.6L940.6,48.6C940.6,48.6,940.6,48.6,940.6,48.6z"/>
					<polygon points="939.8,48.4 939.8,48.3 939.7,48.4 					"/>
					<polygon points="939.6,48.4 939.6,48.3 939.5,48.3 					"/>
					<path d="M928.8,50.1L928.8,50.1C928.8,50.2,928.8,50.1,928.8,50.1z"/>
					<path d="M929.2,50.1l0-0.1C929.1,50.1,929.1,50.1,929.2,50.1z"/>
					<path d="M934.9,47.9c-0.1-0.1-0.1-0.3-0.1-0.2l0,0.2C934.8,47.8,934.9,47.8,934.9,47.9z"/>
					<path d="M931.7,48.8L931.7,48.8c0,0,0-0.1,0.1-0.1C931.7,48.7,931.7,48.7,931.7,48.8z"/>
					<path d="M931.7,49.6l-0.1-0.1C931.6,49.5,931.6,49.6,931.7,49.6z"/>
					<path d="M927.1,50.6l-0.1,0.3C927.2,50.9,927.1,50.7,927.1,50.6z"/>
					<path d="M937.6,48.2c-0.1,0-0.1-0.1-0.1-0.1C937.6,48.2,937.6,48.3,937.6,48.2z"/>
					<path d="M929,47.4c0,0,0,0.1,0,0.2C929,47.5,929,47.5,929,47.4z"/>
					<path d="M937.3,48.1C937.4,48.1,937.4,48.1,937.3,48.1c0.1,0,0.1,0,0.2,0C937.5,48.1,937.4,48,937.3,48.1z"/>
					<path d="M921,51C921,51,921,50.9,921,51C920.9,51,921,51,921,51z"/>
					<path d="M919.2,46.9C919.2,46.8,919.2,46.8,919.2,46.9C919.2,46.8,919.2,46.8,919.2,46.9z"/>
					<path d="M938.8,48.2C938.9,48.2,938.8,48.2,938.8,48.2L938.8,48.2z"/>
					<path d="M939,48.6C939,48.6,939,48.6,939,48.6C939,48.6,939,48.6,939,48.6z"/>
					<path d="M936.9,48.7L936.9,48.7C937,48.8,936.9,48.8,936.9,48.7z"/>
					<path d="M938.9,48.3C938.9,48.3,938.8,48.3,938.9,48.3C938.8,48.3,938.9,48.3,938.9,48.3z"/>
					<path d="M938.9,48.2C938.9,48.2,938.9,48.3,938.9,48.2C938.9,48.2,938.9,48.2,938.9,48.2z"/>
					<path d="M938.8,48.2C938.8,48.2,938.8,48.2,938.8,48.2C938.8,48.2,938.8,48.2,938.8,48.2C938.8,48.2,938.8,48.2,938.8,48.2z"/>
					<path d="M924.3,49.7C924.3,49.7,924.3,49.7,924.3,49.7C924.2,49.8,924.2,49.8,924.3,49.7z"/>
					<polygon points="933.9,49.5 933.9,49.5 933.9,49.5 					"/>
					<path d="M933.7,49.6c0.1-0.2,0.1-0.2,0.1-0.2l0-0.5L933.7,49.6z"/>
					<path d="M928.1,50.3l0.1,0.2c-0.1,0.4-0.2,0.3-0.1,0.6c0-0.8,0.4-0.1,0.4-1l0.1,0.2c0,0,0,0,0,0c0.1,0.4,0.1-0.6,0.3-0.5
						c0.1,0.1,0.1,0.2,0.1,0.3l0.1-0.2c0,0,0,0.1,0,0.1l0.2-0.1l0,0c0-0.1,0.1-0.3,0.1-0.4c0.1,0.1,0,0.1,0,0.2l0.1-0.2
						c0,0.2,0,0.4-0.1,0.4c0.1,0.8,0.1-0.2,0.3,0.2l-0.1,0.1c0.1,0.4,0.1,0.3,0.3,0.5c0-0.1-0.2-0.6-0.1-0.8c0,0.1,0.1,0.1,0.1-0.1
						c0,0.3,0.1,0.2,0.1,0.2l0,0.3c0.1-0.1,0.1-0.3,0.1-0.4c0.1,0,0.1,0.3,0.1,0.5c0.2,0-0.1-0.4,0.1-0.5c0.1,0.1,0.2,0,0.4-0.2
						c0.1,0.1,0,0.2,0,0.3l0.1-0.3c0,0,0,0.1,0,0.1c0.1-0.1,0-0.3,0.1-0.4c0-0.4,0.2,0.5,0.3,0.1c0,0.1,0,0.2,0,0.3
						c0.2-0.3,0.2-0.2,0.3-0.5l0.1,0.2c-0.1-0.2,0-0.5,0.1-0.7c0-0.1-0.1-0.2-0.1-0.3l0.2-0.2c0,0,0,0.2,0,0.3l0-0.1
						c0.1,0.1,0,0.3,0,0.4c0-0.1,0-0.1-0.1-0.2c0,0.2-0.1,0.4-0.1,0.6c0,0,0-0.1,0.1-0.1c0,0,0,0.1,0,0.1c0,0,0,0,0-0.1l0,0.3l0-0.1
						l0.2,0.2c0.2-0.3,0.3-0.8,0.5-0.9c-0.1,0.2,0,0.4,0,0.6c-0.1-0.3-0.2,0.1-0.3,0.1c0.1,0,0.1,0.2,0,0.2l0.2-0.3
						c0,0.2,0,0.2,0.1,0.2c0-0.4,0.2-0.3,0.3-0.4c0,0.1,0,0.3-0.1,0.3c0.1,0.3,0.2-0.5,0.3-0.2c0,0,0,0-0.1,0.1
						c0.1-0.1,0.2,0,0.2,0.1l0,0c0.2,0,0.5,0,0.6-0.4c0,0,0,0.4,0,0.5l0.3-1.1c0,0.3,0.1,0.9-0.1,1.1c0,0,0.1,0.1,0.2,0
						c0,0-0.1-0.4,0-0.4c0.1,0.3,0.1,0.2,0.2,0.4c0-0.1,0-0.5,0.1-0.5c0,0.1,0,0.4,0,0.5l0.2-0.4c0,0.1,0,0.3,0,0.5
						c0-0.1,0.1,0,0.2,0l-0.1-0.1c0.2,0,0.2-0.6,0.4-0.5c0,0.1-0.1,0.5,0,0.5c0-0.2,0.2-0.9,0.4-1l0,0.1l0.1-0.1
						c-0.1,0.3-0.3,0.8-0.4,1.1c0.1,0.1,0,0.1,0.1,0.1c0,0.1-0.1,0.2-0.1,0.2l0.3,0c0-0.2,0.2-0.2,0.2-0.4l-0.3,0.2
						c0-0.2,0.2-0.6,0.3-0.6c0,0.1,0,0.4,0,0.4c0-0.1,0.2-0.1,0.2-0.1l-0.1,0.1c0.1,0.1,0.2-0.3,0.3-0.1c0,0,0.1,0.2,0.1,0.1
						c-0.1-0.2-0.1-0.9,0-1.1c0,0,0.2,0.2,0.3,0.3c0.1,0.2-0.1,0.4,0,0.5c0-0.1,0-0.1,0.1-0.1c0,0,0,0.2,0.1,0.1c0-0.2,0.2,0,0-0.2
						c0.1-0.1,0.1,0,0.2,0c0-0.1,0.1-0.4,0.2-0.4c0,0,0,0.1,0,0.1c0.2,0,0.3,0.1,0.5,0.1c0,0,0.1,0.1,0.1,0.2c0,0,0-0.1,0.1-0.1
						c0.1,0.1-0.1,0,0,0.2c0-0.1,0.1-0.1,0.2-0.2c0-0.1-0.2,0-0.3,0c0-0.2,0.1-0.4,0.3-0.5c0.1,0,0.1,0.1,0.1,0.1
						c0.3,0,0.2-0.3,0.5-0.2c0.1,0.1,0,0.2,0,0.3c-0.1,0-0.2-0.1-0.3-0.1l0.1,0.1c0,0-0.1,0.1-0.2,0c0.1,0.1,0.5,0,0.7,0.1
						c0,0,0.1-0.1,0.1-0.1l-0.1,0c-0.1-0.1,0.1-0.1,0-0.1c0.1-0.1,0.2-0.1,0.3-0.1l0,0.1c0,0-0.1-0.1-0.1,0c0.1,0,0.2,0.1,0.3,0
						l-0.1-0.1c0.1,0,0.2-0.1,0.3-0.1c-0.1-0.1,0,0-0.1-0.1c0.1,0.1-0.3,0-0.2,0.1c-0.1-0.1-0.1-0.1-0.2-0.2c0,0,0,0.1-0.1,0
						c0,0,0,0,0,0l0,0l0,0c0,0,0,0,0,0c0,0,0,0,0,0.1c0,0.1-0.2,0.1-0.2,0.1c-0.1,0,0,0,0-0.1l-0.1,0.1c0-0.1-0.1-0.2,0-0.2l-0.1,0
						c-0.1-0.1-0.2-0.1-0.2-0.1c-0.1,0-0.1,0.1-0.1,0l-0.2,0l0,0c-0.2,0-0.4,0.1-0.6-0.1c-0.1,0-0.1,0-0.2,0l0-0.1
						c-0.1,0-0.2-0.1-0.3,0c-0.1-0.3-0.4-0.1-0.5-0.2l0,0.1c-0.1,0-0.2,0-0.3,0.1l0,0.1c-0.1,0.1-0.3-0.1-0.4-0.1c0-0.1,0.1,0,0.1,0
						c-0.2-0.3-0.4,0.2-0.6-0.1c0,0.1-0.1,0-0.1,0c0,0,0,0,0,0l0,0c0,0,0-0.1-0.1-0.1c0,0,0,0.1,0.1,0.1c0,0-0.1,0-0.1,0l0-0.2
						c0,0,0,0,0,0c0-0.1,0,0.1,0,0.2c0,0,0,0.1-0.1,0.1c0-0.3-0.1,0.1-0.2-0.2c0,0.1-0.3,0.1-0.3,0.4c0,0,0-0.1,0-0.1
						c-0.1,0-0.1-0.1-0.2,0l0-0.2l-0.1,0.3c-0.1-0.1-0.1-0.2,0-0.4c-0.2,0.3-0.1,0.1-0.3,0.4l0-0.2c-0.1,0-0.1,0.2-0.2,0.1
						c-0.1-0.3-0.6-0.1-0.9-0.4c0.1,0.5-0.1-0.2-0.2,0.2c0-0.1-0.1-0.2,0-0.3c-0.2,0.1-0.2-0.2-0.3,0.1c0-0.1,0-0.2,0-0.3
						c0,0-0.1,0.1-0.1,0c0-0.1,0-0.1,0-0.2c-0.2,0-0.2,0.4-0.2,0.8c-0.1-0.2-0.1-0.2-0.2,0.1c0-0.1-0.1-0.3,0-0.3
						c-0.1,0-0.3-0.2-0.4,0.1c0-0.1-0.1,0-0.1,0c-0.1,0-0.1-0.1-0.3,0l0,0.1c0,0.4-0.1,0.1-0.2,0.1l0,0c-0.2-0.3-0.1,0.1-0.3-0.2
						l0,0.2c0,0.5-0.2-0.3-0.3-0.1l0,0.1c-0.1,0.2-0.2-0.8-0.3-0.8c0-0.1,0-0.1,0-0.1c-0.2-0.4,0,0.3-0.2,0.4c0-0.2,0-0.5-0.1-0.5
						c0-0.2-0.3,0.6-0.4,0.2c0,0.2,0.1,0.3,0,0.4c-0.1,0-0.3-0.6-0.4-0.1c0,0,0-0.1,0-0.1c-0.1,0.1-0.3,0.2-0.3,0.5
						c-0.1-1-0.5,0.5-0.5-0.5l-0.2,0l0-0.1c-0.2-0.1-0.2,0.1-0.3,0.4c0-0.1,0-0.2,0-0.2c-0.2-0.2-0.2-0.2-0.4,0.3l0-0.3
						c-0.1,0.2-0.3-0.5-0.5-0.2c0,0,0-0.1,0-0.1c-0.2,0.4-0.6-1-0.7,0.2l-0.2,0.3c0.2,0.1,0,0.6,0.1,0.8c-0.1,0.1-0.2-0.4-0.1-0.5
						l0,0.1c0-0.7-0.3-0.2-0.3-0.7c-0.4,0-0.8-0.4-1.2-0.5l0,0.6l-0.1,0c0-0.1,0-0.4,0-0.4c-0.1-0.3-0.2,0.3-0.2,0.4
						c-0.2-0.2,0.1-0.7,0-0.7l-0.1,0l0,0.1c-0.1,0.2-0.1,0.5-0.2,0.4c-0.1-0.1,0-0.4-0.1-0.4c0,0,0-0.1,0,0l-0.2-0.1l0.1,0.5
						c-0.1,0.2-0.2,0-0.1,0.5c-0.1-0.8-0.6-0.3-0.7-0.6c-0.1,0.3-0.2,0.3-0.3,0.3c0,0.1,0.1,0.6-0.1,0.6c0-1.1-0.2-0.5-0.3-1.3
						c0.1,0.6-0.3,0.1-0.2,0.9c-0.1-0.1,0-0.4-0.1-0.7c-0.2,0.4-0.5-0.3-0.8-0.2c0,0.2,0,0.4,0,0.6l-0.1-0.8c-0.1,0.1,0,0.9-0.1,0.4
						c0,0.1,0,0.3,0,0.4c-0.5-0.8-1.1,0.6-1.6-1c0.1,0.3,0,0.4,0,0.4c0,0.1,0,0.4,0,0.7l-0.2-0.7c0,0.6-0.2,0-0.3,0.7l0.1-0.1
						c-0.1,0.7,0.1,1.6,0.1,2.6c0.1-0.8,0.3,1.2,0.5,0c0,0.2,0,0.3,0,0.5c0-0.4,0.1-0.5,0.2-0.3l0,0.1c0.3-0.1,0.4,0.3,0.7,0.5
						l0-0.4c0.1,0.1,0.1,0.2,0.1,0.3c0.1-0.7-0.2,0-0.1-0.8c0.1,0.9,0.5,0,0.5,1c0.1,0,0-0.5,0.1-0.5l0,0.3l0-0.3
						c0.1,0.1,0.1,0.4,0.1,0.6c0,0,0,0.1-0.1,0.1c0.1,0.3,0.2-0.1,0.3,0l-0.1-0.2c0.3-0.3,0.6,0,0.9-0.5l0-0.2
						c0.2-0.4,0.2,0.2,0.4,0l0,0c0-0.2,0.1-0.3,0.2-0.3c-0.1,0.2,0.1,0.4,0,0.7c0.2-0.4,0.1-0.3,0.3-1l0,0.3
						c0.1-0.3,0.1-0.4,0.2-0.5c-0.1,0.3,0.1,0.5,0,0.8c0.2,0.6,0.4-0.7,0.5,0.3c0.1-0.8-0.2-0.4-0.1-0.6c-0.1-0.3,0.1-0.6,0.2-0.5
						c0.1,0,0.1,1,0.3,1c0,0,0,0.1,0,0.1c0.1,0.2,0.1-0.3,0.2,0c0-0.5,0.1,0,0.1-0.6l-0.2,0.2c0.1-0.2,0.2-0.9,0.4-0.5
						c0,0.1-0.1,0.3-0.1,0.4c0,0.2,0.1-0.1,0.1,0.1c0,0.6-0.2,0.1-0.3,0.6c0.1,0.3,0.2-0.5,0.1,0.2c0.1-0.8,0.2,0.1,0.3-0.6l0,0.4
						c0-0.1,0.1-0.2,0.1-0.2l-0.1,0.5c0.1-0.4,0.2,0.3,0.3,0.1c-0.2,0,0-0.4-0.1-0.7c0.3-0.5,0.2,0.9,0.4,0.7c0,0.1-0.1-0.2-0.1-0.4
						c0.1,0.1,0.1,0.2,0.2,0.4c0.2-0.1,0-0.4,0.1-0.6c0.1,0.4,0.1-0.2,0.2-0.3l0,0.3c0.2,0.2,0.1-0.7,0.3-0.5l-0.1,0.5l0.1-0.1
						l0,0.4c0.1-0.3,0.1-0.2,0.3-0.1c0-0.2,0-0.6,0.1-0.6c0.1,0.2,0,0.3,0.1,0.3c0,0.2-0.1,0.5-0.1,0.2c0,0.1,0,0.2,0,0.3
						c0.1,0.2,0.2,0,0.2,0c0,0,0,0-0.1-0.1l0.2-0.5c0,0.1,0,0.2,0,0.3c0,0,0.1-0.2,0.1-0.2c0,0.3,0,0.5-0.1,0.7l0.2-0.3
						c0,0.1,0.1,0.3,0.1,0.4c0.1,0.1,0.3-0.5,0.4-0.4c0-0.1,0-0.1,0.1-0.1c0.1,0,0.3,0.3,0.4,0l0.1,0.4c0.1-0.1-0.1-0.5,0.1-0.7
						c0.1-0.2,0.1,0.4,0.1,0.5c0.1-0.2,0.2-0.7,0.3-0.3C928.2,50.3,928.1,50.2,928.1,50.3z M929.6,49.9c0,0.1-0.1,0.2-0.1,0.1
						C929.5,49.7,929.6,49.9,929.6,49.9z M931.9,49.2C931.9,49.3,931.9,49.2,931.9,49.2C931.9,49.1,931.9,49.1,931.9,49.2z
						 M938.4,48.3L938.4,48.3C938.3,48.2,938.3,48.2,938.4,48.3z M938.5,48.3C938.5,48.3,938.5,48.3,938.5,48.3
						C938.5,48.3,938.5,48.3,938.5,48.3C938.5,48.3,938.5,48.3,938.5,48.3z M923.8,47.2l0,0.1C923.8,47.4,923.8,47.3,923.8,47.2z"/>
					<path d="M931.7,49.5c0,0,0-0.1,0-0.1C931.6,49.4,931.6,49.5,931.7,49.5z"/>
					<polygon points="927.1,50.5 927.1,50.5 927.1,50.6 					"/>
					<path d="M936.4,49.3C936.4,49.3,936.4,49.2,936.4,49.3C936.3,49.2,936.4,49.3,936.4,49.3z"/>
					<path d="M939.2,48.2L939.2,48.2C939.2,48.3,939.2,48.3,939.2,48.2C939.2,48.3,939.2,48.2,939.2,48.2z"/>
					<path d="M940,48.7C940,48.7,940,48.7,940,48.7L940,48.7C940,48.7,939.9,48.7,940,48.7z"/>
					<path d="M939.3,48.5c0,0.1,0.1,0,0.1,0c0,0,0,0,0,0C939.5,48.5,939.4,48.5,939.3,48.5z"/>
					<path d="M939.5,48.5C939.5,48.5,939.5,48.5,939.5,48.5C939.5,48.5,939.5,48.5,939.5,48.5z"/>
					<path d="M938.7,48.3C938.7,48.3,938.7,48.2,938.7,48.3C938.8,48.1,938.5,48.3,938.7,48.3z"/>
					<polygon points="939.4,48.7 939.3,48.6 939.3,48.7 					"/>
					<path d="M938.9,48.7L938.9,48.7c0.1,0,0.1,0,0.1,0C938.9,48.7,938.9,48.6,938.9,48.7z"/>
					<path d="M939,48.7C939,48.7,939.1,48.7,939,48.7C939.1,48.6,939,48.6,939,48.7z"/>
					<polygon points="939.2,48.7 939.2,48.7 939.1,48.7 					"/>
					<path d="M937.8,48.6l-0.1,0C937.7,48.7,937.7,48.7,937.8,48.6C937.8,48.7,937.8,48.7,937.8,48.6z"/>
					<path d="M938.2,48.9C938.1,48.9,938.1,48.9,938.2,48.9L938.2,48.9L938.2,48.9z"/>
					<path d="M937.8,49c0,0-0.2,0.1,0,0.1C937.8,49,937.9,49,937.8,49z"/>
					<polygon points="936.2,48.8 936.3,48.8 936.3,48.5 					"/>
					<path d="M934.8,49.6c0.1,0.1,0-0.2,0.1-0.1c0-0.1-0.1-0.1-0.1-0.1C934.8,49.5,934.8,49.4,934.8,49.6z"/>
					<path d="M934.9,49.4C934.9,49.4,934.9,49.3,934.9,49.4C934.9,49.3,934.9,49.4,934.9,49.4z"/>
					<polygon points="918.9,46.3 918.8,46.1 918.8,46.4 					"/>
					<path d="M918.7,47l0-0.6L918.7,47C918.7,46.9,918.7,46.9,918.7,47z"/>
					<path d="M929.8,50.6L929.8,50.6c0-0.2,0-0.2-0.1-0.2L929.8,50.6z"/>
					<polygon points="928.7,50.5 928.8,50.5 928.7,50.2 					"/>
					<path d="M927.8,51.1c0,0,0.1-0.1,0.1-0.1C927.8,51.1,927.8,50.6,927.8,51.1z"/>
				</g>
			</g>
		</g>
	</g>
</g>
</svg>
