<?xml version="1.0" encoding="utf-8"?>
<!-- Generator: Adobe Illustrator 25.4.1, SVG Export Plug-In . SVG Version: 6.00 Build 0)  -->
<svg version="1.1" id="Capa_1" xmlns="http://www.w3.org/2000/svg" xmlns:xlink="http://www.w3.org/1999/xlink" x="0px" y="0px"
	 viewBox="0 0 500 500" style="enable-background:new 0 0 500 500;" xml:space="preserve">
<style type="text/css">
	.st0{stroke:#000000;stroke-width:12;stroke-linecap:round;stroke-miterlimit:1;}
</style>
<g>
	<g>
		<g>
			<path d="M106.3,490.3c-0.9,0-1.7,0-2.6-0.1l-1-0.1c-29.2-6.2-44.9-29.5-46.7-69.5C49.4,365.5,39.1,291,30,225.2
				C18.5,142.4,8.6,70.9,8.1,52.7c-0.3-10.4,3.6-20,11.2-27.8C29.6,14.3,45.9,8,62.9,8c2.5,0,4.9,0.1,7.3,0.4l1.1,0.2
				C89.5,14.3,103,26.3,116,37.9c3.7,3.3,7.4,6.6,11.2,9.7c53.5,44.1,107.9,89.1,160.4,132.6c33.9,28.1,69,57.2,103.5,85.7
				c15,12.6,22.5,31.1,20.5,50.9l-0.3,1.5c-7.1,19.1-19.6,41.1-53.2,42.3c-104.9,5.6-148.9,51.1-184.2,87.7
				C152.2,470.9,133.5,490.3,106.3,490.3z M56.5,86.6c8.2,59.8,16.3,120.7,24.2,179.5c7.5,56.1,15.2,114.1,23,171.1
				c0.5,3.6,1.4,6.4,8.1,8c81.9-102.5,174-118.7,223.7-127.5c9.7-1.7,18-3.2,23.8-4.9c6.5-2,7.1-3.5,7.1-3.5c0,0,0.6-2.4-6.1-10.2
				c-102.8-85-198.3-164.2-292-242c-3-2.5-5.4-3.7-7.4-3.7c-1.2,0-2.4,0.4-3.8,1.3c-5,3.1-4.5,8.2-2.4,19
				C55.7,78,56.5,82.4,56.5,86.6z"/>
			<path d="M62.9,14c2.2,0,4.4,0.1,6.6,0.4c22,6.9,37,23.9,53.9,37.9c88.1,72.6,175.9,145.6,263.9,218.3
				c13.7,11.5,20.1,28.2,18.4,45.6c-8.7,23.3-21.6,37.5-47.8,38.4c-174.3,9.2-187.5,129.7-251.7,129.7c-0.8,0-1.6,0-2.4-0.1
				c-31.8-6.7-40.7-34.9-42-64.1C47.4,297.5,15,85,14.1,52.6C13.5,28.7,38.6,14,62.9,14 M114.3,451.8
				c133.3-169.9,296.1-104.1,250.3-157c-97.5-80.7-195-161.5-292.4-242.3c-3.6-3-7.3-5.1-11.2-5.1c-2.2,0-4.6,0.7-7,2.2
				c-12.8,8.1-3.1,25.1-3.5,37.3C66.6,204,81.7,321,97.8,438C98.9,446.4,103.7,450.2,114.3,451.8 M62.9,2L62.9,2
				C44.3,2,26.4,9,15,20.7c-8.7,9-13.2,20.1-12.9,32.1C2.6,71.4,12.5,143,24,226c9.1,65.6,19.4,140,25.9,195.1
				c0.9,18.6,4.5,33.4,11,45.3c8.7,15.8,22.3,25.8,40.5,29.6l1.9,0.2c1,0,1.9,0.1,2.9,0.1c29.7,0,49.3-20.3,72-43.8
				c34.6-35.8,77.6-80.5,180.2-85.9c15.4-0.6,27.8-5.1,37.8-13.7c8.7-7.5,15.2-17.8,20.7-32.5l0.7-3c2.2-21.7-6.1-42.2-22.6-56
				l-0.1-0.1c-34.5-28.5-69.6-57.6-103.5-85.7C238.9,132.1,184.6,87.1,131.1,43c-3.7-3-7.3-6.2-11.1-9.6C106.5,21.4,92.6,9,73.1,2.9
				l-2.2-0.5C68.3,2.1,65.6,2,62.9,2L62.9,2z M62.5,86.2c0-4.7-0.9-9.3-1.8-13.7c-0.8-3.9-1.6-8-1.4-10.7c0.1-1.4,0.4-1.6,1.1-2l0,0
				c0.3-0.2,0.5-0.3,0.6-0.3c0.3,0.1,1.4,0.5,3.5,2.3c93.4,77.5,188.8,156.5,291.7,241.7c1.1,1.4,2,2.5,2.6,3.4
				c-5.5,1.8-15.7,3.6-24.3,5.1c-24.5,4.3-61.5,10.8-102.2,29.5c-22.4,10.3-43.7,23.3-63.4,38.6c-21,16.3-40.8,35.8-58.9,58
				c-0.1-0.2-0.2-0.7-0.3-1.5l0-0.1c-7.8-57-15.6-115-23-171.1C78.8,206.6,70.7,145.9,62.5,86.2L62.5,86.2z"/>
		</g>
	</g>
	<polygon class="st0" points="100,456 51,37 372.7,308.8 	"/>
</g>
</svg>
