<?xml version="1.0" encoding="utf-8"?>
<!-- Generator: Adobe Illustrator 25.4.1, SVG Export Plug-In . SVG Version: 6.00 Build 0)  -->
<svg version="1.1" id="Capa_1" xmlns="http://www.w3.org/2000/svg" xmlns:xlink="http://www.w3.org/1999/xlink" x="0px" y="0px"
	 viewBox="0 0 256 256" style="enable-background:new 0 0 256 256;" xml:space="preserve">
<style type="text/css">
	.st0{fill-rule:evenodd;clip-rule:evenodd;fill:#FFFFFF;}
	.st1{fill:#DF0000;}
</style>
<g transform="translate(-373.642 -318.344)">
	<path class="st0" d="M584.2,328.3h-165c-19.6,0-35.5,15.9-35.5,35.5v165c0,19.6,15.9,35.5,35.5,35.5h165
		c19.6,0,35.5-15.9,35.5-35.5v-165C619.6,344.2,603.8,328.3,584.2,328.3z"/>
	<path class="st1" d="M544.5,538.5h-38.1v-92.9h-19v-32h19v-19.2c0-26.1,10.7-41.7,41.3-41.7h25.4v32h-15.9
		c-11.9,0-12.7,4.5-12.7,12.8v16h28.8l-3.4,32h-25.4L544.5,538.5L544.5,538.5z"/>
</g>
</svg>
