<?xml version="1.0" encoding="utf-8"?>
<!-- Generator: Adobe Illustrator 25.4.1, SVG Export Plug-In . SVG Version: 6.00 Build 0)  -->
<svg version="1.1" id="Layer_1" xmlns="http://www.w3.org/2000/svg" xmlns:xlink="http://www.w3.org/1999/xlink" x="0px" y="0px"
	 viewBox="0 0 132 132" style="enable-background:new 0 0 132 132;" xml:space="preserve">
<style type="text/css">
	.st0{fill:#FFFFFF;}
	.st1{fill:#DF0000;}
</style>
<path class="st0" d="M65.9,1c-27.1,0-35,0-36.6,0.2c-5.6,0.5-9,1.3-12.8,3.2C13.6,5.8,11.3,7.5,9,9.9c-4.1,4.2-6.6,9.5-7.5,15.8
	c-0.4,3-0.6,3.6-0.6,19.1c0,5.2,0,12,0,21.2c0,27.1,0,35,0.2,36.6c0.5,5.4,1.3,8.8,3.1,12.6c3.4,7.1,10,12.5,17.8,14.5
	c2.7,0.7,5.6,1.1,9.4,1.2c1.6,0.1,18,0.1,34.4,0.1s32.8,0,34.4-0.1c4.4-0.2,7-0.6,9.8-1.3c7.8-2,14.2-7.3,17.8-14.5
	c1.8-3.6,2.7-7.2,3.1-12.3c0.1-1.1,0.1-19,0.1-36.8s0-35.7-0.1-36.8c-0.4-5.2-1.3-8.7-3.1-12.4c-1.5-3-3.2-5.3-5.6-7.6
	c-4.3-4.1-9.6-6.6-15.8-7.5c-3-0.4-3.6-0.6-19.2-0.6L65.9,1L65.9,1z"/>
<path class="st1" d="M66,18c-13,0-14.7,0.1-19.8,0.3c-5.1,0.2-8.6,1-11.7,2.2c-3.2,1.2-5.8,2.9-8.5,5.5c-2.7,2.7-4.3,5.3-5.5,8.5
	c-1.2,3.1-2,6.5-2.2,11.7C18.1,51.3,18,53,18,66s0.1,14.7,0.3,19.8c0.2,5.1,1,8.6,2.2,11.7c1.2,3.2,2.9,5.8,5.5,8.5
	c2.7,2.7,5.3,4.3,8.5,5.5c3.1,1.2,6.5,2,11.7,2.2c5.1,0.2,6.8,0.3,19.8,0.3s14.7-0.1,19.8-0.3c5.1-0.2,8.6-1,11.7-2.2
	c3.2-1.2,5.8-2.9,8.5-5.5c2.7-2.7,4.3-5.3,5.5-8.5c1.2-3.1,2-6.5,2.2-11.6s0.3-6.8,0.3-19.8s-0.1-14.7-0.3-19.8
	c-0.2-5.1-1.1-8.6-2.2-11.7c-1.2-3.2-2.9-5.8-5.5-8.5c-2.7-2.7-5.3-4.3-8.5-5.5c-3.1-1.2-6.6-2-11.7-2.2C80.7,18.1,79,18,66,18
	L66,18z M61.7,26.6c1.3,0,2.7,0,4.3,0c12.8,0,14.3,0,19.4,0.3c4.7,0.2,7.2,1,8.9,1.7c2.2,0.9,3.8,1.9,5.5,3.6s2.7,3.3,3.6,5.5
	c0.7,1.7,1.4,4.2,1.7,8.9c0.2,5.1,0.3,6.6,0.3,19.4s-0.1,14.3-0.3,19.4c-0.2,4.7-1,7.2-1.7,8.9c-0.9,2.2-1.9,3.8-3.6,5.5
	s-3.3,2.7-5.5,3.6c-1.7,0.7-4.2,1.4-8.9,1.7c-5.1,0.2-6.6,0.3-19.4,0.3s-14.3-0.1-19.4-0.3c-4.7-0.2-7.2-1-8.9-1.7
	c-2.2-0.9-3.8-1.9-5.5-3.6s-2.7-3.3-3.6-5.5c-0.7-1.7-1.4-4.2-1.7-8.9c-0.2-5.1-0.3-6.6-0.3-19.4s0-14.3,0.3-19.4
	c0.2-4.7,1-7.2,1.7-8.9c0.9-2.2,1.9-3.8,3.6-5.5s3.3-2.7,5.5-3.6c1.7-0.7,4.2-1.4,8.9-1.7C51,26.7,52.8,26.6,61.7,26.6L61.7,26.6
	L61.7,26.6z M91.6,34.6c-3.2,0-5.8,2.6-5.8,5.8s2.6,5.8,5.8,5.8s5.8-2.6,5.8-5.8S94.8,34.6,91.6,34.6L91.6,34.6z M66,41.3
	c-13.6,0-24.7,11-24.7,24.7s11,24.6,24.7,24.6c13.6,0,24.6-11,24.6-24.6S79.6,41.3,66,41.3L66,41.3z M66,50c8.8,0,16,7.2,16,16
	s-7.2,16-16,16s-16-7.2-16-16S57.2,50,66,50z"/>
</svg>
