<?xml version="1.0" standalone="no"?>
<!DOCTYPE svg PUBLIC "-//W3C//DTD SVG 20010904//EN"
 "http://www.w3.org/TR/2001/REC-SVG-20010904/DTD/svg10.dtd">
<svg version="1.0" xmlns="http://www.w3.org/2000/svg"
 width="1000.000000pt" height="1000.000000pt" viewBox="0 0 1000.000000 1000.000000"
 preserveAspectRatio="xMidYMid meet">
<metadata>
Created by potrace 1.14, written by Peter Selinger 2001-2017
</metadata>
<g transform="translate(0.000000,1000.000000) scale(0.100000,-0.100000)"
fill="#000000" stroke="none">
<path d="M4705 8580 c-112 -22 -267 -92 -370 -166 -33 -23 -650 -634 -1371
-1356 -997 -999 -1323 -1331 -1362 -1389 -85 -126 -134 -234 -162 -359 -7 -30
-16 -65 -21 -78 -5 -13 -9 -100 -9 -194 l0 -170 41 -122 c81 -237 142 -329
378 -571 417 -428 2315 -2325 2405 -2403 157 -137 199 -169 316 -232 104 -57
230 -106 337 -132 65 -15 373 -22 387 -8 5 5 21 10 35 10 50 0 264 88 340 139
29 20 70 47 91 61 30 20 137 119 235 218 6 5 30 29 54 53 24 24 46 47 50 52 3
4 45 44 94 90 48 46 87 89 87 95 0 7 11 17 24 22 13 5 37 26 52 47 16 21 35
42 42 46 10 7 104 100 187 186 6 6 26 26 45 45 19 19 42 42 50 51 8 8 195 195
415 414 220 220 405 405 412 411 11 12 180 181 203 203 6 7 49 50 96 97 46 47
91 92 100 100 8 8 31 31 50 50 19 19 38 39 43 44 5 4 47 46 94 93 92 93 104
105 145 144 208 196 332 413 382 669 11 57 12 370 1 430 -21 113 -118 308
-222 445 -40 54 -2644 2659 -2691 2693 -171 124 -220 155 -301 191 -51 22
-136 51 -191 65 -88 23 -116 26 -275 25 -97 -1 -194 -5 -216 -9z m395 -34
c143 -27 273 -73 386 -137 61 -34 125 -88 284 -239 284 -271 1858 -1839 2279
-2271 291 -297 354 -368 393 -435 50 -86 88 -184 115 -297 25 -103 25 -353 -1
-462 -36 -158 -118 -324 -225 -457 -32 -40 -623 -636 -1312 -1324 -1333 -1330
-1317 -1315 -1494 -1399 -291 -137 -615 -126 -928 31 -147 74 -237 145 -467
365 -435 417 -2424 2426 -2483 2507 -104 145 -163 288 -192 466 -20 121 -19
174 6 302 34 180 131 400 236 531 75 94 2553 2573 2633 2634 127 96 274 160
437 189 133 24 187 23 333 -4z"/>
<path d="M4935 7650 c-4 -6 -4 -29 0 -51 l7 -41 -205 -205 c-181 -181 -208
-204 -229 -197 -78 25 -74 -9 12 -92 89 -86 104 -91 95 -32 -6 42 -5 44 50 98
51 50 57 53 67 36 47 -83 160 -153 229 -142 89 14 189 91 255 196 73 117 3
247 -142 265 l-55 7 26 19 c14 11 25 26 25 33 0 11 -112 116 -124 116 -3 0 -8
-5 -11 -10z m169 -239 c57 -54 34 -134 -64 -224 -99 -92 -173 -102 -229 -31
-36 45 -24 90 40 164 29 34 71 75 94 91 34 26 47 30 88 26 31 -3 56 -12 71
-26z"/>
<path d="M5295 7121 c-94 -43 -195 -176 -195 -255 0 -39 41 -124 73 -154 35
-31 131 -72 171 -72 36 0 62 21 53 43 -3 8 -23 17 -44 20 -21 4 -59 19 -84 35
-80 51 -89 125 -25 198 l35 39 108 -107 c60 -60 113 -108 120 -108 6 0 25 18
42 39 63 79 76 152 42 220 -22 42 -80 97 -118 112 -41 15 -135 10 -178 -10z
m206 -80 c16 -16 29 -37 29 -46 0 -20 -24 -74 -44 -99 -15 -18 -18 -16 -78 39
-74 68 -79 92 -28 117 52 26 87 23 121 -11z"/>
<path d="M4123 6904 c-64 -44 -113 -130 -113 -196 0 -86 87 -211 181 -259 42
-21 139 -26 182 -10 38 15 96 70 118 113 48 94 30 196 -50 282 -75 81 -123
106 -201 106 -59 0 -71 -4 -117 -36z m143 -73 c66 -38 151 -131 164 -180 20
-77 -20 -141 -89 -141 -43 0 -107 39 -169 103 -82 86 -100 157 -53 211 37 43
80 45 147 7z"/>
<path d="M5716 6861 c-4 -5 -2 -20 2 -33 5 -12 7 -30 4 -38 -6 -21 -212 -229
-242 -244 -14 -8 -40 -11 -57 -9 -27 4 -33 2 -33 -13 0 -20 128 -154 148 -154
18 0 25 25 13 48 -12 23 1 43 88 136 74 78 118 106 167 106 35 0 47 -5 59 -24
10 -15 13 -34 10 -49 -7 -27 15 -57 44 -57 17 0 91 63 91 78 0 11 -60 67 -86
80 -11 6 -44 14 -72 18 l-52 7 25 23 c14 13 25 27 25 32 0 12 -105 102 -119
102 -5 0 -12 -4 -15 -9z"/>
<path d="M3640 6705 l-34 -35 42 -42 42 -42 35 34 c19 19 35 39 35 45 0 14
-62 75 -76 75 -6 0 -25 -16 -44 -35z"/>
<path d="M3766 6548 c-49 -56 -61 -95 -26 -84 11 3 29 9 40 12 15 5 46 -21
145 -118 124 -124 125 -125 125 -172 0 -64 18 -61 96 21 73 76 79 100 21 95
-37 -4 -42 0 -186 147 -82 83 -153 151 -159 151 -6 0 -31 -24 -56 -52z"/>
<path d="M6019 6563 c-1 -5 -2 -27 -3 -51 -1 -41 -6 -47 -201 -243 l-200 -200
-37 6 c-33 6 -38 4 -38 -12 0 -28 134 -157 155 -149 16 6 17 18 1 56 -4 10 13
37 47 75 l54 59 59 -63 c88 -95 159 -120 241 -86 63 27 139 91 182 156 37 56
41 67 41 125 0 57 -3 67 -31 99 -39 45 -70 60 -134 70 l-50 7 23 18 c12 10 22
24 22 32 0 7 -25 34 -54 61 -52 44 -75 56 -77 40z m152 -226 c27 -18 35 -30
37 -61 5 -62 -5 -85 -71 -154 -77 -80 -133 -108 -182 -92 -47 15 -75 54 -75
100 0 29 9 50 39 87 44 55 106 115 136 131 32 18 80 14 116 -11z"/>
<path d="M3608 6388 c-63 -50 -71 -59 -103 -120 -16 -30 -25 -64 -25 -93 0
-92 93 -220 193 -266 25 -11 65 -19 99 -19 49 0 62 5 99 33 59 44 101 126 97
187 -3 39 -6 45 -27 48 -29 4 -41 -12 -41 -57 0 -25 -9 -43 -39 -72 -62 -62
-116 -53 -208 33 -95 90 -118 174 -63 230 23 23 36 29 53 23 55 -17 68 -17 87
0 11 10 20 23 20 30 0 11 -71 85 -82 85 -3 0 -30 -19 -60 -42z"/>
<path d="M3112 6177 c-18 -18 -32 -37 -32 -43 0 -13 63 -74 76 -74 11 0 74 62
74 72 0 9 -71 78 -80 78 -3 0 -20 -15 -38 -33z"/>
<path d="M3226 6005 c-26 -30 -45 -59 -41 -65 3 -5 25 -7 48 -4 l42 6 123
-125 c119 -121 124 -127 120 -164 -5 -61 22 -55 97 22 37 37 64 72 62 78 -2 7
-21 13 -43 15 -37 3 -52 15 -184 147 -80 80 -152 145 -161 145 -9 0 -38 -25
-63 -55z"/>
<path d="M6371 6038 c-68 -33 -145 -117 -170 -183 -12 -30 -21 -66 -21 -78 0
-38 49 -125 88 -157 40 -33 116 -60 169 -60 29 0 33 3 33 28 0 25 -5 28 -50
39 -61 15 -104 46 -126 91 -20 43 -9 90 35 142 l30 35 108 -107 c60 -60 114
-108 122 -108 7 0 22 10 32 23 29 33 79 133 79 157 0 57 -66 147 -131 181 -53
27 -141 26 -198 -3z m202 -68 c13 -11 28 -31 31 -44 8 -33 -14 -96 -39 -112
-19 -13 -26 -8 -89 55 l-68 69 38 26 c46 31 92 33 127 6z"/>
<path d="M3081 5856 c-73 -73 -76 -98 -14 -89 36 5 39 3 60 -34 25 -45 93
-217 93 -236 0 -8 -42 7 -117 44 -152 75 -157 79 -149 122 11 59 -15 52 -93
-27 -80 -81 -91 -111 -37 -101 37 7 77 -8 316 -123 111 -53 139 -63 160 -55
21 7 25 15 24 48 -1 22 -13 69 -27 105 -110 277 -120 306 -120 358 0 71 -16
69 -96 -12z"/>
<path d="M6895 5799 c-28 -21 -47 -29 -62 -25 -75 19 -73 19 -73 -3 0 -12 6
-24 14 -27 35 -13 20 -37 -90 -149 -64 -64 -122 -132 -130 -152 -21 -49 -11
-90 30 -135 35 -38 64 -50 125 -52 50 -1 55 29 9 48 -18 8 -42 23 -52 35 -33
36 -14 72 102 192 l107 110 59 -55 c48 -45 62 -53 77 -46 35 19 31 33 -27 91
l-58 59 44 45 44 45 -24 25 c-30 32 -46 31 -95 -6z"/>
<path d="M7045 5500 c7 -39 6 -39 -102 -150 -159 -162 -174 -199 -117 -282 26
-37 68 -60 137 -72 42 -8 45 -15 17 -39 -11 -9 -20 -21 -20 -26 0 -5 25 -31
55 -56 67 -57 87 -55 79 7 l-5 43 145 145 c80 80 146 149 146 155 0 18 -94
105 -113 105 -15 0 -16 -6 -11 -41 l7 -40 -105 -105 c-98 -98 -106 -104 -145
-104 -58 0 -103 38 -103 87 0 31 13 48 130 167 72 73 130 137 130 142 0 17
-95 104 -114 104 -15 0 -17 -6 -11 -40z"/>
<path d="M2573 5190 c-146 -73 -224 -230 -168 -340 47 -93 122 -140 223 -140
58 0 76 4 108 26 58 39 112 94 141 142 30 51 35 149 10 198 -38 72 -145 143
-218 144 -20 0 -62 -13 -96 -30z m218 -89 c52 -52 35 -120 -54 -217 -67 -74
-127 -108 -174 -101 -44 8 -69 29 -83 73 -10 29 -8 41 13 87 70 153 222 234
298 158z"/>
<path d="M7425 5033 c-25 -6 -100 -65 -138 -107 -38 -42 -77 -124 -77 -162 0
-79 45 -151 129 -205 118 -76 286 -1 371 165 31 61 32 67 21 113 -15 60 -64
129 -120 168 -35 23 -55 30 -105 31 -33 2 -70 0 -81 -3z m198 -114 c41 -50 3
-154 -86 -236 -31 -28 -73 -57 -93 -63 -77 -26 -144 16 -144 90 0 72 124 220
199 236 14 3 31 7 36 8 21 6 71 -14 88 -35z"/>
<path d="M2987 4873 c-17 -16 -4 -35 37 -52 49 -22 61 -51 40 -98 -6 -15 -57
-73 -113 -128 l-101 -99 -48 47 c-33 33 -56 47 -75 47 -48 0 -44 -27 12 -84
28 -28 51 -56 51 -61 0 -5 -16 -26 -36 -46 -40 -41 -40 -58 0 -84 24 -16 27
-15 70 14 44 31 89 40 101 21 9 -15 35 -12 41 5 3 8 -4 27 -15 41 l-22 27 114
116 c63 64 122 131 132 150 32 63 -2 137 -79 172 -41 19 -97 25 -109 12z"/>
<path d="M3271 4556 c-19 -23 -2 -42 50 -55 57 -15 104 -56 114 -100 17 -80
-149 -251 -244 -251 -33 0 -81 52 -81 89 0 16 5 33 10 36 16 10 11 33 -12 55
-29 26 -32 26 -75 -13 -28 -27 -35 -39 -30 -58 9 -37 102 -135 150 -158 59
-28 144 -28 200 0 51 26 137 114 160 162 24 50 23 153 -2 193 -49 80 -203 144
-240 100z"/>
<path d="M6663 4466 l-27 -23 18 -44 c19 -47 52 -132 91 -239 13 -36 31 -83
39 -105 8 -22 15 -62 16 -88 0 -74 21 -73 97 6 36 37 63 72 60 79 -2 8 -18 12
-40 10 -41 -3 -66 22 -93 96 -10 26 -30 78 -45 117 -15 38 -26 71 -24 73 5 5
215 -97 248 -121 25 -17 28 -24 22 -53 -11 -62 18 -55 96 22 78 77 90 110 36
100 -28 -5 -65 9 -233 87 -251 118 -229 111 -261 83z"/>
<path d="M6361 4160 c-71 -78 -76 -103 -16 -93 35 6 39 3 191 -148 l155 -154
56 58 c44 46 53 60 44 71 -9 10 -20 12 -41 6 -37 -11 -63 8 -192 141 -96 98
-99 102 -96 143 5 65 -24 58 -101 -24z"/>
<path d="M3648 4184 c-14 -13 -8 -52 8 -58 9 -3 28 -6 43 -6 43 0 109 -55 121
-101 10 -35 8 -47 -10 -83 -11 -24 -30 -52 -41 -62 -19 -18 -22 -16 -127 89
-59 59 -114 107 -122 107 -14 0 -63 -64 -89 -117 -6 -12 -11 -44 -11 -71 0
-56 33 -110 96 -158 32 -25 48 -29 113 -32 74 -4 78 -2 136 35 57 37 117 101
143 150 21 38 14 143 -11 188 -32 57 -122 115 -189 122 -29 3 -56 2 -60 -3z
m-14 -298 c36 -35 66 -67 66 -70 0 -14 -78 -56 -106 -56 -38 0 -79 31 -88 65
-9 35 30 125 55 125 4 0 37 -29 73 -64z"/>
<path d="M6145 3933 c-74 -39 -135 -131 -135 -205 0 -32 4 -39 26 -44 31 -8
44 7 44 53 0 42 41 90 89 104 32 10 44 8 77 -7 80 -38 173 -157 174 -222 0
-37 -28 -81 -57 -88 -14 -4 -41 -1 -60 5 -32 12 -37 11 -59 -10 -13 -12 -24
-26 -24 -30 0 -19 64 -79 84 -79 12 0 49 21 81 48 148 119 151 272 6 404 -92
84 -176 108 -246 71z"/>
<path d="M4085 3850 c-3 -5 -3 -25 1 -45 6 -34 3 -38 -117 -160 -67 -69 -127
-125 -133 -125 -5 0 -27 17 -48 37 -31 31 -42 36 -56 27 -28 -18 -25 -47 8
-79 16 -16 30 -36 30 -46 0 -9 -20 -33 -44 -53 -73 -60 -143 -45 -138 29 2 20
-4 40 -14 50 -16 15 -19 14 -50 -16 -19 -18 -34 -40 -34 -48 0 -23 87 -98 136
-117 61 -23 105 -13 187 42 51 35 71 44 80 35 33 -33 64 4 32 39 -13 15 -2 28
115 144 127 126 130 128 165 122 62 -12 57 17 -16 91 -71 72 -95 88 -104 73z"/>
<path d="M6777 3742 c-15 -15 -27 -33 -27 -39 0 -11 65 -73 77 -73 14 0 63 54
63 69 0 20 -50 71 -70 71 -9 0 -28 -13 -43 -28z"/>
<path d="M5837 3633 c-78 -80 -87 -109 -30 -100 37 6 39 5 188 -143 83 -83
155 -150 161 -150 17 0 104 95 104 114 0 16 -5 18 -41 12 l-42 -7 -126 125
c-121 120 -125 126 -126 167 0 23 -5 44 -11 46 -6 2 -41 -27 -77 -64z"/>
<path d="M4410 3504 c0 -8 5 -24 11 -35 9 -18 -2 -33 -92 -124 -114 -116 -149
-136 -197 -111 -34 18 -42 32 -35 68 3 18 -2 32 -18 47 -13 11 -26 21 -30 21
-9 0 -89 -78 -89 -88 0 -4 17 -24 38 -44 37 -36 92 -58 146 -58 l29 0 -27 -21
c-14 -11 -26 -25 -26 -31 0 -17 104 -108 123 -108 16 0 17 6 11 46 l-7 46 125
124 125 125 41 -7 c37 -6 42 -4 42 13 0 23 -131 153 -154 153 -9 0 -16 -7 -16
-16z"/>
<path d="M5589 3382 c-94 -60 -137 -140 -126 -234 7 -58 23 -90 76 -150 49
-55 147 -108 200 -108 49 0 131 40 165 81 112 132 75 285 -96 398 -53 36 -67
41 -117 41 -45 0 -66 -6 -102 -28z m193 -131 c77 -69 118 -154 98 -205 -34
-91 -128 -88 -236 7 -117 103 -137 213 -46 258 30 16 37 16 84 1 30 -10 71
-35 100 -61z"/>
<path d="M6247 3212 c-15 -15 -27 -31 -27 -36 0 -15 56 -76 69 -76 19 0 71 49
71 66 0 15 -60 74 -76 74 -5 0 -22 -13 -37 -28z"/>
<path d="M4618 3214 c-14 -13 -8 -52 8 -58 9 -3 28 -6 43 -6 31 0 89 -39 108
-73 18 -32 16 -83 -6 -126 -40 -77 -40 -76 -164 47 -126 125 -124 125 -176 43
-63 -98 -62 -162 5 -239 54 -64 103 -85 184 -80 58 3 73 9 125 44 38 26 75 63
102 103 40 58 43 67 43 131 0 62 -3 73 -33 112 -45 59 -115 100 -180 106 -29
2 -55 0 -59 -4z m-14 -303 l69 -69 -34 -21 c-48 -30 -83 -35 -117 -17 -34 17
-57 65 -48 99 6 25 43 77 54 77 4 0 38 -31 76 -69z"/>
<path d="M5407 2833 c-3 -5 -2 -15 4 -23 17 -28 9 -47 -46 -106 -50 -54 -56
-57 -66 -40 -40 66 -118 126 -192 147 -53 15 -143 -27 -217 -101 -82 -81 -114
-145 -107 -207 9 -79 74 -136 181 -158 27 -6 27 -7 11 -25 -9 -10 -14 -26 -11
-37 9 -27 104 -106 121 -99 17 6 19 34 6 55 -6 9 -6 23 1 35 16 31 359 375
390 392 16 8 39 11 57 8 58 -12 49 19 -29 93 -72 68 -94 82 -103 66z m-213
-132 c30 -26 48 -70 41 -100 -7 -33 -121 -160 -169 -190 -52 -33 -101 -28
-143 14 -33 33 -35 39 -31 80 4 35 16 57 53 101 94 109 190 146 249 95z"/>
</g>
</svg>
