<?xml version="1.0" encoding="utf-8"?>
<!-- Generator: Adobe Illustrator 25.4.1, SVG Export Plug-In . SVG Version: 6.00 Build 0)  -->
<svg version="1.1" id="Capa_1" xmlns="http://www.w3.org/2000/svg" xmlns:xlink="http://www.w3.org/1999/xlink" x="0px" y="0px"
	 viewBox="0 0 500 500" style="enable-background:new 0 0 500 500;" xml:space="preserve">
<style type="text/css">
	.st0{fill-rule:evenodd;clip-rule:evenodd;}
	.st1{fill-rule:evenodd;clip-rule:evenodd;fill:#FFFFFF;}
</style>
<rect x="0" class="st0" width="500" height="500"/>
<path class="st1" d="M356.3,143.1c-28.2-28.2-65.7-43.8-105.7-43.8c-82.3,0-149.3,67-149.4,149.4c0,26.3,6.9,52,19.9,74.7L100,400.7
	l79.2-20.8c21.8,11.9,46.4,18.2,71.4,18.2h0.1c82.3,0,149.3-67,149.4-149.4C400,208.8,384.5,171.3,356.3,143.1L356.3,143.1z
	 M250.6,372.9L250.6,372.9c-22.3,0-44.2-6-63.2-17.3l-4.5-2.7l-47,12.3l12.5-45.8l-3-4.7c-12.4-19.8-19-42.6-19-66.1
	c0-68.5,55.7-124.1,124.2-124.1c33.2,0,64.3,12.9,87.8,36.4c23.4,23.5,36.3,54.7,36.3,87.8C374.8,317.2,319.1,372.9,250.6,372.9
	L250.6,372.9z M318.7,279.9c-3.7-1.9-22.1-10.9-25.5-12.1c-3.4-1.2-5.9-1.9-8.4,1.9c-2.5,3.7-9.6,12.1-11.8,14.6
	c-2.2,2.5-4.4,2.8-8.1,0.9c-3.7-1.9-15.8-5.8-30-18.5c-11.1-9.9-18.6-22.1-20.8-25.9c-2.2-3.7-0.2-5.8,1.6-7.6
	c1.7-1.7,3.7-4.4,5.6-6.5c1.9-2.2,2.5-3.7,3.7-6.2c1.2-2.5,0.6-4.7-0.3-6.5c-0.9-1.9-8.4-20.2-11.5-27.7c-3-7.3-6.1-6.3-8.4-6.4
	c-2.2-0.1-4.7-0.1-7.2-0.1c-2.5,0-6.5,0.9-10,4.7c-3.4,3.7-13.1,12.8-13.1,31.1c0,18.4,13.4,36.1,15.2,38.6s26.3,40.2,63.8,56.4
	c8.9,3.8,15.9,6.1,21.3,7.9c8.9,2.8,17.1,2.4,23.5,1.5c7.2-1.1,22.1-9,25.2-17.7c3.1-8.7,3.1-16.2,2.2-17.7
	C324.9,282.7,322.5,281.8,318.7,279.9L318.7,279.9z"/>
</svg>
